<?xml version="1.0" encoding="UTF-8"?>
<svg version="1.1" xmlns="http://www.w3.org/2000/svg" width="512" height="512">
<path d="M0 0 C0.78087859 -0.00350607 1.56175718 -0.00701215 2.36629876 -0.01062447 C4.98667224 -0.01993897 7.6068235 -0.01501503 10.22720623 -0.01015663 C12.12338034 -0.01389286 14.01955291 -0.01849427 15.91572303 -0.02388728 C21.12953299 -0.03613598 26.34327887 -0.0358546 31.55709994 -0.03349853 C37.17890612 -0.03309083 42.80069163 -0.04412493 48.42248821 -0.05361366 C59.43773641 -0.07023472 70.45296321 -0.0757237 81.46822289 -0.07683842 C90.42061912 -0.07778834 99.37300827 -0.08189581 108.32540226 -0.08823967 C129.56993443 -0.10298793 150.81446066 -0.11528908 172.05899811 -0.11424255 C172.73839077 -0.1142114 173.41778342 -0.11418024 174.11776374 -0.11414814 C177.56119978 -0.11398192 181.00463583 -0.11378384 184.44807187 -0.11357872 C185.13194931 -0.11353883 185.81582674 -0.11349894 186.52042773 -0.11345784 C187.90339449 -0.11337697 189.28636125 -0.11329337 190.66932801 -0.11320706 C212.1863437 -0.11198153 233.70329635 -0.12699511 255.220294 -0.15435219 C279.39518226 -0.1850759 303.57001589 -0.20225918 327.74492854 -0.20042574 C340.54483445 -0.19976134 353.34466927 -0.20527583 366.14455891 -0.22678185 C377.04191521 -0.24497375 387.93916821 -0.24935729 398.83653311 -0.235763 C404.39711879 -0.22922344 409.95750615 -0.22915196 415.51807308 -0.2464695 C420.60893975 -0.26216126 425.69945019 -0.25937632 430.79030796 -0.24190123 C432.63146252 -0.23882277 434.47264341 -0.24249549 436.31376693 -0.25362138 C453.9798142 -0.35330227 453.9798142 -0.35330227 461.10286236 4.25726891 C461.81747956 4.70264712 462.53209675 5.14802533 463.26836902 5.60689986 C470.66379308 10.42033543 475.75649842 17.80852204 478.10286236 26.25726891 C478.28614067 28.92630334 478.37536102 31.48807809 478.36013126 34.15440655 C478.36363734 34.93528514 478.36714341 35.71616373 478.37075573 36.52070531 C478.38007023 39.14107879 478.37514629 41.76123005 478.3702879 44.38161278 C478.37402412 46.27778689 478.37862554 48.17395945 478.38401854 50.07012957 C478.39626725 55.28393953 478.39598587 60.49768542 478.39362979 65.71150649 C478.3932221 71.33331267 478.40425619 76.95509818 478.41374493 82.57689476 C478.43036599 93.59214296 478.43585497 104.60736975 478.43696968 115.62262944 C478.4379196 124.57502567 478.44202707 133.52741482 478.44837093 142.47980881 C478.4631192 163.72434098 478.47542035 184.96886721 478.47437382 206.21340466 C478.47434266 206.89279731 478.4743115 207.57218997 478.4742794 208.27217028 C478.47411319 211.71560633 478.4739151 215.15904238 478.47370999 218.60247842 C478.47365015 219.62829457 478.47365015 219.62829457 478.47358911 220.67483427 C478.47350823 222.05780104 478.47342464 223.4407678 478.47333832 224.82373456 C478.4721128 246.34075024 478.48712637 267.8577029 478.51448345 289.37470055 C478.54520716 313.5495888 478.56239044 337.72442244 478.56055701 361.89933509 C478.5598926 374.699241 478.5654071 387.49907582 478.58691311 400.29896545 C478.60510501 411.19632176 478.60948856 422.09357475 478.59589426 432.99093965 C478.5893547 438.55152533 478.58928323 444.11191269 478.60660076 449.67247963 C478.62229253 454.76334629 478.61950758 459.85385674 478.6020325 464.94471451 C478.59895403 466.78586907 478.60262675 468.62704996 478.61375265 470.46817348 C478.71343353 488.13422075 478.71343353 488.13422075 474.10286236 495.25726891 C473.65756471 495.9718861 473.21226706 496.6865033 472.75347555 497.42277557 C467.63376234 505.28726302 460.12080948 510.08332551 451.10286236 512.25726891 C448.34330988 512.44236815 445.68633204 512.54053029 442.92973614 512.53142357 C442.13507383 512.53666025 441.34041153 512.54189693 440.52166855 512.54729229 C437.87403948 512.56222617 435.22660478 512.56299596 432.57893658 512.56366539 C430.67470762 512.57129097 428.77048173 512.57971915 426.86625957 512.58888817 C421.70533995 512.61079208 416.54447955 512.61962576 411.3835187 512.62471461 C408.15904032 512.62836097 404.93457741 512.63460228 401.71010494 512.641716 C390.4612971 512.6661896 379.2125353 512.67925931 367.9637022 512.68280602 C357.47585725 512.68644668 346.98830396 512.71638547 336.50054824 512.7582106 C327.49402386 512.7928706 318.48759644 512.80835366 309.48100579 512.80905205 C304.10240327 512.80984588 298.72409847 512.81863463 293.34556484 512.84704971 C288.29094901 512.873159 283.23687942 512.87547557 278.18222713 512.85939407 C276.3266433 512.85757429 274.47102854 512.86431786 272.61551189 512.88021278 C270.08369695 512.90058093 267.55381039 512.89017793 265.02202129 512.87199974 C264.28651637 512.88519971 263.55101145 512.89839968 262.79321849 512.91199964 C258.87917635 512.84773238 257.23687267 512.36535813 254.14941883 509.87509823 C251.92490767 507.0296402 251.42227779 505.81468112 251.47786236 502.25726891 C251.46497173 501.43226891 251.45208111 500.60726891 251.43879986 499.75726891 C252.41430468 496.08478016 254.17406412 494.63783221 257.10286236 492.25726891 C259.84034116 491.76227382 261.95879047 491.57647748 264.6894865 491.61803246 C265.82295514 491.60549894 265.82295514 491.60549894 266.97932214 491.59271222 C269.50705753 491.57079447 272.03333833 491.58438463 274.56111431 491.59784508 C276.37464787 491.58939184 278.18817234 491.57874772 280.00168133 491.56607628 C284.92284227 491.53790351 289.84356772 491.54040624 294.76478505 491.54837012 C299.9084828 491.55149265 305.05204124 491.52646825 310.19568157 491.50441551 C319.93493096 491.46694355 329.6740407 491.45482565 339.41335505 491.45179111 C350.50159828 491.44710371 361.58970133 491.41419058 372.67788279 491.37889326 C395.48619233 491.30691997 418.29444844 491.27043577 441.10286236 491.25726891 C433.90477391 478.0009506 423.21202649 464.27103419 408.21346664 459.67877352 C384.90957736 453.88439552 358.90752787 455.8207596 335.10550588 456.0629859 C327.91910447 456.13411771 320.73498016 456.14248623 313.54832745 456.10898018 C312.51794222 456.10422995 311.48755699 456.09947973 310.42594796 456.09458556 C308.33146054 456.08467212 306.23697376 456.07462146 304.14248765 456.06443523 C284.59085312 455.97644323 265.04375453 456.0770134 245.49286473 456.24424659 C228.78735485 456.38272741 212.08852529 456.35865852 195.3831358 456.215765 C175.8927153 456.0491224 156.40625019 455.98495334 136.91521645 456.07974517 C134.82927732 456.08961816 132.74333759 456.09936369 130.65739727 456.10898018 C129.6315985 456.11376272 128.60579974 456.11854526 127.54891616 456.12347273 C120.38716605 456.15002268 113.22799383 456.10499308 106.06663799 456.03211403 C58.60640639 453.11086949 58.60640639 453.11086949 17.32388592 471.63493729 C11.66424682 477.59806033 7.02084892 484.04173144 3.10286236 491.25726891 C4.51837903 491.25808606 4.51837903 491.25808606 5.96249199 491.25891972 C28.91364927 491.27330873 51.86461674 491.31629875 74.81566429 491.38935947 C85.91459321 491.42402737 97.0133977 491.44936736 108.11238384 491.45282555 C117.78514363 491.45586293 127.45768192 491.47632306 137.13035613 491.51779348 C142.25304823 491.5391456 147.37542525 491.55171269 152.49816227 491.5434227 C157.31884642 491.53589661 162.1388914 491.55164654 166.95945835 491.58532906 C168.72953947 491.59357975 170.49968393 491.5932918 172.26975918 491.58386612 C174.68600835 491.57227236 177.10015288 491.5913162 179.51623821 491.61803246 C180.21760849 491.6073592 180.91897877 491.59668594 181.64160269 491.58568925 C185.47396205 491.66481306 187.02020538 492.1900843 190.03552246 494.64097118 C192.28401674 497.48652671 192.78365005 498.6868568 192.72786236 502.25726891 C192.74075298 503.08226891 192.75364361 503.90726891 192.76692486 504.75726891 C191.78830271 508.44149346 190.05146467 509.8779055 187.10286236 512.25726891 C184.26442454 512.74626557 182.02859872 512.92700776 179.19716167 512.87872887 C178.40703048 512.88511769 177.61689929 512.89150651 176.80282474 512.89808893 C174.15785418 512.91333709 171.51438207 512.89287948 168.86946392 512.87250328 C166.97201828 512.87600465 165.07457557 512.88166341 163.17714214 512.88931847 C158.02391109 512.9035776 152.87121296 512.8864913 147.71803284 512.86303329 C142.32236521 512.84292948 136.92671984 512.84880382 131.53102398 512.85114098 C122.46536251 512.85108738 113.39990928 512.8313208 104.33430767 512.79926109 C93.86367983 512.76241181 83.39332526 512.75357927 72.92264104 512.76055861 C62.84351469 512.76687306 52.76448175 512.75608899 42.68537426 512.73659325 C38.40010779 512.72843326 34.11488917 512.72570715 29.82961559 512.72728539 C24.77671656 512.72816695 19.72407555 512.71387507 14.67124462 512.68805885 C12.82059258 512.68092001 10.96991303 512.67880239 9.1192503 512.68217659 C-4.24619483 512.70188981 -14.83741036 512.07878771 -24.89713764 502.25726891 C-31.15790593 494.72049641 -34.21092496 488.25501431 -34.15440655 478.36013126 C-34.15791262 477.57925267 -34.1614187 476.79837408 -34.16503102 475.9938325 C-34.17434552 473.37345902 -34.16942157 470.75330776 -34.16456318 468.13292503 C-34.16829941 466.23675093 -34.17290082 464.34057836 -34.17829382 462.44440824 C-34.19054253 457.23059828 -34.19026115 452.0168524 -34.18790507 446.80303133 C-34.18749738 441.18122514 -34.19853147 435.55943963 -34.20802021 429.93764305 C-34.22464127 418.92239485 -34.23013025 407.90716806 -34.23124497 396.89190837 C-34.23219488 387.93951215 -34.23630236 378.98712299 -34.24264622 370.034729 C-34.25739448 348.79019684 -34.26969563 327.5456706 -34.2686491 306.30113316 C-34.26861794 305.6217405 -34.26858679 304.94234784 -34.26855468 304.24236753 C-34.26838847 300.79893148 -34.26819039 297.35549543 -34.26798527 293.91205939 C-34.26794538 293.22818196 -34.26790549 292.54430453 -34.26786439 291.83970354 C-34.26778352 290.45673678 -34.26769992 289.07377001 -34.26761361 287.69080325 C-34.26638808 266.17378757 -34.28140166 244.65683491 -34.30875874 223.13983727 C-34.33948245 198.96494901 -34.35666573 174.79011538 -34.35483229 150.61520272 C-34.35416789 137.81529682 -34.35968238 125.01546199 -34.38118839 112.21557236 C-34.3993803 101.31821605 -34.40376384 90.42096306 -34.39016955 79.52359816 C-34.38362998 73.96301248 -34.38355851 68.40262512 -34.40087605 62.84205818 C-34.41656781 57.75119152 -34.41378286 52.66068107 -34.39630778 47.5698233 C-34.39322932 45.72866874 -34.39690204 43.88748785 -34.40802793 42.04636433 C-34.50770882 24.38031707 -34.50770882 24.38031707 -29.89713764 17.25726891 C-29.45175943 16.54265171 -29.00638121 15.82803451 -28.54750669 15.09176224 C-21.97381475 4.99185776 -11.84673094 -0.06766714 0 0 Z M2.10286236 20.25726891 C4.08286236 22.56726891 6.06286236 24.87726891 8.10286236 27.25726891 C9.33113359 28.80488523 9.33113359 28.80488523 10.58421838 30.38376653 C20.43568568 42.7260331 30.308794 54.4307814 46.76187539 56.29775929 C53.98817908 56.86207163 61.19720981 56.86560139 68.43964314 56.74406457 C72.97139167 56.69685315 77.50034542 56.80107361 82.0312376 56.88400841 C90.87264122 57.02166703 99.70855059 57.02036969 108.55064972 56.96542986 C115.74898387 56.92283139 122.94573897 56.92955847 130.14407253 56.97010994 C131.69023347 56.97868453 131.69023347 56.97868453 133.26762997 56.98743235 C135.36275911 56.99918104 137.45788782 57.01100485 139.55301611 57.02290289 C159.13260535 57.12770921 178.70912705 57.06954708 198.28850441 56.95738868 C216.12838836 56.85976228 233.96129985 56.95073932 251.80032952 57.13368161 C270.19867292 57.32093143 288.59382174 57.38835334 306.9930681 57.32552946 C309.0816307 57.31875835 311.17019388 57.31216189 313.25875759 57.30574226 C314.79945708 57.30099193 314.79945708 57.30099193 316.37128181 57.29614563 C323.54227477 57.28154927 330.71019578 57.34315312 337.88053036 57.43532753 C385.70628756 60.42299446 385.70628756 60.42299446 427.25850773 41.57587814 C436.86133218 32.04853786 436.86133218 32.04853786 442.10286236 20.25726891 C296.90286236 20.25726891 151.70286236 20.25726891 2.10286236 20.25726891 Z M-13.89713764 36.25726891 C-13.89713764 181.45726891 -13.89713764 326.65726891 -13.89713764 476.25726891 C-11.58713764 474.27726891 -9.27713764 472.29726891 -6.89713764 470.25726891 C-5.86539343 469.43842142 -4.83364921 468.61957393 -3.77064002 467.77591288 C8.57162656 457.92444558 20.27637485 448.05133726 22.14335275 431.59825587 C22.70766509 424.37195219 22.71119484 417.16292145 22.58965802 409.92048812 C22.54244661 405.3887396 22.64666706 400.85978585 22.72960186 396.32889366 C22.86726048 387.48749004 22.86596314 378.65158067 22.81102331 369.80948155 C22.76842484 362.6111474 22.77515193 355.41439229 22.81570339 348.21605873 C22.82141979 347.18528478 22.82713619 346.15451082 22.83302581 345.09250129 C22.84477449 342.99737216 22.8565983 340.90224344 22.86849634 338.80711515 C22.97330266 319.22752591 22.91514054 299.65100421 22.80298214 280.07162686 C22.70535574 262.23174291 22.79633277 244.39883142 22.97927506 226.55980174 C23.16652488 208.16145834 23.23394679 189.76630953 23.17112291 171.36706316 C23.1643518 169.27850056 23.15775534 167.18993739 23.15133572 165.10137367 C23.14816883 164.07424068 23.14500193 163.04710769 23.14173908 161.98884945 C23.12714273 154.81785649 23.18874657 147.64993548 23.28092098 140.47960091 C26.26858791 92.6538437 26.26858791 92.6538437 7.4214716 51.10162354 C-2.10586868 41.49879908 -2.10586868 41.49879908 -13.89713764 36.25726891 Z M436.79872417 51.11609459 C414.80696246 74.39758921 420.46119733 113.65076424 420.77327895 143.32640147 C420.84673389 150.50756839 420.85533433 157.68630739 420.82075787 164.86774254 C420.81585441 165.89770355 420.81095095 166.92766457 420.8058989 167.98883653 C420.79566559 170.08251673 420.78529071 172.17619624 420.77477598 174.26987505 C420.68396336 193.81021588 420.78772998 213.34571927 420.96038771 232.88526583 C421.10333526 249.57809047 421.0784894 266.26379138 420.93098736 282.95648766 C420.75893553 302.43601175 420.69274778 321.91131848 420.7905798 341.39149666 C420.80077117 343.47659556 420.81083108 345.5616951 420.82075787 347.64679527 C420.82569468 348.67215834 420.8306315 349.69752141 420.83571792 350.75395608 C420.86311479 357.90980402 420.81666168 365.06290125 420.74141216 372.21832848 C417.90055756 419.95204668 417.90055756 419.95204668 436.79872417 461.39844322 C446.32011473 471.00587544 446.32011473 471.00587544 458.10286236 476.25726891 C458.10286236 331.05726891 458.10286236 185.85726891 458.10286236 36.25726891 C451.2723156 36.25726891 441.36791386 46.76005583 436.79872417 51.11609459 Z M40.10286236 74.25726891 C40.10286236 194.37726891 40.10286236 314.49726891 40.10286236 438.25726891 C160.22286236 438.25726891 280.34286236 438.25726891 404.10286236 438.25726891 C404.10286236 318.13726891 404.10286236 198.01726891 404.10286236 74.25726891 C283.98286236 74.25726891 163.86286236 74.25726891 40.10286236 74.25726891 Z " fill="#000000" transform="translate(33.89713764190674,-0.25726890563964844)"/>
<path d="M0 0 C0.8971875 -0.01289063 1.794375 -0.02578125 2.71875 -0.0390625 C6.48166199 0.85938559 8.90673015 2.8504872 11.5 5.625 C12.80822245 8.12413735 13.80080314 10.33175463 14.734375 12.95703125 C15.0098819 13.68503937 15.28538879 14.41304749 15.56924438 15.16311646 C16.47991038 17.58189981 17.36476173 20.00930743 18.25 22.4375 C18.89237288 24.15825785 19.53645615 25.87837802 20.18212891 27.59790039 C21.56831748 31.29838546 22.94375123 35.00263018 24.31152344 38.70996094 C26.57105504 44.8289837 28.86499531 50.93480318 31.1640625 57.0390625 C33.47008878 63.1654802 35.77550976 69.29209754 38.06933594 75.4230957 C38.42463379 76.3727269 38.77993164 77.32235809 39.14599609 78.30076599 C39.85181278 80.19072083 40.55593519 82.08130935 41.25830078 83.97254944 C43.14302159 89.0397299 45.06583851 94.08852004 47.04003906 99.12158203 C47.66611557 100.73704674 47.66611557 100.73704674 48.30484009 102.38514709 C49.10529518 104.4483531 49.91603487 106.50760984 50.73886108 108.56199646 C52.90568794 114.18378983 54.13020156 118.5908412 53.5 124.625 C51.70636089 127.4350346 50.48119065 129.13440468 47.5 130.625 C45.51171875 130.8984375 45.51171875 130.8984375 43.1875 131 C42.42824219 131.04898438 41.66898437 131.09796875 40.88671875 131.1484375 C38.5 130.625 38.5 130.625 33.5 125.625 C30.86 118.695 28.22 111.765 25.5 104.625 C8.67 104.625 -8.16 104.625 -25.5 104.625 C-28.14 111.555 -30.78 118.485 -33.5 125.625 C-38.5 130.625 -38.5 130.625 -41 131.2890625 C-45.4512188 131.21951221 -47.8182237 131.09806927 -51.5625 128.5 C-53.78701603 125.19910525 -54.2697819 123.58846916 -54.5 119.625 C-53.80679808 116.51441068 -52.70902301 113.59021682 -51.58203125 110.61328125 C-51.26313431 109.73891922 -50.94423737 108.86455719 -50.61567688 107.96369934 C-49.59340975 105.17776796 -48.54941151 102.40080979 -47.5 99.625 C-47.17143005 98.74857849 -46.84286011 97.87215698 -46.5043335 96.96917725 C-44.10237873 90.56928199 -41.6508157 84.18898629 -39.1875 77.8125 C-37.60186002 73.70481388 -36.01719949 69.59675206 -34.43359375 65.48828125 C-34.03008698 64.44220703 -33.6265802 63.39613281 -33.21084595 62.31835938 C-30.68900942 55.76469817 -28.21146352 49.19604416 -25.76789856 42.61280823 C-24.15909492 38.28021593 -22.53747972 33.95246665 -20.91519165 29.62490845 C-20.14301137 27.55401077 -19.37711934 25.48075668 -18.61776733 23.40512085 C-17.55825761 20.51113985 -16.47689689 17.62620958 -15.390625 14.7421875 C-14.93218956 13.46259407 -14.93218956 13.46259407 -14.4644928 12.15715027 C-11.82841471 5.26696092 -8.11182548 -0.11654922 0 0 Z M-0.5 35.625 C-1.16588135 37.403302 -1.16588135 37.403302 -1.84521484 39.2175293 C-3.49585927 43.62529128 -5.1472345 48.03277916 -6.79882812 52.44018555 C-7.51289415 54.34603554 -8.22676324 56.25195933 -8.94042969 58.15795898 C-9.96757799 60.9010744 -10.99543939 63.64392171 -12.0234375 66.38671875 C-12.34122162 67.23586349 -12.65900574 68.08500824 -12.98641968 68.95988464 C-13.2865799 69.76033707 -13.58674011 70.56078949 -13.89599609 71.38549805 C-14.17417175 72.12851166 -14.45234741 72.87152527 -14.73895264 73.63705444 C-15.36626405 75.27566591 -16.03617426 76.89790306 -16.71728516 78.51489258 C-17.67389034 80.71868813 -17.67389034 80.71868813 -17.5 83.625 C-5.95 83.625 5.6 83.625 17.5 83.625 C16.80361578 80.14307891 16.13568512 77.36119885 14.91772461 74.11010742 C14.59746811 73.24959274 14.27721161 72.38907806 13.94725037 71.50248718 C13.60243118 70.5877211 13.257612 69.67295502 12.90234375 68.73046875 C12.54862198 67.78311356 12.19490021 66.83575836 11.83045959 65.85969543 C10.70302204 62.84262195 9.57033616 59.82755006 8.4375 56.8125 C7.67087676 54.76380176 6.90459672 52.71497507 6.13867188 50.66601562 C4.26309017 45.65084791 2.38319883 40.63731209 0.5 35.625 C0.17 35.625 -0.16 35.625 -0.5 35.625 Z " fill="#000000" transform="translate(186.5,190.375)"/>
<path d="M0 0 C1.01251579 -0.01226624 1.01251579 -0.01226624 2.04548645 -0.02478027 C4.28316358 -0.04962713 6.52077729 -0.06614862 8.75854492 -0.08056641 C9.52274939 -0.08589008 10.28695385 -0.09121376 11.07431602 -0.09669876 C15.11952079 -0.12342772 19.16469473 -0.14280307 23.20996094 -0.15722656 C27.38663035 -0.17387113 31.56251016 -0.21864683 35.73888111 -0.26959801 C38.95168454 -0.30326775 42.16430051 -0.3148036 45.37726402 -0.32045364 C46.91666382 -0.32716734 48.45605122 -0.34239275 49.99527931 -0.36634445 C52.15245353 -0.39799567 54.30749793 -0.39803455 56.46484375 -0.390625 C57.69125076 -0.39871185 58.91765778 -0.40679871 60.18122864 -0.41513062 C64.34623205 0.36517964 65.80509822 1.93584874 68.42651367 5.19287109 C69.81023438 9.17106814 69.51917395 10.91489027 68.17651367 14.94287109 C66.42651367 18.19287109 66.42651367 18.19287109 63.42651367 20.19287109 C60.79101562 20.41992188 60.79101562 20.41992188 57.66479492 20.38818359 C56.5465332 20.38173828 55.42827148 20.37529297 54.27612305 20.36865234 C52.52525391 20.34351563 52.52525391 20.34351563 50.73901367 20.31787109 C49.56016602 20.30884766 48.38131836 20.29982422 47.16674805 20.29052734 C44.25313341 20.26693532 41.33992475 20.2340165 38.42651367 20.19287109 C38.43539612 21.48468796 38.44427856 22.77650482 38.45343018 24.10746765 C38.53448435 36.27611339 38.59446402 48.44470442 38.63376236 60.61355877 C38.65464519 66.86984691 38.68297615 73.12591728 38.72827148 79.38208008 C38.77170348 85.41859391 38.79564554 91.45489816 38.80602264 97.49155617 C38.81341869 99.79568596 38.82786126 102.09980416 38.8494339 104.40384483 C38.87843189 107.62893928 38.88247107 110.8531655 38.88061523 114.07836914 C38.90218689 115.51011978 38.90218689 115.51011978 38.92419434 116.97079468 C38.89754084 121.24582505 38.81934772 123.5593325 36.52313232 127.26252747 C32.99225657 130.5133826 30.33498494 130.52682975 25.68823242 130.48193359 C22.34017066 130.05402933 20.66584386 128.64213849 18.42651367 126.19287109 C17.50136231 123.417417 17.30277384 121.78327573 17.30625916 118.92182922 C17.30488449 118.05104736 17.30350983 117.1802655 17.30209351 116.28309631 C17.30568878 115.33075607 17.30928406 114.37841583 17.31298828 113.3972168 C17.31284225 112.39216095 17.31269623 111.3871051 17.31254578 110.35159302 C17.31324338 107.0239243 17.32102873 103.6963113 17.32885742 100.36865234 C17.33072214 98.06365489 17.33214579 95.75865705 17.33314514 93.45365906 C17.33696608 87.38242502 17.34679278 81.31121484 17.35784912 75.23999023 C17.36807232 69.04655276 17.37264471 62.85311144 17.37768555 56.65966797 C17.3884154 44.50405852 17.40548678 32.34846679 17.42651367 20.19287109 C16.7256665 20.21381836 16.02481934 20.23476562 15.30273438 20.25634766 C12.11497448 20.33970158 8.92744416 20.39159249 5.73901367 20.44287109 C4.6362207 20.47638672 3.53342773 20.50990234 2.3972168 20.54443359 C-5.80892104 20.64360142 -5.80892104 20.64360142 -9.78051758 18.30224609 C-12.60354767 14.98103422 -12.90623528 12.60775592 -12.86645508 8.23193359 C-12.41093666 5.06152542 -10.82032976 3.37363089 -8.57348633 1.19287109 C-5.7016779 -0.24303312 -3.20965841 0.03372292 0 0 Z " fill="#000000" transform="translate(310.573486328125,190.80712890625)"/>
<path d="M0 0 C2.87029869 1.79393668 4.49131638 2.98263276 6 6 C6.0916994 7.39381247 6.12193744 8.79192655 6.12025452 10.18875122 C6.12162918 11.06657257 6.12300385 11.94439392 6.12442017 12.84881592 C6.12082489 13.81410217 6.11722961 14.77938843 6.11352539 15.77392578 C6.11367142 16.78858917 6.11381744 17.80325256 6.1139679 18.84866333 C6.11326928 22.21423454 6.10547922 25.57975092 6.09765625 28.9453125 C6.09579189 31.27415944 6.09436807 33.60300677 6.09336853 35.93185425 C6.08954476 42.07050656 6.07971566 48.20913533 6.06866455 54.34777832 C6.05844742 60.60815106 6.05387026 66.86852759 6.04882812 73.12890625 C6.03809329 85.4192812 6.02101853 97.70963864 6 110 C6.61782286 109.92968189 7.23564571 109.85936378 7.87219048 109.78691483 C9.08798381 109.64987703 9.08798381 109.64987703 10.32833862 109.5100708 C11.13178648 109.41912769 11.93523434 109.32818459 12.7630291 109.23448563 C16.88254936 108.80266584 20.98672307 108.77519499 25.125 108.75 C25.97964844 108.729375 26.83429688 108.70875 27.71484375 108.6875 C33.25885571 108.65343541 37.10352773 109.34482583 42 112 C44.27042717 114.70986468 44.91835776 116.45183064 45.4375 119.9375 C44.88393677 123.8124426 43.40826469 125.95425348 41 129 C38.61969039 130.19015481 37.10336889 130.15185503 34.44604492 130.19287109 C33.50133835 130.20893402 32.55663177 130.22499695 31.58329773 130.24154663 C27.26086107 130.28597262 22.93857833 130.32706033 18.6159668 130.35009766 C16.33558957 130.36666096 14.05526434 130.39395565 11.77514648 130.43212891 C8.4891463 130.48686781 5.20436334 130.50876757 1.91796875 130.5234375 C0.90010788 130.54610687 -0.11775299 130.56877625 -1.16645813 130.59213257 C-8.24038636 130.5710031 -8.24038636 130.5710031 -12.11987305 127.65478516 C-14.62777844 124.11356152 -15.12529035 121.57995833 -15.14044189 117.35173035 C-15.14615204 116.39706375 -15.15186218 115.44239716 -15.15774536 114.45880127 C-15.15886322 113.41302917 -15.15998108 112.36725708 -15.16113281 111.28979492 C-15.16609772 110.18708755 -15.17106262 109.08438019 -15.17617798 107.94825745 C-15.19080921 104.29232158 -15.19760321 100.63642911 -15.203125 96.98046875 C-15.20887563 94.44322203 -15.21463338 91.90597533 -15.22039795 89.36872864 C-15.22956646 84.72561633 -15.23586568 80.08251707 -15.2388947 75.43939799 C-15.24337354 68.61190973 -15.26091456 61.78462185 -15.2898953 54.95719451 C-15.3141439 49.03852924 -15.32184036 43.11991373 -15.32357025 37.20119667 C-15.32659863 34.68579327 -15.33463333 32.17039076 -15.34775543 29.65501976 C-15.36480294 26.13598818 -15.36293854 22.61744475 -15.35644531 19.09838867 C-15.3656601 18.05868927 -15.37487488 17.01898987 -15.3843689 15.94778442 C-15.35328712 10.57252054 -15.14149751 6.58682472 -12 2 C-7.98141405 -0.6790573 -4.72358279 -0.69610694 0 0 Z " fill="#000000" transform="translate(264,191)"/>
<path d="M0 0 C3.125 1.875 3.125 1.875 5 5 C5.98876625 10.02622846 5.7769173 13.70513784 3.125 18.125 C-1.29486216 20.7769173 -4.97377154 20.98876625 -10 20 C-13.125 18.125 -13.125 18.125 -15 15 C-15.98876625 9.97377154 -15.7769173 6.29486216 -13.125 1.875 C-8.70513784 -0.7769173 -5.02622846 -0.98876625 0 0 Z " fill="#000000" transform="translate(261,492)"/>
</svg>
