<?xml version="1.0" encoding="UTF-8"?>
<svg version="1.1" xmlns="http://www.w3.org/2000/svg" width="512" height="512">
<path d="M0 0 C2.23706151 0.21595953 4.47456007 0.42641403 6.71234131 0.63476562 C32.22175752 3.03889271 32.22175752 3.03889271 44.36712646 7.22851562 C45.39193115 7.57527344 46.41673584 7.92203125 47.47259521 8.27929688 C67.70920185 15.89747609 84.12703431 32.1561758 93.24212646 51.60351562 C98.84014461 64.67378695 100.97006954 76.93562415 100.87506104 91.11846924 C100.87968381 92.64990794 100.88604587 94.18134218 100.89397001 95.71276736 C100.91049704 99.8721566 100.90249393 104.03117353 100.89002514 108.1905632 C100.88090829 112.69500867 100.89497679 117.19939377 100.90594482 121.7038269 C100.92366263 130.50758638 100.91992076 139.31120889 100.90829426 148.11497357 C100.89923586 155.27220434 100.89804631 162.42939691 100.90238953 169.58663177 C100.90300246 170.60788292 100.90361539 171.62913407 100.9042469 172.68133222 C100.90552587 174.75636891 100.90682273 176.83140559 100.90813726 178.90644225 C100.91952271 198.32885042 100.90646016 217.75118285 100.8849358 237.17357859 C100.86705591 253.82278816 100.87018022 270.47188618 100.88861084 287.12109375 C100.910035 306.48340971 100.91843556 325.84565949 100.90616179 345.20798564 C100.90488766 347.27387793 100.90363017 349.33977023 100.90238953 351.40566254 C100.90177242 352.42197499 100.90115532 353.43828744 100.90051952 354.48539723 C100.89707207 361.63238361 100.90288169 368.77932783 100.91230774 375.92630768 C100.92354581 384.63810296 100.92044923 393.34975415 100.89918476 402.061533 C100.88870034 406.50259582 100.884508 410.94341869 100.89778137 415.38447952 C100.90976473 419.45556683 100.90304579 423.52619341 100.88187116 427.59723935 C100.87743026 429.06398587 100.87961438 430.53077192 100.88937432 431.9974927 C100.98939696 448.28772602 96.35807574 461.01028461 85.17962646 472.97851562 C73.94552642 483.6394473 60.66323012 488.21072946 45.36712646 488.22851562 C29.42410403 487.18957459 17.49020943 480.84439608 6.61712646 469.41601562 C1.13285668 463.12776912 -2.31573594 456.23317277 -4.63287354 448.22851562 C-9.92679201 448.88481528 -14.96134549 449.98422389 -20.11724854 451.33789062 C-21.77743467 451.76532762 -23.43775929 452.19222702 -25.09820557 452.61865234 C-25.96044739 452.84099548 -26.82268921 453.06333862 -27.71105957 453.29241943 C-114.61687207 475.60899826 -204.16394285 476.16226164 -299.79278564 448.94970703 C-302.79066208 448.0644346 -302.79066208 448.0644346 -306.63287354 448.22851562 C-306.82881104 448.89496094 -307.02474854 449.56140625 -307.22662354 450.24804688 C-311.91215113 464.6883582 -321.43663713 475.44704544 -334.59771729 482.72070312 C-347.78715905 489.27298693 -362.8046662 489.73778332 -376.73052979 485.22460938 C-383.63787849 482.5786844 -389.12662472 479.1383429 -394.63287354 474.22851562 C-395.24775635 473.70644531 -395.86263916 473.184375 -396.49615479 472.64648438 C-405.08855753 464.81615727 -410.93988386 453.50459303 -411.91167152 441.89895129 C-412.02168932 437.96001405 -412.03821629 434.02685411 -412.02055359 430.08700562 C-412.02473201 428.56359803 -412.0302123 427.04019356 -412.0368734 425.5167948 C-412.05128083 421.35163318 -412.04709802 417.18667024 -412.03970659 413.02149796 C-412.03496536 408.52096611 -412.0474934 404.02047665 -412.057724 399.5199585 C-412.07490039 390.71004799 -412.07575417 381.90020884 -412.0705111 373.09028594 C-412.06646493 365.92532229 -412.06791827 358.76037968 -412.07325935 351.59541702 C-412.07400778 350.57450783 -412.0747562 349.55359864 -412.0755273 348.5017528 C-412.07705883 346.42752984 -412.07859718 344.35330688 -412.08014227 342.27908392 C-412.09386387 322.83561343 -412.08843268 303.39218319 -412.07695705 283.94871362 C-412.06703167 266.18363707 -412.07995394 248.41866478 -412.10389125 230.65360431 C-412.12831096 212.39219924 -412.13788265 194.13084267 -412.13123852 175.8694216 C-412.12775183 165.62526203 -412.12994164 155.38118255 -412.14748955 145.13703537 C-412.16224774 136.41350488 -412.16280017 127.69011085 -412.14541864 118.96658294 C-412.13693474 114.52101088 -412.13469462 110.0756822 -412.15007019 105.63012314 C-412.16400641 101.54996073 -412.15904088 97.47024814 -412.13983095 93.39011116 C-412.13609769 91.92445668 -412.13891454 90.45876538 -412.14944261 88.99314396 C-412.23824903 75.66876977 -409.9915914 62.65357645 -404.07037354 50.60351562 C-403.56655151 49.55949585 -403.56655151 49.55949585 -403.05255127 48.49438477 C-392.83136182 28.26614659 -375.14165199 14.38675984 -354.20318604 6.51757812 C-339.76206089 2.0956436 -324.46209519 1.1141862 -309.50787354 -0.27148438 C-308.38313629 -0.37787231 -307.25839905 -0.48426025 -306.09957886 -0.59387207 C-289.6888061 -2.14250263 -273.26981106 -3.46065641 -256.82037354 -4.52148438 C-255.90906677 -4.58037842 -254.99776001 -4.63927246 -254.05883789 -4.69995117 C-233.53856082 -6.00732562 -213.01008552 -6.85086801 -192.45294189 -7.27416992 C-189.56686325 -7.33405721 -186.68093584 -7.399204 -183.79498291 -7.46484375 C-122.43966827 -8.80895494 -61.06758196 -5.92944724 0 0 Z M-318.00787354 19.22851562 C-318.7573526 19.30019958 -319.50683167 19.37188354 -320.27902222 19.44573975 C-342.16822866 21.56914837 -362.74794809 26.94139639 -377.63287354 44.22851562 C-390.09247177 59.98363798 -393.95191185 77.1731125 -393.89356995 96.94773865 C-393.89659579 98.41298604 -393.90048743 99.87823186 -393.90516251 101.34347492 C-393.91539528 105.34304099 -393.91327283 109.34251695 -393.90898192 113.34209025 C-393.90650611 117.66596659 -393.91553938 121.98982171 -393.92301941 126.31369019 C-393.93574422 134.77385776 -393.93756291 143.23399356 -393.93521915 151.6941691 C-393.93343353 158.57262147 -393.93519084 165.45106423 -393.93944359 172.32951546 C-393.94003878 173.30981363 -393.94063397 174.29011181 -393.94124719 175.30011599 C-393.94245898 177.29180534 -393.94367312 179.28349469 -393.94488957 181.27518404 C-393.95575632 199.93690208 -393.95360657 218.59860203 -393.94750472 237.26032109 C-393.94233496 254.31993436 -393.95359411 271.37949053 -393.97260294 288.43909251 C-393.99198969 305.97277651 -394.00023596 323.50643351 -393.99647969 341.04012829 C-393.9945691 350.87724472 -393.99704152 360.71431255 -394.01119423 370.55142021 C-394.02311957 378.92477933 -394.02449988 387.29805992 -394.01240406 395.67142015 C-394.00652382 399.94027098 -394.00539228 404.20897825 -394.01740646 408.47781944 C-394.02829347 412.39174465 -394.02512869 416.3054069 -394.01114478 420.21931995 C-394.00850561 421.62902024 -394.01083969 423.03874134 -394.01888064 424.44842117 C-394.09223008 438.27614614 -392.48029137 449.92759828 -382.63287354 460.22851562 C-373.78759742 467.37673295 -364.97570668 470.29729322 -353.63287354 469.22851562 C-345.05723267 467.75916906 -337.4110257 463.73048221 -331.77740479 457.01757812 C-326.14597439 448.86938501 -323.51252404 441.12148497 -323.50258827 431.16026115 C-323.49715175 429.35905998 -323.49715175 429.35905998 -323.4916054 427.5214709 C-323.49320778 425.55572272 -323.49320778 425.55572272 -323.49484253 423.55026245 C-323.49242305 422.13725236 -323.48956034 420.72424298 -323.4862932 419.31123459 C-323.47855375 415.43317128 -323.47692152 411.55512568 -323.47624207 407.6770556 C-323.47439998 403.49299092 -323.46679196 399.30893654 -323.45976257 395.12487793 C-323.44824468 387.8763835 -323.43999651 380.6278914 -323.43364334 373.37939072 C-323.42331496 361.92691261 -323.40275217 350.47446348 -323.38052368 339.02200317 C-323.37304442 335.10394869 -323.36563067 331.18589408 -323.35823631 327.26783943 C-323.35638575 326.28874977 -323.35453518 325.30966012 -323.35262854 324.30090108 C-323.33170795 313.15975066 -323.312875 302.01859707 -323.29498291 290.87744141 C-323.29334473 289.85909341 -323.29170655 288.8407454 -323.29001872 287.79153837 C-323.26370861 271.27265177 -323.24507787 254.75376293 -323.22839101 238.23486422 C-323.21098672 221.27992251 -323.18216206 204.32502482 -323.14350164 187.37011826 C-323.12007513 176.908537 -323.1061047 166.44702747 -323.104174 155.98541977 C-323.10206894 148.82203644 -323.08917604 141.6587246 -323.06769468 134.49537335 C-323.05563639 130.35920012 -323.04853376 126.22316883 -323.05440712 122.08697891 C-323.05968381 118.30339809 -323.05129016 114.52010742 -323.03185074 110.73657514 C-323.02507595 108.71374999 -323.03312208 106.69089214 -323.04162848 104.66807353 C-323.02836872 102.8746956 -323.02836872 102.8746956 -323.01484108 101.04508781 C-323.01348455 100.01094431 -323.01212802 98.9768008 -323.01073039 97.91131961 C-322.57700152 94.83182134 -321.75552919 93.46633302 -319.63287354 91.22851562 C-310.01366061 87.46473939 -297.18426523 88.08630761 -286.94537354 87.22851562 C-285.92698395 87.14169525 -284.90859436 87.05487488 -283.85934448 86.96542358 C-266.84561373 85.51585459 -249.82334054 84.16926627 -232.76663208 83.33566284 C-231.2909199 83.26155959 -229.81543973 83.18274055 -228.34017944 83.10012817 C-206.8303064 81.91124136 -185.29180306 82.04110124 -163.75665283 82.04321289 C-159.41285997 82.0432936 -155.06917382 82.03642623 -150.72540283 82.02270508 C-121.96521348 81.93334954 -93.34308332 82.49710748 -64.63287354 84.22851562 C-63.46416718 84.29775238 -62.29546082 84.36698914 -61.09133911 84.43832397 C-55.16337862 84.79632062 -49.24130812 85.20701366 -43.32037354 85.66601562 C-42.08921814 85.75931152 -42.08921814 85.75931152 -40.83319092 85.85449219 C-35.09784226 86.29009522 -29.36474105 86.7493449 -23.63287354 87.22851562 C-22.87871155 87.29145813 -22.12454956 87.35440063 -21.34753418 87.41925049 C-16.52289015 87.82603085 -11.70258345 88.26690701 -6.88287354 88.72851562 C-5.69911133 88.83478271 -4.51534912 88.9410498 -3.29571533 89.05053711 C-2.21588379 89.16083252 -1.13605225 89.27112793 -0.02349854 89.38476562 C0.9043042 89.47564453 1.83210693 89.56652344 2.7880249 89.66015625 C5.8053642 90.32509054 7.85181458 91.45157305 10.36712646 93.22851562 C11.68660392 95.86747054 11.49570107 97.83371891 11.50020504 100.79061222 C11.50656661 102.57524186 11.50656661 102.57524186 11.5130567 104.39592463 C11.51267056 105.71466418 11.51228443 107.03340374 11.5118866 108.3921051 C11.51501868 109.79809973 11.5185931 111.20409343 11.52257401 112.6100859 C11.53229799 116.48753135 11.53582673 120.36496206 11.53841698 124.24241793 C11.54230329 128.41915192 11.55194117 132.5958728 11.56097412 136.77259827 C11.57593093 144.01569414 11.58746753 151.25878896 11.59692192 158.501894 C11.61078234 168.98410848 11.63196895 179.46629874 11.65535045 189.94849586 C11.69329528 206.96671612 11.72825204 223.98494078 11.75994873 241.00317383 C11.76184922 242.02247228 11.76374972 243.04177074 11.7657078 244.09195703 C11.79252241 258.54760386 11.81639922 273.00325408 11.8390928 287.45890789 C11.8406901 288.47608401 11.8422874 289.49326013 11.84393311 290.54125977 C11.8463233 292.06516738 11.8463233 292.06516738 11.84876179 293.61986101 C11.87553726 310.5645215 11.90994186 327.50915632 11.95058686 344.45378917 C11.97535492 354.90739882 11.99368554 365.36098085 12.00374246 375.81461518 C12.01113869 382.98179672 12.02567294 390.14894123 12.0458067 397.31609822 C12.05718782 401.45081035 12.06533286 405.58546276 12.06479836 409.72019196 C12.06436953 413.50845504 12.0731222 417.29658391 12.08904815 421.08481251 C12.0951468 423.09816677 12.09149593 425.11154335 12.08745283 427.12490278 C12.15867632 439.6874803 14.30063677 450.91017899 23.36712646 460.22851562 C31.23528625 466.55866063 39.70178581 469.91443428 49.87103271 469.50195312 C60.09865445 468.38155638 68.33469561 463.73145831 75.28900146 456.12695312 C82.57316507 446.21039376 82.80971376 434.24729469 82.74807739 422.40249634 C82.75154113 420.93780971 82.75631047 419.4731257 82.76225913 418.00844705 C82.77470085 414.014957 82.76863012 410.02168397 82.75930047 406.02819347 C82.75248199 401.70906341 82.7630051 397.38996935 82.77124023 393.07084656 C82.78455069 384.62149047 82.78171163 376.17221452 82.77300231 367.72285534 C82.76621468 360.85206876 82.76531371 353.98130457 82.76857376 347.11051559 C82.76903346 346.13093035 82.76949316 345.15134511 82.76996679 344.14207547 C82.77092601 342.15175911 82.77189865 340.16144276 82.77288456 338.17112641 C82.78143082 319.52554621 82.77161679 300.88001032 82.75548346 282.23443739 C82.74208519 266.25555325 82.74440583 250.27673452 82.75823975 234.29785156 C82.77431632 215.72002664 82.7806025 197.14224053 82.77140296 178.56440961 C82.77044736 176.58098881 82.76950425 174.597568 82.76857376 172.61414719 C82.76787952 171.1505232 82.76787952 171.1505232 82.76717126 169.65733106 C82.76458728 162.80037981 82.76893964 155.9434533 82.77601242 149.08650589 C82.78445091 140.72200615 82.78209825 132.35759081 82.76617019 123.99310066 C82.75831834 119.73007473 82.75514277 115.4671892 82.76511765 111.20416451 C82.77412977 107.29325257 82.76902581 103.38260971 82.75318499 99.47172181 C82.74986447 98.0653831 82.75146884 96.65902112 82.75881235 95.25269766 C82.85985806 74.27422609 77.05135027 56.13593161 62.86712646 40.46679688 C45.45359758 23.54561479 23.69419001 20.84919355 0.55462646 18.66601562 C-1.62263371 18.45351336 -3.79987956 18.24086425 -5.97711182 18.02807617 C-26.83660631 16.01801814 -47.70917243 14.38989704 -68.63287354 13.22851562 C-69.56182434 13.17630859 -70.49077515 13.12410156 -71.44787598 13.0703125 C-153.6378548 8.51035991 -236.12956921 11.04413103 -318.00787354 19.22851562 Z M-279.63287354 104.22851562 C-280.91210693 104.33196289 -282.19134033 104.43541016 -283.50933838 104.54199219 C-294.66323364 105.28709554 -294.66323364 105.28709554 -305.63287354 107.22851562 C-305.63287354 212.82851563 -305.63287354 318.42851563 -305.63287354 427.22851562 C-278.69346467 437.33079395 -249.69158787 442.71750873 -221.32037354 446.97851562 C-220.65831909 447.07965668 -219.99626465 447.18079773 -219.31414795 447.28500366 C-198.33660746 450.4547876 -177.33395894 451.61779322 -156.13287354 451.54101562 C-154.50595078 451.5377829 -154.50595078 451.5377829 -152.84616089 451.53448486 C-134.60631491 451.47670306 -116.72388725 450.71605818 -98.63287354 448.22851562 C-97.93321472 448.13376953 -97.23355591 448.03902344 -96.51269531 447.94140625 C-77.93518657 445.41198433 -59.62475784 441.99771877 -41.38287354 437.66601562 C-40.60925476 437.48246521 -39.83563599 437.29891479 -39.03857422 437.10980225 C-30.66425205 435.1060146 -22.3534814 432.92170149 -14.08599854 430.51367188 C-13.35193787 430.30077011 -12.6178772 430.08786835 -11.86157227 429.86851501 C-8.47350394 429.06290354 -8.47350394 429.06290354 -5.63287354 427.22851562 C-5.53558377 425.52392825 -5.50915851 423.81527061 -5.50982571 422.1079092 C-5.50783466 420.99123157 -5.50584361 419.87455394 -5.50379223 418.72403759 C-5.50816149 416.86075167 -5.50816149 416.86075167 -5.51261902 414.95982361 C-5.51176459 413.65223243 -5.51091017 412.34464125 -5.51002985 410.99742609 C-5.50778242 407.35117089 -5.51180954 403.70494478 -5.51680791 400.05869329 C-5.52110869 396.13297547 -5.51966626 392.20725942 -5.51890564 388.28153992 C-5.51838017 381.47438604 -5.52152939 374.66724172 -5.52714348 367.86009026 C-5.53525534 358.01797695 -5.53787337 348.17586827 -5.53913147 338.33375198 C-5.54132249 322.36727409 -5.54798391 306.4008013 -5.55743408 290.43432617 C-5.56660692 274.92032904 -5.57368838 259.40633328 -5.57794189 243.89233398 C-5.57820462 242.93675812 -5.57846734 241.98118226 -5.57873803 240.99664956 C-5.58004302 236.2030174 -5.58130674 231.40938523 -5.58254993 226.61575305 C-5.59292408 186.82000368 -5.61054374 147.02425999 -5.63287354 107.22851562 C-8.20149994 106.90426887 -10.77022738 106.58086139 -13.33901978 106.25793457 C-14.06275001 106.16648792 -14.78648024 106.07504128 -15.53214169 105.98082352 C-20.40953548 105.36854701 -25.27285381 104.84373035 -30.17193604 104.44726562 C-30.88893677 104.38888519 -31.6059375 104.33050476 -32.34466553 104.27035522 C-34.64871655 104.08490888 -36.95318793 103.90589111 -39.25787354 103.72851562 C-40.06835144 103.6653717 -40.87882935 103.60222778 -41.71386719 103.53717041 C-120.9205998 97.40237121 -200.45369507 97.74176803 -279.63287354 104.22851562 Z " fill="#000000" transform="translate(411.63287353515625,15.771484375)"/>
</svg>
