<?xml version="1.0" encoding="UTF-8"?>
<svg version="1.1" xmlns="http://www.w3.org/2000/svg" width="512" height="512">
<path d="M0 0 C0.79789143 -0.00523668 1.59578286 -0.01047336 2.41785282 -0.01586872 C5.08240698 -0.0308302 7.74676847 -0.03157301 10.41136169 -0.03224182 C12.32529523 -0.03986562 14.23922571 -0.0482935 16.15315247 -0.0574646 C21.345122 -0.07938808 26.53703266 -0.08820502 31.72904325 -0.09329104 C34.9724448 -0.09693557 38.21583094 -0.10317599 41.45922661 -0.11029243 C52.77286837 -0.13477441 64.08646433 -0.14783721 75.40013123 -0.15138245 C85.9498707 -0.1550221 96.49932004 -0.18495148 107.04897076 -0.22678703 C116.10642992 -0.26144762 125.16379265 -0.27693011 134.22131771 -0.27762848 C139.63123354 -0.2784224 145.0408534 -0.28721478 150.45070076 -0.31562614 C155.53567103 -0.34173592 160.62009832 -0.34405171 165.70510483 -0.3279705 C167.57197564 -0.32615066 169.43887719 -0.3328948 171.30568123 -0.34878922 C173.85287253 -0.36915638 176.39814691 -0.35875478 178.9453125 -0.34057617 C179.68539049 -0.35377614 180.42546848 -0.36697611 181.18797308 -0.38057607 C185.11242712 -0.31652326 186.76874457 0.16100267 189.86540127 2.65632534 C192.08676652 5.50164284 192.58972106 6.71853037 192.53416443 10.27415466 C192.54705505 11.09915466 192.55994568 11.92415466 192.57322693 12.77415466 C191.59772211 16.44664341 189.83796267 17.89359136 186.90916443 20.27415466 C184.17168562 20.76914975 182.05323631 20.95494609 179.32254028 20.91339111 C178.56689452 20.92174679 177.81124877 20.93010247 177.03270465 20.93871135 C174.50496925 20.9606291 171.97868846 20.94703894 169.45091248 20.93357849 C167.63737892 20.94203173 165.82385445 20.95267585 164.01034546 20.96534729 C159.08918452 20.99352006 154.16845906 20.99101732 149.24724174 20.98305345 C144.10354398 20.97993092 138.95998554 21.00495532 133.81634521 21.02700806 C124.07709583 21.06448001 114.33798609 21.07659792 104.59867173 21.07963246 C93.51042851 21.08431986 82.42232546 21.11723299 71.334144 21.15253031 C48.52583446 21.2245036 25.71757835 21.2609878 2.90916443 21.27415466 C10.10725288 34.53047296 20.8000003 48.26038938 35.79856014 52.85265005 C59.10244943 58.64702805 85.10449892 56.71066396 108.9065209 56.46843766 C116.09292232 56.39730586 123.27704663 56.38893734 130.46369934 56.42244339 C131.49408457 56.42719361 132.5244698 56.43194384 133.58607882 56.43683801 C135.68056625 56.44675145 137.77505303 56.45680211 139.86953914 56.46698834 C159.42117367 56.55498034 178.96827226 56.45441017 198.51916206 56.28717698 C215.22467194 56.14869616 231.92350149 56.17276505 248.62889099 56.31565857 C268.11931149 56.48230117 287.6057766 56.54647023 307.09681034 56.4516784 C309.18274946 56.44180541 311.26868919 56.43205987 313.35462952 56.42244339 C314.89332767 56.41526958 314.89332767 56.41526958 316.46311063 56.40795084 C323.62486073 56.38140089 330.78403296 56.42643049 337.94538879 56.49930954 C385.4056204 59.42055408 385.4056204 59.42055408 426.68814087 40.89648628 C432.34777997 34.93336324 436.99117787 28.48969213 440.90916443 21.27415466 C439.49364776 21.27333751 439.49364776 21.27333751 438.0495348 21.27250385 C415.09837752 21.25811484 392.14741005 21.21512481 369.1963625 21.14206409 C358.09743358 21.1073962 346.99862909 21.08205621 335.89964294 21.07859802 C326.22688315 21.07556064 316.55434487 21.05510051 306.88167065 21.01363009 C301.75897856 20.99227797 296.63660154 20.97971088 291.51386452 20.98800087 C286.69318037 20.99552695 281.87313539 20.97977703 277.05256844 20.94609451 C275.28248732 20.93784382 273.51234286 20.93813177 271.74226761 20.94755745 C269.32601844 20.95915121 266.91187391 20.94010737 264.49578857 20.91339111 C263.7944183 20.92406437 263.09304802 20.93473763 262.37042409 20.94573432 C258.53806474 20.86661051 256.9918214 20.34133927 253.97650433 17.89045238 C251.72801005 15.04489686 251.22837674 13.84456676 251.28416443 10.27415466 C251.2712738 9.44915466 251.25838318 8.62415466 251.24510193 7.77415466 C252.2240605 4.08866359 253.95856151 2.65364055 256.90916443 0.27415466 C259.75888702 -0.21686669 262.00952027 -0.39963224 264.85282898 -0.35403442 C265.64704372 -0.36112881 266.44125846 -0.3682232 267.25954032 -0.37553257 C269.91830719 -0.39312109 272.57561376 -0.37500395 275.23435974 -0.35694885 C277.1416592 -0.36208752 279.04895391 -0.3693684 280.95623779 -0.37863159 C286.13631129 -0.39716542 291.31587085 -0.38419237 296.49592304 -0.36454129 C301.91962601 -0.34816041 307.34329627 -0.35696736 312.76701355 -0.36206055 C321.87974759 -0.36658366 330.99227653 -0.35070188 340.10496521 -0.32276917 C350.63016717 -0.2907548 361.15499841 -0.29071745 371.68022656 -0.30798393 C381.81168834 -0.32387042 391.94301463 -0.31709929 402.07447052 -0.30004692 C406.38208894 -0.29318647 410.68959843 -0.2941987 414.99721527 -0.30159187 C420.0764341 -0.30927532 425.15523334 -0.29706121 430.23438072 -0.26974297 C432.09470818 -0.2628782 433.95507496 -0.26274061 435.81540108 -0.2699585 C453.83361767 -0.33179032 453.83361767 -0.33179032 460.90916443 4.27415466 C461.6233466 4.71948264 462.33752876 5.16481062 463.07335281 5.62363338 C470.50893377 10.46052932 475.48273477 17.81852911 477.90916443 26.27415466 C478.16216409 29.25319988 478.16216409 29.25319988 478.16643333 32.45338154 C478.17288223 33.67896599 478.17933112 34.90455044 478.18597543 36.16727382 C478.18303346 37.51900735 478.17989804 38.87074046 478.17658997 40.22247314 C478.1803278 41.66491979 478.18492986 43.10736441 478.19032061 44.54980582 C478.2025495 48.50944831 478.20229028 52.46900631 478.19993186 56.42866337 C478.19952367 60.70076684 478.21056307 64.97284323 478.220047 69.24493408 C478.23665725 77.61320186 478.24215655 85.98144145 478.24327175 94.34972433 C478.24422219 101.1520449 478.24833229 107.95435618 478.254673 114.75667381 C478.27228531 134.04377361 478.28151187 153.33085116 478.28001206 172.61795906 C478.27989219 174.17749634 478.27989219 174.17749634 478.2797699 175.76853943 C478.27968814 176.8095008 478.27960637 177.85046216 478.27952214 178.92296781 C478.27870919 195.79417869 478.29784906 212.6653003 478.32604663 229.53648535 C478.35477325 246.86094524 478.36858705 264.1853616 478.36685908 281.50984591 C478.36619511 291.23573653 478.3716904 300.96153356 478.39321518 310.68740273 C478.41142402 318.96802616 478.41577674 327.24851359 478.40219633 335.52914838 C478.39566524 339.75308108 478.3955545 343.97675281 478.41290283 348.20066071 C478.42863246 352.07028634 478.42577135 355.93944406 478.40833457 359.80905827 C478.40526441 361.20607093 478.40889775 362.6031185 478.42005472 364.00008998 C478.50726207 375.69763755 476.11902819 384.66167498 467.90916443 393.27415466 C460.13317512 399.8034151 453.1500816 402.59163623 442.9202137 402.52863026 C442.14155801 402.53183673 441.36290232 402.53504321 440.560651 402.53834686 C437.95385649 402.54664219 435.34729201 402.54072421 432.74049377 402.53485107 C430.85170652 402.53787197 428.96292048 402.54176114 427.07413661 402.54644364 C421.88538572 402.55674036 416.6967038 402.55453755 411.50794721 402.55026305 C405.91138285 402.54779887 400.31483523 402.55680615 394.71827698 402.56430054 C383.75463214 402.5770581 372.79101178 402.57883991 361.82736076 402.57650027 C352.9169415 402.57471815 344.00652967 402.57646449 335.0961113 402.58072472 C333.19475853 402.5816175 333.19475853 402.5816175 331.25499459 402.58252832 C328.68003091 402.58374005 326.10506723 402.58495419 323.53010355 402.5861707 C306.2378013 402.5939593 288.94550344 402.59787606 271.65320015 402.59385395 C270.97703923 402.59369757 270.30087831 402.5935412 269.60422766 402.59338008 C266.17721553 402.59257431 262.75020341 402.59172854 259.3231913 402.59086678 C258.64258209 402.59069569 257.96197288 402.59052461 257.26073914 402.59034833 C255.88438223 402.59000168 254.50802531 402.58965315 253.13166839 402.58930275 C231.71519897 402.58394546 210.29877071 402.59187637 188.88230896 402.6103363 C164.81765332 402.63105459 140.75302953 402.64174826 116.688362 402.63776082 C103.94773018 402.63584708 91.20713586 402.63835319 78.46651077 402.65247536 C67.62042727 402.66437577 56.77440438 402.66580907 45.92832007 402.65368519 C40.39408884 402.64778714 34.85996854 402.64672272 29.32574463 402.65868759 C24.25902386 402.66951448 19.19250705 402.66648105 14.12579595 402.65242591 C12.29342121 402.64977018 10.46103066 402.65217292 8.62867142 402.66016177 C-4.64100201 402.71399755 -15.10643625 402.02212923 -25.09083557 392.27415466 C-30.79430856 385.40825956 -34.33596426 379.19511539 -34.34810448 370.09492779 C-34.35455337 368.86934334 -34.36100226 367.64375888 -34.36764657 366.38103551 C-34.3647046 365.02930198 -34.36156919 363.67756886 -34.35826111 362.32583618 C-34.36199895 360.88338954 -34.366601 359.44094492 -34.37199175 357.99850351 C-34.38422064 354.03886101 -34.38396142 350.07930302 -34.381603 346.11964595 C-34.38119481 341.84754248 -34.39223421 337.57546609 -34.40171814 333.30337524 C-34.41832839 324.93510747 -34.42382769 316.56686787 -34.4249429 308.198585 C-34.42589334 301.39626442 -34.43000344 294.59395315 -34.43634415 287.79163551 C-34.45395645 268.50453571 -34.46318301 249.21745817 -34.4616832 229.93035027 C-34.46160329 228.89065874 -34.46152337 227.85096722 -34.46144104 226.7797699 C-34.46135928 225.73880853 -34.46127752 224.69784716 -34.46119328 223.62534151 C-34.46038033 206.75413064 -34.4795202 189.88300903 -34.50771777 173.01182397 C-34.53644439 155.68736408 -34.5502582 138.36294773 -34.54853022 121.03846341 C-34.54786625 111.3125728 -34.55336155 101.58677577 -34.57488632 91.8609066 C-34.59309516 83.58028316 -34.59744788 75.29979574 -34.58386748 67.01916095 C-34.57733638 62.79522825 -34.57722564 58.57155652 -34.59457397 54.34764862 C-34.6103036 50.47802299 -34.60744249 46.60886527 -34.59000571 42.73925105 C-34.58693555 41.3422384 -34.59056889 39.94519083 -34.60172586 38.54821935 C-34.68885952 26.86055666 -32.30651909 17.8744021 -24.09083557 9.27415466 C-16.46309728 2.96325718 -9.98845141 -0.03269369 0 0 Z M-14.09083557 36.27415466 C-14.09083557 145.17415466 -14.09083557 254.07415466 -14.09083557 366.27415466 C-11.78083557 364.29415466 -9.47083557 362.31415466 -7.09083557 360.27415466 C-5.01981111 358.86702849 -2.93905401 357.47411456 -0.84855652 356.09608459 C10.25303934 348.07316172 18.67274801 339.07988392 21.00729072 325.20290005 C22.83907228 310.59697963 22.74691769 295.81465875 22.61752693 281.11601093 C22.57428023 276.06758226 22.58159111 271.02139639 22.62200546 265.97296524 C22.62772186 265.24748102 22.63343826 264.5219968 22.63932788 263.77452821 C22.65107773 262.29946891 22.66290155 260.8244102 22.67479841 259.34935208 C22.77938819 245.59215936 22.72165206 231.83934332 22.60928421 218.08245452 C22.51169361 205.57634045 22.6025884 193.08017698 22.78557713 180.57528238 C22.97332974 167.64587783 23.04010563 154.72101897 22.97742498 141.79032385 C22.97065461 140.31962959 22.96405812 138.84893451 22.95763779 137.37823868 C22.95288745 136.29361738 22.95288745 136.29361738 22.94804115 135.18708455 C22.93350956 130.16457888 22.99470111 125.14649419 23.08722305 120.12493515 C24.38377025 83.57499697 24.38377025 83.57499697 7.22777367 52.74242592 C-2.39771366 42.42657784 -2.39771366 42.42657784 -14.09083557 36.27415466 Z M436.60502625 52.75689697 C418.14332169 71.99491724 420.20112119 96.97104279 420.57958102 122.05351931 C420.65339106 127.08490626 420.66149855 132.11283273 420.62705994 137.14460754 C420.62215648 137.86927882 420.61725302 138.5939501 420.61220098 139.34058112 C420.6019665 140.8141916 420.5915916 142.28780112 420.58107805 143.76140964 C420.49050085 157.47969372 420.59362996 171.1910621 420.76668978 184.90820968 C420.90963607 196.59907275 420.8847827 208.27976386 420.73728943 219.97044373 C420.5647853 233.6493232 420.49928243 247.32219137 420.59688187 261.00200748 C420.60707203 262.46923801 420.61713197 263.93646945 420.62705994 265.40370178 C420.63199675 266.12501272 420.63693357 266.84632366 420.64201999 267.5894925 C420.66929074 272.59677175 420.623258 277.60009267 420.54771423 282.60676575 C419.40103164 319.08717317 419.40103164 319.08717317 436.60502625 349.79141235 C446.22505664 360.11212041 446.22505664 360.11212041 457.90916443 366.27415466 C457.90916443 257.37415466 457.90916443 148.47415466 457.90916443 36.27415466 C451.55063979 36.27415466 440.89947349 48.59822317 436.60502625 52.75689697 Z M39.90916443 74.27415466 C39.90916443 158.09415466 39.90916443 241.91415466 39.90916443 328.27415466 C160.02916443 328.27415466 280.14916443 328.27415466 403.90916443 328.27415466 C403.90916443 244.45415466 403.90916443 160.63415466 403.90916443 74.27415466 C283.78916443 74.27415466 163.66916443 74.27415466 39.90916443 74.27415466 Z M1.90916443 381.27415466 C1.90916443 381.60415466 1.90916443 381.93415466 1.90916443 382.27415466 C147.10916443 382.27415466 292.30916443 382.27415466 441.90916443 382.27415466 C439.92916443 379.96415466 437.94916443 377.65415466 435.90916443 375.27415466 C435.09031694 374.24241045 434.27146945 373.21066623 433.4278084 372.14765704 C423.5763411 359.80539047 413.70323278 348.10064217 397.2501514 346.23366427 C390.02384771 345.66935193 382.81481697 345.66582218 375.57238364 345.787359 C371.04063512 345.83457042 366.51168137 345.73034996 361.98078918 345.64741516 C353.13938557 345.50975654 344.30347619 345.51105388 335.46137707 345.56599371 C328.26304292 345.60859218 321.06628782 345.60186509 313.86795425 345.56131363 C312.32179332 345.55273903 312.32179332 345.55273903 310.74439681 345.54399122 C308.64926768 345.53224253 306.55413897 345.52041872 304.45901068 345.50852068 C284.87942143 345.40371436 265.30289973 345.46187649 245.72352238 345.57403488 C227.88363843 345.67166128 210.05072694 345.58068425 192.21169727 345.39774196 C173.81335387 345.21049214 155.41820505 345.14307023 137.01895869 345.20589411 C134.93039608 345.21266522 132.84183291 345.21926168 130.7532692 345.2256813 C129.21256971 345.23043164 129.21256971 345.23043164 127.64074498 345.23527794 C120.46975201 345.2498743 113.30183101 345.18827045 106.13149643 345.09609604 C44.66173991 342.2502881 44.66173991 342.2502881 1.90916443 381.27415466 Z " fill="#000000" transform="translate(34.09083557128906,54.72584533691406)"/>
<path d="M0 0 C1.42848669 -0.01145629 2.85693275 -0.03180641 4.28515625 -0.06152344 C16.17517474 -0.30885793 24.48344655 1.12785996 33.37231445 9.36157227 C39.05301115 15.72343848 40.49002306 23.05078148 40.3684082 31.35375977 C39.52859336 40.51869569 34.9996908 46.51378604 28.09887695 52.29516602 C25.09887695 54.29516602 25.09887695 54.29516602 22.09887695 54.29516602 C22.64415039 54.96161133 23.18942383 55.62805664 23.7512207 56.31469727 C25.33772321 58.25375589 26.91942002 60.19675246 28.49731445 62.14282227 C30.19126562 64.21768838 31.92110658 66.22233485 33.70043945 68.22875977 C34.91860352 69.62288086 34.91860352 69.62288086 36.16137695 71.04516602 C36.91547852 71.88563477 37.66958008 72.72610352 38.4465332 73.59204102 C40.56221434 77.05315531 40.49008043 79.30395907 40.09887695 83.29516602 C38.4474839 86.83386542 37.38282466 88.10586754 34.09887695 90.29516602 C30.2916227 91.06251959 26.6480952 91.1622182 23.20043945 89.23266602 C21.34830888 87.69062065 19.72557222 86.0735345 18.09887695 84.29516602 C17.53555664 83.6802832 16.97223633 83.06540039 16.3918457 82.43188477 C14.59745552 80.41066422 12.84985894 78.35405373 11.09887695 76.29516602 C9.62358271 74.6250706 8.14442837 72.95837685 6.66137695 71.29516602 C5.64237305 70.15047852 5.64237305 70.15047852 4.6027832 68.98266602 C4.10649414 68.42579102 3.61020508 67.86891602 3.09887695 67.29516602 C3.0730957 68.4643457 3.04731445 69.63352539 3.02075195 70.83813477 C2.96445328 72.38634828 2.90710634 73.93452392 2.84887695 75.48266602 C2.82760742 76.63605469 2.82760742 76.63605469 2.8059082 77.81274414 C2.58950046 82.85504452 1.88071218 85.63417891 -1.90112305 89.29516602 C-5.37375577 91.03148238 -9.11305318 90.89707004 -12.90112305 90.29516602 C-15.65681751 88.11357456 -17.33701051 86.42339108 -18.90112305 83.29516602 C-19.01458454 80.91648609 -19.06890574 78.56637297 -19.078125 76.18676758 C-19.0846962 75.45484192 -19.0912674 74.72291626 -19.09803772 73.96881104 C-19.11778368 71.54113669 -19.12943719 69.11352429 -19.1394043 66.68579102 C-19.14347982 65.85663933 -19.14755535 65.02748764 -19.15175438 64.17321014 C-19.17262234 59.78320056 -19.18691994 55.3932223 -19.19628906 51.00317383 C-19.20734491 46.47250667 -19.24173289 41.94233183 -19.28146076 37.41183853 C-19.30763258 33.92534484 -19.31598147 30.43896823 -19.31957054 26.95238495 C-19.32443639 25.2826582 -19.33605041 23.61293668 -19.35460854 21.94330597 C-19.37900915 19.60219094 -19.3780337 17.26234637 -19.37109375 14.92114258 C-19.38390381 14.2352002 -19.39671387 13.54925781 -19.40991211 12.8425293 C-19.35675852 7.90645377 -17.98352792 5.09866677 -14.90112305 1.29516602 C-10.57127057 -0.86976022 -4.80761843 0.0268093 0 0 Z M2.09887695 20.29516602 C2.09887695 25.57516602 2.09887695 30.85516602 2.09887695 36.29516602 C9.44316577 36.84745392 9.44316577 36.84745392 16.22387695 34.67016602 C18.57034069 31.69797861 19.25399473 30.09555147 19.09887695 26.29516602 C17.05001815 23.66091898 15.35524153 21.85836393 12.28637695 20.48266602 C8.90237679 20.19260886 5.49528539 20.29516602 2.09887695 20.29516602 Z " fill="#000000" transform="translate(294.901123046875,210.704833984375)"/>
<path d="M0 0 C0.87624023 0.00757324 1.75248047 0.01514648 2.65527344 0.02294922 C9.41614511 0.19466583 15.13339773 1.13285339 21.125 4.4375 C21.91648437 4.86160156 22.70796875 5.28570312 23.5234375 5.72265625 C26.60237074 7.66184403 28.65919167 9.17602863 29.94140625 12.6484375 C30.53948021 16.43833778 30.38713722 18.82147753 28.875 22.375 C26.89634217 24.70698959 25.23065803 26.24995248 22.14453125 26.7734375 C17.93902928 26.84787116 15.06931718 26.6447682 11.4375 24.4375 C5.25331981 20.96741893 -2.62708413 21.30158579 -9.34375 23.09765625 C-15.07657625 25.64435406 -19.24671144 30.15861756 -22.015625 35.734375 C-24.09888998 42.28719029 -24.14131018 50.6873061 -21.25 57 C-19.01390911 60.68482582 -16.3990548 62.97066164 -12.875 65.4375 C-12.029375 66.035625 -11.18375 66.63375 -10.3125 67.25 C-4.45151619 69.2747035 2.40602073 69.71201838 8.34765625 67.67578125 C11.06466952 66.16500244 13.28482997 64.28996465 15.5625 62.1875 C18.46237923 60.20709467 20.61037982 59.78407027 24.12109375 60.00390625 C26.87719029 60.60025462 29.0169441 61.72448989 31.046875 63.6875 C33.34544629 67.41851427 33.0753162 71.2847484 32.125 75.4375 C28.48341742 82.6359772 20.20606857 87.00347831 12.87890625 89.578125 C0.82565885 92.33745323 -11.98799369 91.46559136 -22.875 85.4375 C-33.85457078 78.44446022 -41.64932364 68.56472542 -44.765625 55.78515625 C-46.92166974 42.39280141 -45.22557335 30.94342959 -37.875 19.4375 C-28.42747002 6.66617363 -15.88342307 -0.19310221 0 0 Z " fill="#000000" transform="translate(167.875,210.5625)"/>
<path d="M0 0 C1.56971558 -0.00361794 1.56971558 -0.00361794 3.17114258 -0.00730896 C5.38008418 -0.00633099 7.58905044 0.00705057 9.79785156 0.03198242 C13.1759785 0.06628924 16.55148895 0.05263785 19.9296875 0.03320312 C22.07813612 0.04010176 24.22657799 0.04977429 26.375 0.0625 C27.88767456 0.0550602 27.88767456 0.0550602 29.4309082 0.04747009 C33.85943545 0.12172433 36.46391137 0.18489111 40.30078125 2.53930664 C43.25806212 5.81458705 43.52064954 8.16995679 43.48046875 12.58984375 C43.02495033 15.76025192 41.43434343 17.44814645 39.1875 19.62890625 C36.30334117 21.07098566 33.77028472 20.72285512 30.5625 20.69140625 C29.37398437 20.68238281 28.18546875 20.67335937 26.9609375 20.6640625 C26.04570312 20.65246094 25.13046875 20.64085937 24.1875 20.62890625 C24.19638245 21.40485138 24.20526489 22.18079651 24.2144165 22.98025513 C24.29469665 30.30699074 24.35553206 37.63351191 24.39474869 44.9605732 C24.41558854 48.72716216 24.44383908 52.49338649 24.48925781 56.25976562 C24.53284598 59.89727212 24.55666419 63.53442878 24.56700897 67.17217636 C24.57437726 68.55723449 24.58876605 69.94227432 24.61042023 71.32718277 C24.79370162 83.53914274 24.79370162 83.53914274 22.28808594 87.46435547 C19.45407375 90.38466603 17.83513328 90.81494821 13.875 90.94140625 C10.35208401 90.91304139 9.29391081 90.695413 6.1875 88.75390625 C2.92431577 85.286773 3.06479804 83.20690369 3.07397461 78.52685547 C3.07405014 77.24567841 3.07412567 75.96450134 3.07420349 74.64450073 C3.07931052 73.24086468 3.08452652 71.83722902 3.08984375 70.43359375 C3.09170854 69.0015569 3.09313216 67.56951941 3.09413147 66.13748169 C3.09795181 62.36617271 3.10777798 58.59490218 3.11883545 54.8236084 C3.12905995 50.97616089 3.13363132 47.12870718 3.13867188 43.28125 C3.14940067 35.73045122 3.16647131 28.17968412 3.1875 20.62890625 C2.21603027 20.65065918 1.24456055 20.67241211 0.24365234 20.69482422 C-1.02526855 20.71174316 -2.29418945 20.72866211 -3.6015625 20.74609375 C-5.49189209 20.77872314 -5.49189209 20.77872314 -7.42041016 20.81201172 C-10.8125 20.62890625 -10.8125 20.62890625 -14.1875 18.75390625 C-16.42587309 14.44934261 -17.07068058 10.36558607 -15.8125 5.62890625 C-11.45302515 -0.48588188 -6.91761456 -0.09094671 0 0 Z " fill="#000000" transform="translate(223.8125,210.37109375)"/>
<path d="M0 0 C3.49890004 2.11391877 4.70578686 3.11736059 6 7 C6.08911173 9.03966481 6.11760045 11.08217286 6.11352539 13.1237793 C6.11344986 14.38486008 6.11337433 15.64594086 6.11329651 16.94523621 C6.10818989 18.32156412 6.10297389 19.69789163 6.09765625 21.07421875 C6.09579086 22.48240611 6.09436753 23.89059411 6.09336853 25.29878235 C6.08955288 29.0026733 6.07973072 32.70652495 6.06866455 36.41040039 C6.05842997 40.19091256 6.05386652 43.97143109 6.04882812 47.75195312 C6.0381076 55.16798665 6.0210426 62.58398782 6 70 C7.66482422 69.75878418 7.66482422 69.75878418 9.36328125 69.51269531 C16.29470031 68.53552157 21.77588166 68.21671238 28 72 C30.52544475 75.9794887 31.15041546 78.01394307 30.4375 82.6875 C28.9264177 86.1695592 27.99178651 87.71250505 25 90 C22.30917938 90.39838953 20.03487099 90.5620089 17.34765625 90.53125 C16.61050888 90.5350769 15.87336151 90.53890381 15.11387634 90.54284668 C13.55808137 90.54556302 12.00224052 90.53822106 10.4465332 90.52148438 C8.0733375 90.50009767 5.70317905 90.52127574 3.33007812 90.546875 C1.81509752 90.54423107 0.3001188 90.53910474 -1.21484375 90.53125 C-1.9201976 90.53934692 -2.62555145 90.54744385 -3.35227966 90.55578613 C-8.15442636 90.46506543 -10.66731779 89.45849557 -14 86 C-15.16110095 82.51669714 -15.15527919 79.38591527 -15.16113281 75.76220703 C-15.16609772 75.02852905 -15.17106262 74.29485107 -15.17617798 73.53894043 C-15.19078255 71.11188824 -15.19759854 68.68490141 -15.203125 66.2578125 C-15.20887761 64.57013955 -15.21463533 62.88246662 -15.22039795 61.1947937 C-15.23090291 57.65573828 -15.23674896 54.11670554 -15.24023438 50.57763672 C-15.24571979 46.04586928 -15.26975084 41.51440219 -15.29820633 36.98272896 C-15.31684195 33.49627815 -15.32203879 30.00989958 -15.32357025 26.52340317 C-15.32659494 24.85286694 -15.33461729 23.18233193 -15.34775543 21.51184464 C-15.36483651 19.17319204 -15.36293102 16.83527194 -15.35644531 14.49658203 C-15.3656601 13.80861542 -15.37487488 13.1206488 -15.3843689 12.41183472 C-15.34699878 8.10379702 -14.64040895 5.41933105 -12 2 C-7.97685134 -0.68209911 -4.72780081 -0.68843415 0 0 Z " fill="#000000" transform="translate(359,211)"/>
<path d="M0 0 C3.125 1.875 3.125 1.875 5 5 C5.98876625 10.02622846 5.7769173 13.70513784 3.125 18.125 C-1.29486216 20.7769173 -4.97377154 20.98876625 -10 20 C-13.125 18.125 -13.125 18.125 -15 15 C-15.98876625 9.97377154 -15.7769173 6.29486216 -13.125 1.875 C-8.70513784 -0.7769173 -5.02622846 -0.98876625 0 0 Z " fill="#000000" transform="translate(261,55)"/>
</svg>
