<?xml version="1.0" encoding="UTF-8"?>
<svg version="1.1" xmlns="http://www.w3.org/2000/svg" width="512" height="512">
<path d="M0 0 C1.83430777 1.06827112 3.66895545 2.13595877 5.50390625 3.203125 C8.47504173 4.93334353 11.44475326 6.66586374 14.41137695 8.40380859 C22.24322126 12.99097024 30.11363988 17.50758646 38 22 C47.72143706 27.53951839 57.40895317 33.13375194 67.06689453 38.78344727 C77.59084625 44.93766742 88.15380137 51.02369996 98.71777344 57.10888672 C105.21934599 60.85488352 111.71839431 64.6052619 118.21655273 68.35717773 C123.22723556 71.24963413 128.2394688 74.13926194 133.25863647 77.01696777 C135.01728749 78.02548314 136.77533209 79.0350477 138.53320312 80.04492188 C140.72472231 81.30350518 142.91734504 82.56016987 145.11132812 83.81445312 C163.56104567 94.41978209 179.35489879 104.67096729 186 126 C188.69705914 136.28198229 188.28949327 146.76477844 188.2746582 157.30395508 C188.27901116 159.35180344 188.28419625 161.39965017 188.29014587 163.44749451 C188.30348481 168.98481512 188.3041202 174.52206726 188.30158257 180.0594008 C188.30050931 184.69377584 188.30540535 189.32813723 188.310188 193.96250933 C188.32126571 204.90250694 188.32173048 215.84247021 188.31567383 226.7824707 C188.30963605 238.04153642 188.32194414 249.30047711 188.3432439 260.5595215 C188.36089873 270.25076045 188.36685511 279.94195975 188.36360615 289.63321418 C188.36179921 295.41046183 188.36437039 301.1876203 188.37832069 306.96485329 C188.39095756 312.40110659 188.38889977 317.83716597 188.37590981 323.27341652 C188.37355713 325.25905423 188.37623129 327.24470585 188.38453293 329.23032761 C188.46448461 349.85393196 185.92384902 368.04867656 170.80078125 383.5078125 C165.6357203 388.10378027 159.96066482 391.5635555 154 395 C153.02708008 395.56315918 152.05416016 396.12631836 151.05175781 396.70654297 C144.55074329 400.4590741 138.02892737 404.17378912 131.49890137 407.87548828 C125.27318939 411.40711139 119.07213421 414.98099032 112.875 418.5625 C111.81120117 419.17689941 110.74740234 419.79129883 109.65136719 420.42431641 C107.50672653 421.66305929 105.36219494 422.90199104 103.21777344 424.14111328 C97.81329351 427.26324607 92.40649893 430.38136526 87 433.5 C85.92878906 434.11810547 84.85757812 434.73621094 83.75390625 435.37304688 C78.31353925 438.51222374 72.87237045 441.64999629 67.4296875 444.78515625 C56.97793728 450.80747371 46.53706147 456.84678996 36.125 462.9375 C23.92389982 470.07212797 11.65638164 477.0884575 -0.62988281 484.07519531 C-3.00405189 485.43117539 -5.37291584 486.7942148 -7.73730469 488.16699219 C-8.35946869 488.52669098 -8.98163269 488.88638977 -9.62265015 489.25698853 C-11.35708062 490.26023837 -13.08949464 491.26697197 -14.82177734 492.27392578 C-23.69628989 497.09362187 -32.03214615 498.35818094 -42 498.5 C-42.88945312 498.51869141 -43.77890625 498.53738281 -44.6953125 498.55664062 C-57.01001546 498.43995612 -67.35627922 493.74805813 -77.8125 487.625 C-78.88508057 487.01068115 -79.95766113 486.3963623 -81.06274414 485.76342773 C-84.38347261 483.85625096 -87.6927616 481.93045829 -91 480 C-93.01291201 478.8318437 -95.02592963 477.66386938 -97.0390625 476.49609375 C-101.00077372 474.19281897 -104.95700913 471.88043929 -108.91015625 469.5625 C-115.21570419 465.8678669 -121.54294436 462.21147319 -127.875 458.5625 C-128.95515381 457.93996338 -130.03530762 457.31742676 -131.14819336 456.67602539 C-133.33796334 455.41423174 -135.52782355 454.15259466 -137.71777344 452.89111328 C-143.14659942 449.76319852 -148.57319281 446.63141552 -154 443.5 C-156.16665583 442.24998121 -158.3333225 440.99998122 -160.5 439.75 C-167 436 -167 436 -173.5 432.25 C-174.57266113 431.63116943 -175.64532227 431.01233887 -176.75048828 430.37475586 C-178.91557071 429.12564482 -181.08060982 427.87645871 -183.24560547 426.62719727 C-188.68615706 423.48797691 -194.12747216 420.35009437 -199.5703125 417.21484375 C-204.97593076 414.10083802 -210.3779182 410.98059532 -215.77880859 407.85839844 C-219.04313342 405.97511509 -222.31239939 404.10061386 -225.58203125 402.2265625 C-227.70067382 401.00547373 -229.81916911 399.78412939 -231.9375 398.5625 C-232.88963379 398.01972412 -233.84176758 397.47694824 -234.82275391 396.91772461 C-251.03510237 387.53561824 -264.38031672 376.94708149 -269.79328346 358.26159668 C-272.36920337 347.58476591 -272.42494877 337.28364915 -272.38818359 326.35546875 C-272.39225666 324.30717694 -272.39760264 322.25888732 -272.40411377 320.21060181 C-272.41770569 314.68581808 -272.41252246 309.1612038 -272.40297651 303.63641739 C-272.39533759 297.83207012 -272.40243722 292.02773656 -272.40713501 286.22338867 C-272.41258029 276.47930316 -272.40543324 266.73528605 -272.39111328 256.99121094 C-272.37478919 245.75422909 -272.38007856 234.51741059 -272.3965925 223.2804327 C-272.41024242 213.60186594 -272.41210992 203.92334811 -272.40427649 194.24477482 C-272.39961922 188.47763965 -272.39892127 182.71058106 -272.40888596 176.94345093 C-272.41760451 171.51945796 -272.411445 166.09567393 -272.39420319 160.67170334 C-272.39026433 158.69090495 -272.3913273 156.71008873 -272.39799118 154.72929764 C-272.46088938 134.12021113 -269.90236796 115.96864073 -254.8203125 100.50390625 C-244.95791406 91.74795417 -232.5635606 85.85596684 -221.12109375 79.44921875 C-215.10472652 76.07273499 -209.14053592 72.61166606 -203.1875 69.125 C-191.58064994 62.33102295 -179.93606953 55.60410064 -168.28222656 48.89111328 C-162.85340058 45.76319852 -157.42680719 42.63141552 -152 39.5 C-149.83334417 38.24998121 -147.6666775 36.99998122 -145.5 35.75 C-143.89125 34.821875 -143.89125 34.821875 -142.25 33.875 C-139 32 -135.75 30.125 -132.5 28.25 C-131.42709717 27.6310083 -130.35419434 27.0120166 -129.2487793 26.37426758 C-127.08621417 25.1266526 -124.92361661 23.87909384 -122.76098633 22.6315918 C-116.17045001 18.82976023 -109.58100683 15.02604539 -102.99291992 11.2199707 C-100.80533035 9.95757043 -98.61670497 8.69696324 -96.42700195 7.43823242 C-91.31739015 4.50062363 -86.2211398 1.54540996 -81.15625 -1.46875 C-51.96536199 -18.75289594 -28.75455624 -16.88681631 0 0 Z M-72.0625 16.8125 C-73.77866624 17.81876615 -75.49484097 18.82501817 -77.21151733 19.83041382 C-78.97871158 20.86683256 -80.74364691 21.90701683 -82.50830078 22.94775391 C-87.982576 26.17147899 -93.4933982 29.33193836 -99 32.5 C-101.16683214 33.74971314 -103.33349844 34.99971385 -105.5 36.25 C-170.5 73.75 -170.5 73.75 -173.75146484 75.62573242 C-175.91337884 76.87306548 -178.07516317 78.1206233 -180.23681641 79.3684082 C-185.72514585 82.53608832 -191.21582533 85.69956761 -196.7109375 88.85546875 C-206.89791173 94.70917228 -217.07647485 100.5783272 -227.1875 106.5625 C-227.98269043 107.0268042 -228.77788086 107.4911084 -229.59716797 107.96948242 C-239.55844389 113.91071045 -245.69583525 120.29028225 -250.3125 131.0625 C-251.88833959 137.79563278 -252.14821131 144.62763982 -252.13371277 151.51838684 C-252.13597833 152.32615324 -252.13824388 153.13391964 -252.14057809 153.96616381 C-252.14685879 156.64648418 -252.14609258 159.32675321 -252.14526367 162.00708008 C-252.14825885 163.93965215 -252.15166221 165.87222362 -252.15544128 167.80479431 C-252.16424852 173.03630841 -252.166618 178.26780614 -252.16725707 183.49932694 C-252.16796938 186.7724431 -252.17010713 190.04555514 -252.17275429 193.31867027 C-252.18199656 204.75061684 -252.18609054 216.18255177 -252.18530273 227.61450195 C-252.1847021 238.24983326 -252.19525394 248.88511382 -252.2110464 259.52043229 C-252.22414541 268.6697726 -252.22948565 277.81909636 -252.22884732 286.96844596 C-252.22859305 292.4248268 -252.23140524 297.8811625 -252.24202538 303.33753395 C-252.25174625 308.47167169 -252.25175829 313.6057215 -252.24450874 318.73986244 C-252.24346788 320.61668528 -252.24579595 322.4935137 -252.2518692 324.370327 C-252.33303425 348.08645963 -252.33303425 348.08645963 -240.921875 368.3203125 C-236.42784799 372.24801904 -231.15415144 375.04282624 -226 378 C-224.11812403 379.09312091 -222.23664629 380.18692758 -220.35546875 381.28125 C-208.30543552 388.2730476 -196.20223461 395.17205926 -184.1008606 402.07443237 C-175.01404667 407.25873969 -165.96278077 412.5013604 -156.93261719 417.78369141 C-146.40888681 423.93792989 -135.8460408 430.02379087 -125.28222656 436.10888672 C-119.8534006 439.23680147 -114.42679331 442.36856046 -109 445.5 C-102.92283836 449.00644483 -96.84559527 452.51274701 -90.76715088 456.01696777 C-89.01658759 457.02619104 -87.26609589 458.03553836 -85.515625 459.04492188 C-83.33607835 460.3016766 -81.15640168 461.55820586 -78.9765625 462.81445312 C-77.47609375 463.67973633 -77.47609375 463.67973633 -75.9453125 464.5625 C-74.96989502 465.12445068 -73.99447754 465.68640137 -72.98950195 466.26538086 C-70.904286 467.47529996 -68.82513369 468.69570376 -66.75073242 469.92407227 C-65.69474854 470.54854248 -64.63876465 471.1730127 -63.55078125 471.81640625 C-62.60372314 472.38045166 -61.65666504 472.94449707 -60.6809082 473.52563477 C-51.75420036 478.43487697 -41.79549787 479.68399071 -31.87890625 477.2265625 C-23.15543011 474.15537615 -15.44016742 469.31905576 -7.57617188 464.54541016 C-2.61102762 461.56688825 2.41781998 458.6978015 7.4375 455.8125 C9.68627072 454.51705346 11.93496775 453.22147899 14.18359375 451.92578125 C15.31265137 451.27561035 16.44170898 450.62543945 17.60498047 449.95556641 C23.0716998 446.80667946 28.53574887 443.65316736 34 440.5 C36.16665311 439.2499765 38.33331979 437.99997653 40.5 436.75 C41.5725 436.13125 42.645 435.5125 43.75 434.875 C79.5 414.25 79.5 414.25 82.75048828 412.37475586 C84.91557071 411.12564482 87.08060982 409.87645871 89.24560547 408.62719727 C94.68615706 405.48797691 100.12747216 402.35009437 105.5703125 399.21484375 C110.97312491 396.10251546 116.37201479 392.98345018 121.77001953 389.86279297 C125.06014528 387.96531304 128.35597654 386.07801853 131.65234375 384.19140625 C133.78920468 382.96118443 135.92592869 381.73072475 138.0625 380.5 C139.0313916 379.94884521 140.0002832 379.39769043 140.99853516 378.82983398 C153.04660924 371.87866329 153.04660924 371.87866329 161.9375 361.4375 C162.75541016 360.10525391 162.75541016 360.10525391 163.58984375 358.74609375 C167.86679363 350.41729662 168.15304948 341.67180617 168.13371277 332.48161316 C168.13597833 331.67384676 168.13824388 330.86608036 168.14057809 330.03383619 C168.14685879 327.35351582 168.14609258 324.67324679 168.14526367 321.99291992 C168.14825885 320.06034785 168.15166221 318.12777638 168.15544128 316.19520569 C168.16424852 310.96369159 168.166618 305.73219386 168.16725707 300.50067306 C168.16796938 297.2275569 168.17010713 293.95444486 168.17275429 290.68132973 C168.18199656 279.24938316 168.18609054 267.81744823 168.18530273 256.38549805 C168.1847021 245.75016674 168.19525394 235.11488618 168.2110464 224.47956771 C168.22414541 215.3302274 168.22948565 206.18090364 168.22884732 197.03155404 C168.22859305 191.5751732 168.23140524 186.1188375 168.24202538 180.66246605 C168.25174625 175.52832831 168.25175829 170.3942785 168.24450874 165.26013756 C168.24346788 163.38331472 168.24579595 161.5064863 168.2518692 159.629673 C168.30400081 142.39382605 167.82406882 126.94256637 155 114 C152.80114558 112.2459063 150.48314484 110.80265586 148.0625 109.375 C147.37994141 108.96024414 146.69738281 108.54548828 145.99414062 108.11816406 C138.11427924 103.37700962 130.07137156 98.9110281 122.05078125 94.4140625 C116.05931131 91.04693946 110.11818614 87.59782321 104.1875 84.125 C92.58057919 77.33114284 80.93607048 70.60410119 69.28222656 63.89111328 C63.85340058 60.76319852 58.42680719 57.63141552 53 54.5 C50.83334417 53.24998121 48.6666775 51.99998122 46.5 50.75 C33.5 43.25 33.5 43.25 30.24755859 41.37353516 C28.08909502 40.12830516 25.93056677 38.88318728 23.77197266 37.63818359 C18.22925259 34.44113663 12.68779992 31.24192405 7.1484375 28.0390625 C1.72260792 24.9022487 -3.70732963 21.77266122 -9.14013672 18.64794922 C-11.74403488 17.1474957 -14.34309504 15.63900377 -16.94140625 14.12890625 C-18.35648991 13.31461578 -19.77183044 12.50077143 -21.1875 11.6875 C-22.09459717 11.15503662 -22.09459717 11.15503662 -23.02001953 10.61181641 C-29.07715386 7.15874839 -34.80271543 5.70503784 -41.75 5.625 C-42.85859375 5.59664062 -43.9671875 5.56828125 -45.109375 5.5390625 C-55.12626668 6.72580268 -63.53115841 11.73044544 -72.0625 16.8125 Z " fill="#000000" transform="translate(298,14)"/>
</svg>
