<?xml version="1.0"?>
<svg width="500" height="500" xmlns="http://www.w3.org/2000/svg" xmlns:svg="http://www.w3.org/2000/svg" version="1.1">
 <g class="layer">
  <title>Layer 1</title>
  <path d="m275.81,9.38c1.3,0.02 2.61,0.04 3.95,0.06c25.89,0.45 51.76,1.27 77.61,2.88c1.02,0.06 2.04,0.12 3.09,0.19c16.01,0.99 32,2.19 47.98,3.56c0.97,0.08 1.94,0.16 2.94,0.25c2.77,0.23 5.54,0.47 8.3,0.72c1.2,0.1 1.2,0.1 2.42,0.21c8.43,0.77 16.18,2.17 23.9,5.76c1.58,0.58 3.16,1.16 4.75,1.75c9.1,3.63 18.09,9.54 25.25,16.25c0,0.65 0,1.32 0,2c0.66,0 1.32,0 2,0c0,0.65 0,1.32 0,2c0.66,0 1.32,0 2,0c0.66,1.64 1.32,3.29 2,5c0.66,0 1.32,0 2,0c1.56,2.26 2.98,4.5 4.37,6.87c0.41,0.69 0.81,1.37 1.23,2.08c8.01,13.81 10.86,27.31 10.79,43.23c0.01,1.5 0.01,3 0.02,4.51c0.02,4.1 0.01,8.2 0.01,12.3c0,4.43 0.01,8.86 0.02,13.3c0.02,8.67 0.03,17.34 0.03,26.02c0,7.05 0,14.1 0.01,21.15c0,2.04 0,4.07 0,6.1c0,1.52 0,1.52 0.01,3.07c0.02,19.13 0.01,38.27 0.01,57.4c-0.01,17.49 0.01,34.98 0.05,52.47c0.03,17.97 0.04,35.95 0.04,53.93c0,10.08 0,20.17 0.03,30.25c0.02,8.59 0.02,17.17 0,25.75c-0.01,4.38 -0.01,8.76 0.01,13.13c0.02,4.01 0.02,8.02 0,12.04c-0.01,1.44 0,2.89 0.01,4.33c0.14,15.96 -5.92,28.44 -16.64,40.07c-0.66,0 -1.32,0 -2,0c0,0.66 0,1.31 0,2c-13.34,9.75 -27.85,12.66 -44,11c-8.69,-1.66 -16.84,-5.85 -24,-11c0,-0.67 0,-1.32 0,-2c-0.66,0 -1.32,0 -2,0c0,-0.67 0,-1.32 0,-2c-0.66,0 -1.32,0 -2,0c0,-0.67 0,-1.32 0,-2c-0.66,0 -1.32,0 -2,0c0,-0.67 0,-1.32 0,-2c-0.66,0 -1.32,0 -2,0c-4.08,-5.87 -7.57,-11.98 -9,-19c-5.73,0.58 -10.99,1.69 -16.5,3.31c-1.6,0.45 -3.19,0.91 -4.79,1.36c-0.79,0.22 -1.59,0.45 -2.4,0.68c-17.4,4.87 -35.03,8.25 -52.89,10.94c-1.41,0.21 -2.81,0.43 -4.22,0.65c-22.05,3.37 -44.04,4.44 -66.33,4.37c-1.2,0 -2.4,-0.01 -3.64,-0.01c-18.28,-0.04 -36.12,-0.73 -54.23,-3.3c-2.28,-0.3 -4.56,-0.59 -6.84,-0.88c-21.06,-2.81 -41.7,-7.46 -62.16,-13.12c-3.48,-0.93 -6.96,-1.84 -10.44,-2.75c-1.64,-0.44 -3.29,-0.87 -4.93,-1.3c-1.2,-0.32 -2.4,-0.63 -3.63,-0.95c-0.25,0.58 -0.49,1.17 -0.75,1.78c-3.31,7.86 -7.39,15.93 -13.25,22.22c-0.66,0 -1.32,0 -2,0c0,0.66 0,1.31 0,2c-0.66,0 -1.32,0 -2,0c0,0.66 0,1.31 0,2c-13.13,9.96 -28.04,12.2 -44,11c-8.68,-1.61 -16.86,-5.87 -24,-11c0,-0.67 0,-1.32 0,-2c-0.66,0 -1.32,0 -2,0c0,-0.67 0,-1.32 0,-2c-0.66,0 -1.32,0 -2,0c0,-0.67 0,-1.32 0,-2c-0.66,0 -1.32,0 -2,0c0,-0.67 0,-1.32 0,-2c-0.66,0 -1.32,0 -2,0c-1.37,-1.81 -1.37,-1.81 -2.88,-4.32c-0.49,-0.8 -0.98,-1.6 -1.49,-2.42c-4.95,-9.89 -6.22,-18.36 -6.15,-29.37c0,-1.51 -0.01,-3.02 -0.02,-4.53c-0.02,-4.12 -0.01,-8.23 0,-12.35c0.01,-4.45 -0.01,-8.9 -0.02,-13.35c-0.02,-8.71 -0.02,-17.42 -0.02,-26.13c0.01,-7.09 0.01,-14.17 0,-21.25c0,-1.01 0,-2.02 0,-3.06c0,-2.06 0,-4.11 -0.01,-6.16c-0.01,-19.22 0,-38.45 0.01,-57.67c0.02,-17.57 0,-35.13 -0.02,-52.7c-0.03,-18.05 -0.05,-36.11 -0.04,-54.17c0.01,-2.05 0.01,-4.09 0.01,-6.14c0,-1.51 0,-1.51 0,-3.05c0,-7.06 -0.01,-14.13 -0.02,-21.2c-0.02,-8.62 -0.02,-17.25 0,-25.87c0.01,-4.4 0.02,-8.79 0,-13.19c-0.02,-4.03 -0.01,-8.06 0.01,-12.1c0.01,-1.45 0,-2.9 -0.01,-4.34c-0.18,-21.21 8.6,-39.94 22.65,-55.63c0.66,0 1.32,0 2,0c0,-0.66 0,-1.33 0,-2c0.66,0 1.32,0 2,0c0,-0.67 0,-1.33 0,-2c2.09,-1.71 4.17,-3.27 6.37,-4.82c0.64,-0.45 1.28,-0.9 1.94,-1.36c13.97,-9.67 29.57,-14.46 46.41,-15.79c1.39,-0.12 1.39,-0.12 2.81,-0.24c3.03,-0.25 6.06,-0.49 9.09,-0.73c1.05,-0.09 2.1,-0.17 3.18,-0.26c31.32,-2.55 62.73,-4.94 94.16,-5.7c2.99,-0.08 5.97,-0.16 8.95,-0.25c25.65,-0.78 51.25,-0.91 76.9,-0.48z" fill="#2b2b2b" id="svg_1" transform="matrix(1 0 0 1 0 0)"/>
  <path d="m347.57,29.87c2.29,0.13 4.59,0.24 6.88,0.36c8.13,0.41 16.24,0.95 24.35,1.6c2.5,0.2 5,0.39 7.51,0.59c4.91,0.38 9.83,0.79 14.74,1.21c1.93,0.16 3.86,0.32 5.79,0.48c23.73,1.92 45,7.17 61.16,25.89c8.02,10.34 14.1,22.96 14.14,36.16c0,1.25 0.01,2.49 0.01,3.78c0.01,1.38 0.01,2.76 0.01,4.14c0,1.46 0.01,2.93 0.01,4.4c0.02,4.04 0.03,8.07 0.03,12.11c0.01,3.46 0.02,6.92 0.03,10.38c0.03,11.41 0.05,22.81 0.07,34.21c0.01,2.97 0.01,5.94 0.02,8.91c0.03,18.45 0.05,36.9 0.07,55.34c0,4.27 0.01,8.55 0.01,12.82c0,1.06 0,2.12 0.01,3.21c0.01,17.2 0.05,34.4 0.1,51.59c0.06,17.66 0.09,35.32 0.09,52.98c0.01,9.92 0.02,19.83 0.06,29.74c0.04,8.45 0.05,16.89 0.04,25.33c-0.01,4.31 0,8.61 0.03,12.92c0.02,3.94 0.02,7.89 0,11.84c0,1.42 0,2.84 0.02,4.26c0.15,12.2 -3.15,22.06 -11.75,30.88c-7.5,6.91 -16.21,8.41 -26.07,8.28c-8.88,-0.83 -16.74,-4.92 -22.93,-11.28c-4.68,-6.42 -8.25,-12.8 -8.26,-20.86c0,-1.19 -0.01,-2.37 -0.01,-3.58c0,-1.95 0,-1.95 0.01,-3.93c0,-1.39 -0.01,-2.78 -0.01,-4.17c-0.01,-3.82 -0.01,-7.65 -0.01,-11.47c0.01,-4.12 0,-8.25 -0.01,-12.37c-0.01,-7.14 -0.02,-14.29 -0.02,-21.43c0,-10.34 -0.01,-20.67 -0.03,-31.01c-0.03,-16.77 -0.06,-33.54 -0.08,-50.32c0,-1 0,-2 0,-3.04c-0.01,-11.2 -0.02,-22.41 -0.03,-33.61c0,-4.07 -0.01,-8.13 -0.01,-12.2c0,-1.5 0,-1.5 0,-3.04c-0.01,-16.71 -0.04,-33.42 -0.07,-50.13c-0.02,-10.31 -0.03,-20.62 -0.03,-30.94c0,-7.06 -0.01,-14.12 -0.03,-21.18c-0.01,-4.08 -0.01,-8.15 0,-12.23c0,-3.73 0,-7.46 -0.02,-11.19c-0.01,-2 0,-3.99 0.01,-5.98c-0.01,-1.77 -0.01,-1.77 -0.02,-3.58c0,-1.02 0,-2.03 -0.01,-3.09c-0.43,-3.06 -1.25,-4.43 -3.37,-6.65c-2.27,-0.84 -2.27,-0.84 -4.88,-1.12c-3.03,-0.43 -6.07,-0.87 -9.09,-1.36c-7.81,-1.28 -15.55,-2.05 -23.44,-2.55c-1.25,-0.09 -2.5,-0.17 -3.78,-0.26c-2.63,-0.17 -5.26,-0.34 -7.89,-0.51c-3.92,-0.26 -7.85,-0.52 -11.77,-0.79c-34.29,-2.28 -68.49,-2.69 -102.84,-2.72c-1.19,0 -2.38,0 -3.61,0c-30.11,-0.04 -60.15,0.12 -90.2,2.13c-1.87,0.12 -1.87,0.12 -3.78,0.25c-12.98,0.89 -25.93,2.1 -38.88,3.44c-1.15,0.12 -2.31,0.24 -3.5,0.36c-6.24,0.67 -12.24,1.64 -18.34,3.13c-0.99,3.3 -1.13,6.28 -1.13,9.71c0,1.76 0,1.76 0,3.55c0,1.28 0,2.57 0,3.9c0,1.38 0,2.76 0,4.14c0,3.01 0,6.01 0,9.02c0,4.89 0,9.78 0,14.66c-0.01,6.18 -0.01,12.36 -0.01,18.54c0,12.15 -0.01,24.3 -0.03,36.45c0,1.91 -0.01,3.82 -0.01,5.74c0,2.89 -0.01,5.79 -0.01,8.69c-0.01,10.94 -0.03,21.87 -0.04,32.8c0,1 0,2 0,3.03c-0.02,16.18 -0.02,32.37 -0.02,48.55c0,16.62 -0.02,33.24 -0.05,49.86c-0.02,10.25 -0.03,20.5 -0.02,30.75c0.01,7.02 0,14.05 -0.02,21.08c-0.01,4.05 -0.02,8.11 0,12.16c0.01,3.71 0,7.43 -0.02,11.15c-0.01,1.96 0.01,3.93 0.02,5.9c-0.1,9.42 -2.18,18.02 -7.91,25.7c-8.25,7.87 -16.85,11.65 -28.25,12.06c-10.24,-0.29 -17.52,-4.05 -24.5,-11.44c-7.82,-8.99 -8.44,-17.94 -8.39,-29.46c0,-1.48 -0.01,-2.95 -0.02,-4.43c-0.01,-4.03 -0.01,-8.07 0,-12.11c0.01,-4.36 -0.01,-8.72 -0.02,-13.08c-0.01,-8.54 -0.02,-17.08 -0.01,-25.62c0,-6.94 0,-13.89 0,-20.83c0,-0.99 0,-1.98 -0.01,-3c0,-2.01 0,-4.01 0,-6.02c-0.01,-18.84 -0.01,-37.68 0,-56.51c0.01,-17.22 0,-34.44 -0.02,-51.65c-0.03,-17.69 -0.04,-35.38 -0.03,-53.08c0,-9.92 0,-19.85 -0.02,-29.78c-0.01,-8.45 -0.01,-16.9 0.01,-25.36c0,-4.31 0.01,-8.62 -0.01,-12.92c-0.01,-3.96 -0.01,-7.91 0.01,-11.86c0,-1.42 0,-2.85 -0.01,-4.27c-0.09,-12.89 2.49,-24.12 9.52,-35.02c0.55,-0.85 1.1,-1.71 1.66,-2.59c9.32,-13.95 24.78,-23.72 41.12,-27.22c1.36,-0.25 2.72,-0.49 4.09,-0.72c0.73,-0.13 1.47,-0.26 2.23,-0.39c7.89,-1.32 15.8,-2.03 23.77,-2.63c1.57,-0.12 3.14,-0.25 4.71,-0.37c4.81,-0.38 9.61,-0.73 14.42,-1.08c0.73,-0.05 1.46,-0.1 2.22,-0.16c10.94,-0.78 21.89,-1.44 32.84,-2.02c0.8,-0.05 1.6,-0.09 2.42,-0.14c63.49,-3.38 127.6,-3.31 191.09,0.19z" fill="#2b2b2b" id="svg_2"/>
  <path d="m275.81,9.38c1.3,0.02 2.61,0.04 3.95,0.06c25.89,0.45 51.76,1.27 77.61,2.88c1.02,0.06 2.04,0.12 3.09,0.19c16.01,0.99 32,2.19 47.98,3.56c0.97,0.08 1.94,0.16 2.94,0.25c2.77,0.23 5.54,0.47 8.3,0.72c1.2,0.1 1.2,0.1 2.42,0.21c8.43,0.77 16.18,2.17 23.9,5.76c1.58,0.58 3.16,1.16 4.75,1.75c9.1,3.63 18.09,9.54 25.25,16.25c0,0.65 0,1.32 0,2c0.66,0 1.32,0 2,0c0,0.65 0,1.32 0,2c0.66,0 1.32,0 2,0c0.66,1.64 1.32,3.29 2,5c0.66,0 1.32,0 2,0c1.56,2.26 2.98,4.5 4.37,6.87c0.41,0.69 0.81,1.37 1.23,2.08c8.01,13.81 10.86,27.31 10.79,43.23c0.01,1.5 0.01,3 0.02,4.51c0.02,4.1 0.01,8.2 0.01,12.3c0,4.43 0.01,8.86 0.02,13.3c0.02,8.67 0.03,17.34 0.03,26.02c0,7.05 0,14.1 0.01,21.15c0,2.04 0,4.07 0,6.1c0,1.52 0,1.52 0.01,3.07c0.02,19.13 0.01,38.27 0.01,57.4c-0.01,17.49 0.01,34.98 0.05,52.47c0.03,17.97 0.04,35.95 0.04,53.93c0,10.08 0,20.17 0.03,30.25c0.02,8.59 0.02,17.17 0,25.75c-0.01,4.38 -0.01,8.76 0.01,13.13c0.02,4.01 0.02,8.02 0,12.04c-0.01,1.44 0,2.89 0.01,4.33c0.14,15.96 -5.92,28.44 -16.64,40.07c-0.66,0 -1.32,0 -2,0c0,0.66 0,1.31 0,2c-13.34,9.75 -27.85,12.66 -44,11c-8.69,-1.66 -16.84,-5.85 -24,-11c0,-0.67 0,-1.32 0,-2c-0.66,0 -1.32,0 -2,0c0,-0.67 0,-1.32 0,-2c-0.66,0 -1.32,0 -2,0c0,-0.67 0,-1.32 0,-2c-0.66,0 -1.32,0 -2,0c0,-0.67 0,-1.32 0,-2c-0.66,0 -1.32,0 -2,0c-4.08,-5.87 -7.57,-11.98 -9,-19c-5.73,0.58 -10.99,1.69 -16.5,3.31c-1.6,0.45 -3.19,0.91 -4.79,1.36c-0.79,0.22 -1.59,0.45 -2.4,0.68c-17.4,4.87 -35.03,8.25 -52.89,10.94c-1.41,0.21 -2.81,0.43 -4.22,0.65c-22.05,3.37 -44.04,4.44 -66.33,4.37c-1.2,0 -2.4,-0.01 -3.64,-0.01c-18.28,-0.04 -36.12,-0.73 -54.23,-3.3c-2.28,-0.3 -4.56,-0.59 -6.84,-0.88c-21.06,-2.81 -41.7,-7.46 -62.16,-13.12c-3.48,-0.93 -6.96,-1.84 -10.44,-2.75c-1.64,-0.44 -3.29,-0.87 -4.93,-1.3c-1.2,-0.32 -2.4,-0.63 -3.63,-0.95c-0.25,0.58 -0.49,1.17 -0.75,1.78c-3.31,7.86 -7.39,15.93 -13.25,22.22c-0.66,0 -1.32,0 -2,0c0,0.66 0,1.31 0,2c-0.66,0 -1.32,0 -2,0c0,0.66 0,1.31 0,2c-13.13,9.96 -28.04,12.2 -44,11c-8.68,-1.61 -16.86,-5.87 -24,-11c0,-0.67 0,-1.32 0,-2c-0.66,0 -1.32,0 -2,0c0,-0.67 0,-1.32 0,-2c-0.66,0 -1.32,0 -2,0c0,-0.67 0,-1.32 0,-2c-0.66,0 -1.32,0 -2,0c0,-0.67 0,-1.32 0,-2c-0.66,0 -1.32,0 -2,0c-1.37,-1.81 -1.37,-1.81 -2.88,-4.32c-0.49,-0.8 -0.98,-1.6 -1.49,-2.42c-4.95,-9.89 -6.22,-18.36 -6.15,-29.37c0,-1.51 -0.01,-3.02 -0.02,-4.53c-0.02,-4.12 -0.01,-8.23 0,-12.35c0.01,-4.45 -0.01,-8.9 -0.02,-13.35c-0.02,-8.71 -0.02,-17.42 -0.02,-26.13c0.01,-7.09 0.01,-14.17 0,-21.25c0,-1.01 0,-2.02 0,-3.06c0,-2.06 0,-4.11 -0.01,-6.16c-0.01,-19.22 0,-38.45 0.01,-57.67c0.02,-17.57 0,-35.13 -0.02,-52.7c-0.03,-18.05 -0.05,-36.11 -0.04,-54.17c0.01,-2.05 0.01,-4.09 0.01,-6.14c0,-1.51 0,-1.51 0,-3.05c0,-7.06 -0.01,-14.13 -0.02,-21.2c-0.02,-8.62 -0.02,-17.25 0,-25.87c0.01,-4.4 0.02,-8.79 0,-13.19c-0.02,-4.03 -0.01,-8.06 0.01,-12.1c0.01,-1.45 0,-2.9 -0.01,-4.34c-0.18,-21.21 8.6,-39.94 22.65,-55.63c0.66,0 1.32,0 2,0c0,-0.66 0,-1.33 0,-2c0.66,0 1.32,0 2,0c0,-0.67 0,-1.33 0,-2c2.09,-1.71 4.17,-3.27 6.37,-4.82c0.64,-0.45 1.28,-0.9 1.94,-1.36c13.97,-9.67 29.57,-14.46 46.41,-15.79c1.39,-0.12 1.39,-0.12 2.81,-0.24c3.03,-0.25 6.06,-0.49 9.09,-0.73c1.05,-0.09 2.1,-0.17 3.18,-0.26c31.32,-2.55 62.73,-4.94 94.16,-5.7c2.99,-0.08 5.97,-0.16 8.95,-0.25c25.65,-0.78 51.25,-0.91 76.9,-0.48zm-121.75,20.44c-1.17,0.06 -1.17,0.06 -2.36,0.12c-10.91,0.59 -21.81,1.28 -32.7,2.07c-1.16,0.08 -1.16,0.08 -2.34,0.16c-4.82,0.35 -9.64,0.72 -14.47,1.1c-1.51,0.12 -3.02,0.24 -4.53,0.35c-8,0.61 -15.88,1.47 -23.78,2.84c-1.03,0.18 -1.03,0.18 -2.09,0.36c-11.09,2.03 -19.93,6.35 -28.79,13.19c-0.75,0.52 -1.49,1.05 -2.26,1.6c-11.66,8.35 -20.4,23.24 -22.74,37.4c-0.09,2.05 -0.13,4.12 -0.14,6.18c0,1.25 -0.01,2.5 -0.01,3.79c0,1.38 0,2.77 0,4.16c0,1.47 -0.01,2.95 -0.01,4.42c-0.01,4.05 -0.01,8.11 -0.02,12.16c0,4.37 -0.01,8.74 -0.02,13.11c-0.02,10.56 -0.03,21.11 -0.04,31.67c0,4.97 -0.01,9.94 -0.01,14.91c-0.02,16.52 -0.03,33.05 -0.04,49.57c0,4.29 -0.01,8.58 -0.01,12.86c0,1.07 0,2.13 0,3.23c-0.01,17.27 -0.03,34.53 -0.07,51.8c-0.03,17.72 -0.05,35.45 -0.05,53.18c0,9.95 -0.01,19.9 -0.04,29.86c-0.02,8.47 -0.03,16.95 -0.02,25.42c0.01,4.32 0.01,8.65 -0.01,12.97c-0.02,3.96 -0.02,7.92 0,11.88c0,1.43 -0.01,2.86 -0.02,4.29c-0.1,12.97 2.96,20.86 11.51,30.54c5.86,5.86 13.34,8.23 21.5,8.43c10.03,-0.34 17.7,-2.98 25.12,-9.87c0.79,-0.85 1.57,-1.69 2.38,-2.56c0.68,-0.73 1.36,-1.45 2.06,-2.19c5.84,-8.49 6.52,-16.66 6.45,-26.75c0,-1.39 0.01,-2.78 0.02,-4.17c0.02,-3.8 0.01,-7.6 0,-11.4c-0.01,-4.11 0.01,-8.22 0.02,-12.33c0.02,-7.11 0.03,-14.22 0.03,-21.33c-0.01,-10.28 0.01,-20.56 0.03,-30.85c0.03,-16.69 0.05,-33.38 0.06,-50.07c0.01,-16.21 0.02,-32.41 0.04,-48.61c0.01,-1 0.01,-2 0.01,-3.02c0.01,-10.9 0.03,-21.8 0.05,-32.7c0,-0.96 0,-1.92 0,-2.9c0.02,-7.89 0.02,-7.89 0.02,-11.48c0.02,-11.21 0.03,-22.42 0.04,-33.63c0,-7.02 0.01,-14.05 0.02,-21.07c0,-4.83 0.01,-9.67 0,-14.51c0,-2.92 0.01,-5.85 0.01,-8.78c0.01,-1.99 0,-3.97 0,-5.95c0.01,-1.76 0.01,-1.76 0.01,-3.55c0,-1.02 0,-2.03 0,-3.08c0.11,-2.37 0.45,-4.37 1.13,-6.63c49.9,-9.49 102.32,-9.53 152.93,-9.33c4.6,0.02 9.2,0.01 13.8,0.01c28.42,-0.03 56.73,0.59 85.1,2.19c1.99,0.12 3.99,0.22 5.98,0.33c5.72,0.32 11.44,0.67 17.15,1.06c2.57,0.18 5.13,0.34 7.7,0.5c8.98,0.59 17.89,1.45 26.81,2.65c0.88,0.11 1.76,0.22 2.67,0.33c4.56,0.66 8.11,1.35 11.86,4.26c1.31,2.62 1.12,4.53 1.12,7.47c0,1.76 0,1.76 0,3.55c0,1.94 0,1.94 0,3.93c0,1.38 0,2.77 0,4.15c0,3.01 0,6.03 -0.01,9.05c0,4.9 0,9.81 0,14.72c0,6.2 0,12.4 0,18.61c-0.01,12.19 0,24.38 0.01,36.58c0,1.92 0.01,3.84 0.01,5.76c0,3.88 0.01,7.77 0.01,11.65c0.01,10 0.02,20 0.03,30c0,1 0,2.01 0,3.04c0.02,16.25 0.01,32.49 0,48.74c-0.01,16.68 0,33.35 0.03,50.03c0.02,10.29 0.02,20.58 0,30.86c-0.01,7.06 0,14.11 0.02,21.17c0.02,4.07 0.02,8.14 0,12.21c-0.02,3.73 -0.01,7.46 0.02,11.19c0,1.97 -0.02,3.95 -0.04,5.93c0.12,9.97 3.2,17.68 9.05,25.73c8.06,7.69 16.98,11.04 28.04,10.82c9.3,-0.66 17.36,-4.35 23.71,-11.19c4.67,-6.68 8.24,-12.88 8.25,-21.16c0.01,-1.87 0.01,-1.87 0.02,-3.77c0,-1.38 0,-2.76 -0.01,-4.14c0.01,-1.47 0.01,-2.94 0.02,-4.4c0.01,-4.04 0.01,-8.07 0.01,-12.11c0,-4.35 0.01,-8.7 0.02,-13.05c0.02,-8.52 0.02,-17.05 0.02,-25.57c0,-6.94 0.01,-13.87 0.01,-20.8c0.02,-19.66 0.03,-39.32 0.03,-58.98c0,-1.06 0,-2.12 0,-3.21c0,-1.6 0,-1.6 0,-3.22c0,-17.19 0.02,-34.38 0.04,-51.57c0.03,-17.65 0.05,-35.31 0.05,-52.96c-0.01,-9.91 0,-19.82 0.02,-29.73c0.02,-8.44 0.02,-16.88 0.01,-25.32c-0.01,-4.3 -0.01,-8.61 0.01,-12.91c0.02,-3.95 0.01,-7.89 0,-11.84c-0.01,-1.42 0,-2.84 0.01,-4.26c0.13,-18.29 -6.26,-34.14 -18.81,-47.44c-13.16,-12.79 -28.95,-18.73 -47.07,-20.54c-1.22,-0.13 -1.22,-0.13 -2.47,-0.25c-86.11,-8.54 -173.71,-9.61 -260.1,-4.96zm33.38,83.95c-4.36,0.3 -8.71,0.39 -13.08,0.48c-15.42,0.33 -30.75,1.47 -46.11,2.76c-1.09,0.08 -2.18,0.17 -3.3,0.27c-3.1,0.25 -6.21,0.52 -9.31,0.79c-0.95,0.08 -1.89,0.16 -2.86,0.24c-0.87,0.07 -1.73,0.15 -2.63,0.23c-0.75,0.07 -1.51,0.13 -2.29,0.2c-1.95,0.18 -1.95,0.18 -3.86,1.27c0,102.96 0,205.92 0,312c5.27,2.25 10.32,4.21 15.75,5.93c0.81,0.26 1.62,0.52 2.46,0.79c6.89,2.12 13.83,3.7 20.91,5.07c5.79,1.12 5.79,1.12 6.88,2.21c2.66,0.55 5.32,1.05 8,1.52c0.82,0.14 1.65,0.29 2.49,0.44c2.69,0.48 5.38,0.94 8.07,1.41c0.91,0.16 1.82,0.32 2.76,0.48c54.02,9.39 105.99,8.97 159.93,-0.82c5.06,-0.92 10.12,-1.78 15.19,-2.61c6.39,-1.06 12.37,-2.24 18.39,-4.65c2.53,-0.9 5.06,-1.53 7.67,-2.15c5.12,-1.23 10.15,-2.68 15.19,-4.25c0.7,-0.22 1.41,-0.44 2.14,-0.66c3.35,-0.87 3.35,-0.87 6.17,-2.71c0.09,-1.67 0.12,-3.33 0.12,-5c0,-1.09 0,-2.18 0.01,-3.3c-0.01,-1.82 -0.01,-1.82 -0.01,-3.67c0,-1.27 0,-2.55 0,-3.86c0,-3.56 0,-7.11 -0.01,-10.67c0,-3.83 0,-7.65 0,-11.48c0,-6.64 0,-13.27 -0.01,-19.91c0,-9.6 -0.01,-19.19 -0.01,-28.79c0,-15.57 -0.01,-31.13 -0.02,-46.7c-0.01,-15.13 -0.01,-30.25 -0.02,-45.38c0,-0.93 0,-1.86 0,-2.82c0,-4.68 0,-9.35 0,-14.02c-0.01,-38.8 -0.03,-77.6 -0.05,-116.4c-2.25,-0.33 -4.49,-0.65 -6.74,-0.98c-1.25,-0.18 -2.5,-0.36 -3.79,-0.54c-46.88,-6.52 -95.06,-5.67 -142.29,-5.67c-1.51,0 -1.51,0 -3.06,0c-5.92,-0.01 -11.83,0 -17.74,0.01c-1.82,0 -3.64,0.01 -5.45,0.01c-9.86,0.01 -19.65,0.22 -29.49,0.93z" fill="#080808" id="svg_3"/>
  <path d="m0,0c0.66,0.33 1.32,0.66 2,1c0,1.65 0,3.3 0,5c-0.99,0 -1.98,0 -3,0c-0.63,-1.87 -0.63,-1.87 -1,-4c0.66,-0.66 1.32,-1.32 2,-2z" fill="#2b2b2b" id="svg_4" transform="translate(75,457)"/>
 </g>
</svg>