<?xml version="1.0" encoding="UTF-8"?>
<svg version="1.1" xmlns="http://www.w3.org/2000/svg" width="500" height="500">
<path d="M0 0 C1.30297028 0.02132996 2.60594055 0.04265991 3.94839478 0.06463623 C29.84448766 0.5052554 55.71158511 1.32612086 81.5625 2.9375 C82.58191681 3.00025116 83.60133362 3.06300232 84.65164185 3.12765503 C100.65922689 4.12057569 116.64531966 5.31834481 132.625 6.6875 C133.59822205 6.76940582 134.57144409 6.85131165 135.57415771 6.93569946 C138.34044316 7.1704294 141.1058359 7.41364441 143.87109375 7.66015625 C145.06956688 7.76163971 145.06956688 7.76163971 146.29225159 7.86517334 C154.72063804 8.64139534 162.47149494 10.04256908 170.1875 13.625 C171.77055355 14.20909217 173.35391175 14.79235904 174.9375 15.375 C184.03705169 19.00653581 193.02661863 24.92382953 200.1875 31.625 C200.1875 32.285 200.1875 32.945 200.1875 33.625 C200.8475 33.625 201.5075 33.625 202.1875 33.625 C202.1875 34.285 202.1875 34.945 202.1875 35.625 C202.8475 35.625 203.5075 35.625 204.1875 35.625 C204.8475 37.275 205.5075 38.925 206.1875 40.625 C206.8475 40.625 207.5075 40.625 208.1875 40.625 C209.75121472 42.88906572 211.17390207 45.13103275 212.5625 47.5 C212.96807129 48.18747314 213.37364258 48.87494629 213.79150391 49.58325195 C221.79749399 63.39398919 224.64675471 76.89085332 224.58190918 92.80615234 C224.58680764 94.30938864 224.59300183 95.81262116 224.60036707 97.3158474 C224.61666801 101.41579817 224.61446894 105.51555543 224.6089921 109.61552715 C224.60630976 114.04914864 224.62087598 118.48271993 224.63308716 122.9163208 C224.65409078 131.58958726 224.658685 140.2627868 224.65689927 148.93607569 C224.6555894 155.98756374 224.65940726 163.039031 224.66682434 170.09051514 C224.66892362 172.12501462 224.67102122 174.15951411 224.67311716 176.1940136 C224.67468245 177.71313178 224.67468245 177.71313178 224.67627937 179.26293921 C224.69516037 198.39440657 224.69413775 217.52583553 224.68731004 236.65730834 C224.68173282 254.14691945 224.70257147 271.63638417 224.73567051 289.12596107 C224.76942638 307.10264879 224.7845737 325.0792664 224.77995348 343.0559864 C224.77771115 353.14128063 224.78291787 363.22643945 224.80784607 373.31170654 C224.82888336 381.89551998 224.83242678 390.47912372 224.81354648 399.06294584 C224.80440468 403.43923217 224.80319783 407.81512775 224.82390213 412.19138336 C224.84267332 416.20349458 224.83804074 420.21489667 224.81535631 424.2269814 C224.81118606 425.67231899 224.81531729 427.11771161 224.82895225 428.5629909 C224.96917766 444.52319561 218.91446255 457.00412391 208.1875 468.625 C207.5275 468.625 206.8675 468.625 206.1875 468.625 C206.1875 469.285 206.1875 469.945 206.1875 470.625 C192.85403144 480.37885268 178.34340221 483.28564942 162.1875 481.625 C153.49757216 479.9674404 145.34584412 475.7779924 138.1875 470.625 C138.1875 469.965 138.1875 469.305 138.1875 468.625 C137.5275 468.625 136.8675 468.625 136.1875 468.625 C136.1875 467.965 136.1875 467.305 136.1875 466.625 C135.5275 466.625 134.8675 466.625 134.1875 466.625 C134.1875 465.965 134.1875 465.305 134.1875 464.625 C133.5275 464.625 132.8675 464.625 132.1875 464.625 C132.1875 463.965 132.1875 463.305 132.1875 462.625 C131.5275 462.625 130.8675 462.625 130.1875 462.625 C126.10753269 456.76485827 122.62466353 450.65113281 121.1875 443.625 C115.46039743 444.21189903 110.20296387 445.31598528 104.6875 446.9375 C103.09156436 447.39209686 101.49520114 447.84519504 99.8984375 448.296875 C99.1053418 448.52181641 98.31224609 448.74675781 97.49511719 448.97851562 C80.10079925 453.85157465 62.46540162 457.23059286 44.6137085 459.92190552 C43.20438862 460.1343806 41.79538755 460.34898573 40.38677979 460.56613159 C18.34014978 463.94253722 -3.65118829 465.00624439 -25.9375 464.9375 C-27.14039673 464.93600952 -28.34329346 464.93451904 -29.5826416 464.9329834 C-47.86439985 464.89235323 -65.69610205 464.20049156 -83.8125 461.625 C-86.09228961 461.33080186 -88.37224053 461.03785133 -90.65234375 460.74609375 C-111.70840593 457.94061274 -132.35322148 453.29232956 -152.8125 447.625 C-156.28938663 446.69962707 -159.76962525 445.78715357 -163.25 444.875 C-164.89455267 444.44278983 -166.53908584 444.01050544 -168.18359375 443.578125 C-169.38113281 443.26359375 -170.57867187 442.9490625 -171.8125 442.625 C-172.05790527 443.2132959 -172.30331055 443.8015918 -172.55615234 444.40771484 C-175.86827133 452.27055686 -179.94914607 460.34283508 -185.8125 466.625 C-186.4725 466.625 -187.1325 466.625 -187.8125 466.625 C-187.8125 467.285 -187.8125 467.945 -187.8125 468.625 C-188.4725 468.625 -189.1325 468.625 -189.8125 468.625 C-189.8125 469.285 -189.8125 469.945 -189.8125 470.625 C-202.94331318 480.59416402 -217.85405545 482.82953788 -233.8125 481.625 C-242.49283512 480.01501606 -250.67428645 475.76350124 -257.8125 470.625 C-257.8125 469.965 -257.8125 469.305 -257.8125 468.625 C-258.4725 468.625 -259.1325 468.625 -259.8125 468.625 C-259.8125 467.965 -259.8125 467.305 -259.8125 466.625 C-260.4725 466.625 -261.1325 466.625 -261.8125 466.625 C-261.8125 465.965 -261.8125 465.305 -261.8125 464.625 C-262.4725 464.625 -263.1325 464.625 -263.8125 464.625 C-263.8125 463.965 -263.8125 463.305 -263.8125 462.625 C-264.4725 462.625 -265.1325 462.625 -265.8125 462.625 C-267.1796875 460.82421875 -267.1796875 460.82421875 -268.6875 458.3125 C-269.17992187 457.51199219 -269.67234375 456.71148437 -270.1796875 455.88671875 C-275.12772174 446.00248766 -276.3956734 437.52581457 -276.3271637 426.51509094 C-276.33249757 425.0073166 -276.33956808 423.49954758 -276.34821075 421.99178857 C-276.36675447 417.87443953 -276.36056181 413.75745222 -276.35005772 409.64008868 C-276.34304187 405.18932359 -276.35908193 400.73863104 -276.37205505 396.28788757 C-276.39366246 387.5776922 -276.39357619 378.86762765 -276.38542951 370.15741429 C-276.37912017 363.07351411 -276.38027511 355.98965197 -276.38670158 348.90575218 C-276.38760324 347.89607992 -276.38850489 346.88640767 -276.38943387 345.84613928 C-276.39128516 343.79470584 -276.39314772 341.74327242 -276.39502143 339.691839 C-276.41158939 320.46676886 -276.40289014 301.24177215 -276.38603585 282.01670643 C-276.37134891 264.45213147 -276.38595494 246.88772772 -276.41480602 229.32317481 C-276.44424548 211.2651325 -276.45515846 193.20716907 -276.44562382 175.14910382 C-276.44460132 173.10384478 -276.44360671 171.05858572 -276.4426403 169.01332664 C-276.44192572 167.5040745 -276.44192572 167.5040745 -276.4411967 165.96433241 C-276.43903808 158.8969146 -276.4488075 151.82957194 -276.46341133 144.76217079 C-276.48098515 136.13744951 -276.48074553 127.51294619 -276.45805968 118.88823328 C-276.44696162 114.49323792 -276.44365328 110.09862584 -276.46236038 105.70364761 C-276.47930879 101.66969133 -276.47262293 97.63644833 -276.44814359 93.60253706 C-276.44330638 92.15373781 -276.44664803 90.70487941 -276.45963103 89.25613026 C-276.63578606 68.04586614 -267.86469058 49.32132257 -253.8125 33.625 C-253.1525 33.625 -252.4925 33.625 -251.8125 33.625 C-251.8125 32.965 -251.8125 32.305 -251.8125 31.625 C-251.1525 31.625 -250.4925 31.625 -249.8125 31.625 C-249.8125 30.965 -249.8125 30.305 -249.8125 29.625 C-247.72216372 27.92321326 -245.6411341 26.35555201 -243.4375 24.8125 C-242.79699707 24.36181152 -242.15649414 23.91112305 -241.49658203 23.44677734 C-227.53333923 13.78475885 -211.9252779 8.99380422 -195.0859375 7.66015625 C-193.69832718 7.54332489 -193.69832718 7.54332489 -192.28268433 7.4241333 C-189.25149078 7.17151026 -186.21960835 6.92887795 -183.1875 6.6875 C-182.1399353 6.60229095 -181.09237061 6.51708191 -180.01306152 6.42929077 C-148.68646775 3.8821027 -117.27516544 1.48625589 -85.84716797 0.7265625 C-82.86403391 0.6542007 -79.88153267 0.56809519 -76.89892578 0.4765625 C-51.25392361 -0.30379429 -25.65036554 -0.42765916 0 0 Z " fill="#D8D8D8" transform="translate(275.8125,9.375)"/>
<path d="M0 0 C2.29430306 0.12551927 4.58884088 0.24386665 6.88366699 0.359375 C15.00919258 0.77321455 23.12050658 1.30541325 31.23046875 1.95703125 C33.73178749 2.15714787 36.23351394 2.35178353 38.73522949 2.546875 C43.65208741 2.93358828 48.56701449 3.34031935 53.48126221 3.7588501 C55.41081372 3.92189446 57.34070131 4.08102034 59.27093506 4.23577881 C83.00034125 6.15741436 104.27063393 11.41249463 120.4276123 30.1328125 C128.44948964 40.46539019 134.53218345 53.09082991 134.56742001 66.2899332 C134.57311125 67.53606028 134.57880249 68.78218736 134.58466619 70.06607586 C134.58595871 71.44619587 134.58714676 72.82631598 134.58824158 74.20643616 C134.59297437 75.67475422 134.59812552 77.14307098 134.60365921 78.61138624 C134.61754975 82.64728102 134.62514447 86.68316679 134.63163221 90.71907938 C134.63800878 94.18057609 134.64807805 97.64205805 134.65819287 101.10354555 C134.69149558 112.50661707 134.7130335 123.90969756 134.73139271 135.31280175 C134.73618913 138.28249179 134.74117227 141.25218147 134.74619794 144.22187114 C134.7771686 162.66883455 134.8038497 181.11580112 134.82061672 199.56278324 C134.82456612 203.8344174 134.82856913 208.1060515 134.8326416 212.37768555 C134.83364996 213.43935979 134.83465832 214.50103403 134.83569724 215.59488022 C134.85270171 232.79072061 134.89380981 249.98641703 134.94466459 267.18218715 C134.99646227 284.84223674 135.02556173 302.50221233 135.03281361 320.16233724 C135.0374729 330.07563976 135.05219345 339.98870644 135.09255791 349.90193367 C135.12689492 358.34501913 135.1407823 366.78782616 135.12813377 375.23097742 C135.12231565 379.53641618 135.12611063 383.84126636 135.15630341 388.14661598 C135.18376136 392.09432342 135.18309668 396.04102683 135.16079295 399.98875754 C135.15758304 401.41076521 135.16436202 402.83284126 135.18259018 404.25473572 C135.32935987 416.4507515 132.02930781 426.3105607 123.4276123 435.1328125 C115.93267882 442.03604071 107.22152537 443.54003995 97.36120605 443.40625 C88.47960554 442.57840441 80.61928223 438.49312713 74.4276123 432.1328125 C69.75100981 425.71001079 66.17943344 419.3250781 66.17427921 411.26569271 C66.16866382 410.08429995 66.16304842 408.9029072 66.15726286 407.68571466 C66.1632345 405.74477933 66.1632345 405.74477933 66.16932678 403.76463318 C66.16647186 402.37310893 66.1627337 400.98158625 66.15818828 399.59006649 C66.1482034 395.76672707 66.15058175 391.94347936 66.15491521 388.12013304 C66.15739036 383.99671382 66.14832464 379.87331877 66.14053345 375.74990845 C66.12848616 368.60506718 66.12338041 361.46024821 66.12265205 354.31539726 C66.12132711 343.98076334 66.10622201 333.64618365 66.08715688 323.31156886 C66.0563117 306.53885534 66.03214688 289.76614046 66.01428223 272.9934082 C66.01320955 271.98944777 66.01213687 270.98548735 66.01103168 269.95110387 C65.99920765 258.74621238 65.98900259 247.54132035 65.98059082 236.33642578 C65.97751683 232.27156574 65.97442806 228.20670571 65.97131348 224.1418457 C65.97016547 222.63728228 65.97016547 222.63728228 65.96899427 221.10232364 C65.95592348 204.39149987 65.93130011 187.68071538 65.89757007 170.96992069 C65.87725531 160.65810831 65.86699408 150.34637989 65.86955928 140.03454734 C65.87059252 132.97301246 65.8609871 125.91154406 65.84292025 118.85003238 C65.83285262 114.77259426 65.82777132 110.69530318 65.83568764 106.61785698 C65.84284343 102.88790353 65.83633637 99.15823707 65.81880223 95.4283203 C65.81305516 93.43427282 65.822149 91.44019979 65.83170515 89.44616693 C65.81937044 87.67798942 65.81937044 87.67798942 65.80678654 85.87409115 C65.80597208 84.85459438 65.80515762 83.83509762 65.80431849 82.78470701 C65.3688645 79.71924618 64.55288352 78.35287329 62.4276123 76.1328125 C60.15638362 75.28762887 60.15638362 75.28762887 57.5526123 75.0078125 C54.5150884 74.58290174 51.48400372 74.14204938 48.45716858 73.64625549 C40.65235306 72.36814737 32.90703526 71.60228921 25.01745605 71.09765625 C23.77049454 71.01407364 22.52353302 70.93049103 21.23878479 70.84437561 C18.60944324 70.66948109 15.97991612 70.49735629 13.35021973 70.32788086 C9.42691902 70.07430724 5.50442426 69.81034038 1.58190918 69.54492188 C-32.7069621 67.26054735 -66.90659752 66.85492481 -101.2598877 66.8203125 C-102.45220001 66.81872005 -103.64451233 66.81712761 -104.87295532 66.81548691 C-134.98160343 66.78138889 -165.0219625 66.94365232 -195.0723877 68.9453125 C-196.94173477 69.06947037 -196.94173477 69.06947037 -198.84884644 69.19613647 C-211.83316058 70.08943599 -224.78348713 71.30293618 -237.7286377 72.64453125 C-238.88311401 72.76230423 -240.03759033 72.88007721 -241.22705078 73.00141907 C-247.47159014 73.67478484 -253.47135728 74.63615851 -259.5723877 76.1328125 C-260.55919882 79.42755689 -260.69726367 82.40663181 -260.69708633 85.83892059 C-260.70067276 87.59539768 -260.70067276 87.59539768 -260.70433164 89.38735914 C-260.70189914 90.67488097 -260.69946665 91.96240279 -260.69696045 93.28894043 C-260.69794664 94.66977364 -260.69938373 96.0506066 -260.70123363 97.43143892 C-260.70429455 100.43639111 -260.70418363 103.44132115 -260.70167732 106.4462738 C-260.69761964 111.33568914 -260.70038581 116.22508712 -260.70402527 121.11450195 C-260.70811713 127.29372492 -260.71035493 133.472944 -260.71044126 139.65216833 C-260.710644 151.8007226 -260.7231047 163.94923695 -260.74005127 176.09777832 C-260.74265709 178.01049788 -260.7452559 179.92321745 -260.7478478 181.83593702 C-260.75178631 184.73491006 -260.75573283 187.63388309 -260.75970902 190.53285608 C-260.77465823 201.46526185 -260.78828056 212.39766885 -260.80041504 223.33007812 C-260.8015286 224.32951496 -260.80264216 225.32895179 -260.80378947 226.35867459 C-260.8213519 242.54250144 -260.82423444 258.72630328 -260.82256463 274.91013807 C-260.82128455 291.53058792 -260.83904874 308.15094483 -260.8735826 324.77135897 C-260.89421184 335.01940865 -260.89958565 345.26723555 -260.88525429 355.515297 C-260.87677981 362.54423396 -260.88656703 369.57299811 -260.9105638 376.60189861 C-260.9238401 380.65408552 -260.92911296 384.70585767 -260.91244316 388.75804138 C-260.89732439 392.47444105 -260.90554031 396.19006185 -260.9316127 399.90639406 C-260.93952981 401.87370562 -260.92306427 403.84106981 -260.90547013 405.80831861 C-261.00687568 415.23433994 -263.08630387 423.82769366 -268.8223877 431.5078125 C-277.07002595 439.38055811 -285.66999273 443.15543663 -297.0723877 443.5703125 C-307.30550527 443.28171694 -314.59376777 439.51644162 -321.5723877 432.1328125 C-329.38692985 423.13794887 -330.01317564 414.18607559 -329.96006775 402.66719055 C-329.96424411 401.19286846 -329.96972329 399.71854959 -329.97638756 398.24423665 C-329.99082185 394.20558159 -329.98660375 390.16713097 -329.97922075 386.12846482 C-329.97448623 381.76769677 -329.98700161 377.40697276 -329.99723816 373.04621887 C-330.01442741 364.50708592 -330.0152657 355.96802655 -330.01002526 347.42888079 C-330.00598165 340.48552524 -330.00742939 333.54219141 -330.01277351 326.5988369 C-330.01352194 325.61009489 -330.01427036 324.62135289 -330.01504146 323.602649 C-330.01657297 321.59388977 -330.01811132 319.58513055 -330.01965643 317.57637133 C-330.03338257 298.74056183 -330.02794355 279.90479386 -330.01647121 261.06898531 C-330.00654434 243.8514084 -330.01946988 226.63393903 -330.04340541 209.41637871 C-330.06781273 191.72570736 -330.07739991 174.03508605 -330.07075268 156.3443982 C-330.06726337 146.41720751 -330.06947322 136.49009946 -330.08700371 126.56292152 C-330.10174633 118.10971304 -330.10233451 109.65664536 -330.0849328 101.20343957 C-330.07643633 96.89394323 -330.07423984 92.58469821 -330.08958435 88.27521515 C-330.10348262 84.32280355 -330.09860295 80.37085734 -330.07934511 76.41847231 C-330.07560037 74.99587985 -330.07846267 73.57324964 -330.08895677 72.15069095 C-330.17724905 59.25523233 -327.60214705 48.02699758 -320.5723877 37.1328125 C-320.02324707 36.27558594 -319.47410645 35.41835937 -318.9083252 34.53515625 C-309.58532135 20.59172098 -294.12598072 10.81696474 -277.7875824 7.32356262 C-276.42797457 7.0743325 -275.06701018 6.83241828 -273.70495605 6.59692383 C-272.96654197 6.46854787 -272.22812788 6.34017191 -271.46733761 6.20790577 C-263.57836487 4.88988263 -255.67172781 4.18489837 -247.70129395 3.58203125 C-246.1305988 3.45801053 -244.55992566 3.33371072 -242.98927307 3.20915222 C-238.18486949 2.83308164 -233.37905702 2.47860916 -228.5723877 2.1328125 C-227.83964378 2.08000374 -227.10689987 2.02719498 -226.3519516 1.97278595 C-215.41043055 1.1905777 -204.46361461 0.53069188 -193.5098877 -0.0546875 C-192.71028625 -0.09773262 -191.91068481 -0.14077774 -191.08685303 -0.18512726 C-127.59913685 -3.57119366 -63.48773302 -3.49858256 0 0 Z " fill="#DDDDDD" transform="translate(347.5723876953125,29.8671875)"/>
<path d="M0 0 C1.30297028 0.02132996 2.60594055 0.04265991 3.94839478 0.06463623 C29.84448766 0.5052554 55.71158511 1.32612086 81.5625 2.9375 C82.58191681 3.00025116 83.60133362 3.06300232 84.65164185 3.12765503 C100.65922689 4.12057569 116.64531966 5.31834481 132.625 6.6875 C133.59822205 6.76940582 134.57144409 6.85131165 135.57415771 6.93569946 C138.34044316 7.1704294 141.1058359 7.41364441 143.87109375 7.66015625 C145.06956688 7.76163971 145.06956688 7.76163971 146.29225159 7.86517334 C154.72063804 8.64139534 162.47149494 10.04256908 170.1875 13.625 C171.77055355 14.20909217 173.35391175 14.79235904 174.9375 15.375 C184.03705169 19.00653581 193.02661863 24.92382953 200.1875 31.625 C200.1875 32.285 200.1875 32.945 200.1875 33.625 C200.8475 33.625 201.5075 33.625 202.1875 33.625 C202.1875 34.285 202.1875 34.945 202.1875 35.625 C202.8475 35.625 203.5075 35.625 204.1875 35.625 C204.8475 37.275 205.5075 38.925 206.1875 40.625 C206.8475 40.625 207.5075 40.625 208.1875 40.625 C209.75121472 42.88906572 211.17390207 45.13103275 212.5625 47.5 C212.96807129 48.18747314 213.37364258 48.87494629 213.79150391 49.58325195 C221.79749399 63.39398919 224.64675471 76.89085332 224.58190918 92.80615234 C224.58680764 94.30938864 224.59300183 95.81262116 224.60036707 97.3158474 C224.61666801 101.41579817 224.61446894 105.51555543 224.6089921 109.61552715 C224.60630976 114.04914864 224.62087598 118.48271993 224.63308716 122.9163208 C224.65409078 131.58958726 224.658685 140.2627868 224.65689927 148.93607569 C224.6555894 155.98756374 224.65940726 163.039031 224.66682434 170.09051514 C224.66892362 172.12501462 224.67102122 174.15951411 224.67311716 176.1940136 C224.67468245 177.71313178 224.67468245 177.71313178 224.67627937 179.26293921 C224.69516037 198.39440657 224.69413775 217.52583553 224.68731004 236.65730834 C224.68173282 254.14691945 224.70257147 271.63638417 224.73567051 289.12596107 C224.76942638 307.10264879 224.7845737 325.0792664 224.77995348 343.0559864 C224.77771115 353.14128063 224.78291787 363.22643945 224.80784607 373.31170654 C224.82888336 381.89551998 224.83242678 390.47912372 224.81354648 399.06294584 C224.80440468 403.43923217 224.80319783 407.81512775 224.82390213 412.19138336 C224.84267332 416.20349458 224.83804074 420.21489667 224.81535631 424.2269814 C224.81118606 425.67231899 224.81531729 427.11771161 224.82895225 428.5629909 C224.96917766 444.52319561 218.91446255 457.00412391 208.1875 468.625 C207.5275 468.625 206.8675 468.625 206.1875 468.625 C206.1875 469.285 206.1875 469.945 206.1875 470.625 C192.85403144 480.37885268 178.34340221 483.28564942 162.1875 481.625 C153.49757216 479.9674404 145.34584412 475.7779924 138.1875 470.625 C138.1875 469.965 138.1875 469.305 138.1875 468.625 C137.5275 468.625 136.8675 468.625 136.1875 468.625 C136.1875 467.965 136.1875 467.305 136.1875 466.625 C135.5275 466.625 134.8675 466.625 134.1875 466.625 C134.1875 465.965 134.1875 465.305 134.1875 464.625 C133.5275 464.625 132.8675 464.625 132.1875 464.625 C132.1875 463.965 132.1875 463.305 132.1875 462.625 C131.5275 462.625 130.8675 462.625 130.1875 462.625 C126.10753269 456.76485827 122.62466353 450.65113281 121.1875 443.625 C115.46039743 444.21189903 110.20296387 445.31598528 104.6875 446.9375 C103.09156436 447.39209686 101.49520114 447.84519504 99.8984375 448.296875 C99.1053418 448.52181641 98.31224609 448.74675781 97.49511719 448.97851562 C80.10079925 453.85157465 62.46540162 457.23059286 44.6137085 459.92190552 C43.20438862 460.1343806 41.79538755 460.34898573 40.38677979 460.56613159 C18.34014978 463.94253722 -3.65118829 465.00624439 -25.9375 464.9375 C-27.14039673 464.93600952 -28.34329346 464.93451904 -29.5826416 464.9329834 C-47.86439985 464.89235323 -65.69610205 464.20049156 -83.8125 461.625 C-86.09228961 461.33080186 -88.37224053 461.03785133 -90.65234375 460.74609375 C-111.70840593 457.94061274 -132.35322148 453.29232956 -152.8125 447.625 C-156.28938663 446.69962707 -159.76962525 445.78715357 -163.25 444.875 C-164.89455267 444.44278983 -166.53908584 444.01050544 -168.18359375 443.578125 C-169.38113281 443.26359375 -170.57867187 442.9490625 -171.8125 442.625 C-172.05790527 443.2132959 -172.30331055 443.8015918 -172.55615234 444.40771484 C-175.86827133 452.27055686 -179.94914607 460.34283508 -185.8125 466.625 C-186.4725 466.625 -187.1325 466.625 -187.8125 466.625 C-187.8125 467.285 -187.8125 467.945 -187.8125 468.625 C-188.4725 468.625 -189.1325 468.625 -189.8125 468.625 C-189.8125 469.285 -189.8125 469.945 -189.8125 470.625 C-202.94331318 480.59416402 -217.85405545 482.82953788 -233.8125 481.625 C-242.49283512 480.01501606 -250.67428645 475.76350124 -257.8125 470.625 C-257.8125 469.965 -257.8125 469.305 -257.8125 468.625 C-258.4725 468.625 -259.1325 468.625 -259.8125 468.625 C-259.8125 467.965 -259.8125 467.305 -259.8125 466.625 C-260.4725 466.625 -261.1325 466.625 -261.8125 466.625 C-261.8125 465.965 -261.8125 465.305 -261.8125 464.625 C-262.4725 464.625 -263.1325 464.625 -263.8125 464.625 C-263.8125 463.965 -263.8125 463.305 -263.8125 462.625 C-264.4725 462.625 -265.1325 462.625 -265.8125 462.625 C-267.1796875 460.82421875 -267.1796875 460.82421875 -268.6875 458.3125 C-269.17992187 457.51199219 -269.67234375 456.71148437 -270.1796875 455.88671875 C-275.12772174 446.00248766 -276.3956734 437.52581457 -276.3271637 426.51509094 C-276.33249757 425.0073166 -276.33956808 423.49954758 -276.34821075 421.99178857 C-276.36675447 417.87443953 -276.36056181 413.75745222 -276.35005772 409.64008868 C-276.34304187 405.18932359 -276.35908193 400.73863104 -276.37205505 396.28788757 C-276.39366246 387.5776922 -276.39357619 378.86762765 -276.38542951 370.15741429 C-276.37912017 363.07351411 -276.38027511 355.98965197 -276.38670158 348.90575218 C-276.38760324 347.89607992 -276.38850489 346.88640767 -276.38943387 345.84613928 C-276.39128516 343.79470584 -276.39314772 341.74327242 -276.39502143 339.691839 C-276.41158939 320.46676886 -276.40289014 301.24177215 -276.38603585 282.01670643 C-276.37134891 264.45213147 -276.38595494 246.88772772 -276.41480602 229.32317481 C-276.44424548 211.2651325 -276.45515846 193.20716907 -276.44562382 175.14910382 C-276.44460132 173.10384478 -276.44360671 171.05858572 -276.4426403 169.01332664 C-276.44192572 167.5040745 -276.44192572 167.5040745 -276.4411967 165.96433241 C-276.43903808 158.8969146 -276.4488075 151.82957194 -276.46341133 144.76217079 C-276.48098515 136.13744951 -276.48074553 127.51294619 -276.45805968 118.88823328 C-276.44696162 114.49323792 -276.44365328 110.09862584 -276.46236038 105.70364761 C-276.47930879 101.66969133 -276.47262293 97.63644833 -276.44814359 93.60253706 C-276.44330638 92.15373781 -276.44664803 90.70487941 -276.45963103 89.25613026 C-276.63578606 68.04586614 -267.86469058 49.32132257 -253.8125 33.625 C-253.1525 33.625 -252.4925 33.625 -251.8125 33.625 C-251.8125 32.965 -251.8125 32.305 -251.8125 31.625 C-251.1525 31.625 -250.4925 31.625 -249.8125 31.625 C-249.8125 30.965 -249.8125 30.305 -249.8125 29.625 C-247.72216372 27.92321326 -245.6411341 26.35555201 -243.4375 24.8125 C-242.79699707 24.36181152 -242.15649414 23.91112305 -241.49658203 23.44677734 C-227.53333923 13.78475885 -211.9252779 8.99380422 -195.0859375 7.66015625 C-193.69832718 7.54332489 -193.69832718 7.54332489 -192.28268433 7.4241333 C-189.25149078 7.17151026 -186.21960835 6.92887795 -183.1875 6.6875 C-182.1399353 6.60229095 -181.09237061 6.51708191 -180.01306152 6.42929077 C-148.68646775 3.8821027 -117.27516544 1.48625589 -85.84716797 0.7265625 C-82.86403391 0.6542007 -79.88153267 0.56809519 -76.89892578 0.4765625 C-51.25392361 -0.30379429 -25.65036554 -0.42765916 0 0 Z M-121.75 20.4375 C-122.91749786 20.49989239 -122.91749786 20.49989239 -124.10858154 20.56354523 C-135.01697848 21.15095755 -145.91658861 21.83973304 -156.8125 22.625 C-157.96901943 22.70820118 -157.96901943 22.70820118 -159.14890289 22.79308319 C-163.97229427 23.14283012 -168.7942244 23.50822254 -173.61514473 23.89053917 C-175.12795877 24.00998965 -176.64095748 24.12713136 -178.15415764 24.24158669 C-186.14525653 24.8517518 -194.03352589 25.71235111 -201.93334961 27.08129883 C-202.96477884 27.25846577 -202.96477884 27.25846577 -204.01704502 27.43921185 C-215.11438933 29.46853969 -223.94784424 33.79088077 -232.8125 40.625 C-233.55628906 41.15480469 -234.30007812 41.68460938 -235.06640625 42.23046875 C-246.72627443 50.58348665 -255.47002329 65.4655093 -257.8125 79.625 C-257.90374831 81.68383729 -257.94331047 83.74526246 -257.94672108 85.80611801 C-257.95117892 87.05757858 -257.95563676 88.30903915 -257.96022969 89.59842277 C-257.96014041 90.98454015 -257.95995057 92.37065754 -257.95967102 93.7567749 C-257.96297154 95.23135546 -257.9666975 96.70593511 -257.9708125 98.18051362 C-257.98081889 102.23360615 -257.98454709 106.28668387 -257.98720181 110.33978701 C-257.99110879 114.71074329 -258.00068671 119.0816879 -258.00941467 123.45263672 C-258.0291658 134.00759883 -258.03924263 144.56256189 -258.04814246 155.11753786 C-258.05252673 160.08839186 -258.05789311 165.0592448 -258.06313133 170.03009796 C-258.08014068 186.55391595 -258.09463559 203.07773328 -258.10188007 219.60155869 C-258.10378995 223.88834382 -258.10571029 228.17512895 -258.10766602 232.46191406 C-258.10814976 233.52736585 -258.1086335 234.59281764 -258.1091319 235.69055584 C-258.11743506 252.95628319 -258.14277812 270.22194133 -258.17524669 287.48763844 C-258.20831052 305.21434612 -258.22632814 322.9410186 -258.22952431 340.66775727 C-258.23168981 350.620587 -258.24044452 360.57331573 -258.26598549 370.52611542 C-258.28768304 379.00072353 -258.29574747 387.4752061 -258.28601871 395.94983885 C-258.28147155 400.27300559 -258.2833844 404.59591323 -258.30278015 408.91904449 C-258.32039466 412.8793689 -258.31942824 416.83924487 -258.30388286 420.79957393 C-258.3015042 422.22959405 -258.30584382 423.65964508 -258.31771151 425.08961794 C-258.41869675 438.06489271 -255.35981171 445.94585249 -246.8125 455.625 C-240.95001868 461.48748132 -233.46898624 463.86051154 -225.3125 464.0625 C-215.28349363 463.71993088 -207.60676376 461.07681635 -200.1875 454.1875 C-199.40375 453.341875 -198.62 452.49625 -197.8125 451.625 C-197.131875 450.903125 -196.45125 450.18125 -195.75 449.4375 C-189.90527359 440.95321972 -189.23345951 432.7838204 -189.30024719 422.69351196 C-189.29507973 421.30179192 -189.2881603 419.91007749 -189.2796542 418.51837385 C-189.26141998 414.71763645 -189.2677904 410.91728699 -189.27835357 407.11653543 C-189.2853795 403.00885817 -189.26928254 398.90126238 -189.25601196 394.79360962 C-189.2361374 387.68375575 -189.23065604 380.57400912 -189.23494911 373.4641304 C-189.24105021 363.18021524 -189.22415662 352.89643667 -189.20153918 342.61254923 C-189.16535663 325.92025064 -189.14617442 309.22797895 -189.13842773 292.53564453 C-189.13085909 276.33446006 -189.11775057 260.13330029 -189.09545898 243.93212891 C-189.09408829 242.93338724 -189.09271759 241.93464557 -189.09130535 240.90563901 C-189.07618319 230.00600083 -189.05945233 219.10636563 -189.04148388 208.2067318 C-189.03991191 207.24937277 -189.03833994 206.29201375 -189.03672033 205.30564385 C-189.02376611 197.42145848 -189.02376611 197.42145848 -189.01770272 193.82593457 C-188.99888269 182.61830967 -188.98500566 171.41070279 -188.97990706 160.20306282 C-188.97667093 153.17897907 -188.97041602 146.15490286 -188.9617788 139.13082369 C-188.95605284 134.29542226 -188.95443278 129.46004374 -188.95601268 124.62463949 C-188.95592979 121.69558668 -188.95174108 118.76655093 -188.94631758 115.8375036 C-188.94387582 113.8546273 -188.94641319 111.87174681 -188.94910604 109.88887084 C-188.94459456 108.13054366 -188.94459456 108.13054366 -188.93999195 106.33669472 C-188.9395022 105.32294608 -188.93901245 104.30919744 -188.93850785 103.26472914 C-188.82526094 100.8923279 -188.49139384 98.89199909 -187.8125 96.625 C-137.9141313 87.1431976 -85.48731076 87.10193901 -34.87927246 87.3024292 C-30.27785858 87.31589317 -25.67654093 87.31057849 -21.07511616 87.30556202 C7.33785649 87.28224894 35.65027241 87.90170089 64.01902771 89.50263596 C66.0141579 89.61521853 68.00945248 89.72487791 70.00476074 89.83425903 C75.72331476 90.15042958 81.43852872 90.4966319 87.15209961 90.89282227 C89.71739576 91.06883972 92.2833848 91.23071408 94.84960938 91.39257812 C103.8258071 91.98478435 112.74317524 92.83965989 121.66015625 94.03515625 C122.54054062 94.1469371 123.42092499 94.25871796 124.32798767 94.37388611 C128.89421484 95.02552753 132.44440812 95.72186221 136.1875 98.625 C137.49758582 101.24517163 137.31112206 103.16488318 137.30940533 106.10062981 C137.3120667 107.85635884 137.3120667 107.85635884 137.31478184 109.64755714 C137.31010993 111.59341482 137.31010993 111.59341482 137.30534363 113.57858276 C137.30561369 114.96181444 137.30633766 116.34504609 137.30747873 117.72827733 C137.3090051 120.74466876 137.30735387 123.76103666 137.30333138 126.77742577 C137.29682074 131.68498974 137.29713875 136.59253951 137.29840088 141.50010681 C137.29952241 147.701882 137.29887457 153.90365274 137.29620007 160.10542746 C137.29107811 172.3000478 137.29941898 184.49462674 137.31282043 196.6892395 C137.31486718 198.60834594 137.31690951 200.52745238 137.31894749 202.44655883 C137.32310387 206.33266327 137.32731908 210.21876764 137.33155501 214.10487199 C137.34236325 224.10279128 137.35216462 234.10071122 137.3605957 244.09863281 C137.36144695 245.10219126 137.3622982 246.10574971 137.36317525 247.13971902 C137.37638191 263.3851159 137.37138598 279.63046363 137.36052414 295.87585996 C137.34988595 312.55501435 137.36210245 329.2340465 137.39460641 345.91317284 C137.4138681 356.19951681 137.4149116 366.48553404 137.39245013 376.77187295 C137.37868138 383.8284153 137.38688144 390.88471994 137.41217472 397.94122951 C137.42609101 402.00967306 137.4303969 406.07751592 137.40834999 410.14593697 C137.38833541 413.87733041 137.396352 417.60761819 137.42582611 421.3389392 C137.43436109 423.31431044 137.41360705 425.28974283 137.39150113 427.26500881 C137.51496643 437.23828892 140.58612007 444.94592003 146.4375 453 C154.49821062 460.69431468 163.41512825 464.04369599 174.4765625 463.81640625 C183.78217797 463.15938153 191.83817762 459.47370729 198.1875 452.625 C202.86195704 445.95026043 206.43392596 439.74832538 206.44476891 431.47067261 C206.45444224 429.60240704 206.45444224 429.60240704 206.464311 427.69639874 C206.4613688 426.31696724 206.45823337 424.93753614 206.45492554 423.55810547 C206.45866219 422.09049909 206.46326378 420.6228947 206.46865618 419.15529346 C206.48090045 415.12130353 206.48062402 411.08739645 206.47826743 407.05339217 C206.47785961 402.70280282 206.48889536 398.35224015 206.49838257 394.00166321 C206.51500306 385.47617205 206.52049265 376.95070855 206.52160732 368.42520255 C206.52255762 361.49274374 206.52666701 354.56029406 206.53300858 347.62783813 C206.55062646 327.96773022 206.55984698 308.30764415 206.55834763 288.64752829 C206.55826772 287.58741329 206.5581878 286.52729829 206.55810547 285.43505859 C206.55798283 283.8429407 206.55798283 283.8429407 206.55785771 282.2186588 C206.5570454 265.02999421 206.57616767 247.84141737 206.6043822 230.65277815 C206.63313215 212.9983671 206.64692123 195.3439988 206.64519465 177.68956375 C206.64453132 167.78020779 206.6499984 157.87094374 206.67155075 147.96160889 C206.68979065 139.52114397 206.6940871 131.08081258 206.6805319 122.64033645 C206.67401546 118.33693146 206.67383676 114.03378242 206.6912384 109.73040199 C206.70703394 105.78342987 206.70404003 101.83691526 206.68667014 97.88995385 C206.68361433 96.46928714 206.6871786 95.04858573 206.69839029 93.62795997 C206.83303936 75.34151767 200.44189943 59.48978034 187.890625 46.19140625 C174.73285982 33.40345991 158.93965501 27.45600497 140.81640625 25.6484375 C139.59719231 25.52408325 139.59719231 25.52408325 138.35334778 25.3972168 C52.23759373 16.8559299 -35.36176149 15.78694295 -121.75 20.4375 Z M-88.37309265 104.39498901 C-92.73268624 104.68653762 -97.08469085 104.77732581 -101.45214844 104.86523438 C-116.87065065 105.19681507 -132.19670617 106.34134204 -147.5625 107.625 C-148.65030762 107.71472076 -149.73811523 107.80444153 -150.85888672 107.8968811 C-153.96372532 108.15480629 -157.067887 108.41954985 -160.171875 108.6875 C-161.11633484 108.7666716 -162.06079468 108.8458432 -163.03387451 108.92741394 C-163.89893616 109.0042189 -164.7639978 109.08102386 -165.65527344 109.16015625 C-166.41306091 109.225979 -167.17084839 109.29180176 -167.95159912 109.35961914 C-169.90123184 109.53750815 -169.90123184 109.53750815 -171.8125 110.625 C-171.8125 213.585 -171.8125 316.545 -171.8125 422.625 C-166.54281397 424.88343687 -161.49401914 426.8390263 -156.0625 428.5625 C-155.24990723 428.82119873 -154.43731445 429.07989746 -153.60009766 429.34643555 C-146.71267802 431.4742294 -139.76690764 433.05253619 -132.69238281 434.41967773 C-126.89713662 435.54036338 -126.89713662 435.54036338 -125.8125 436.625 C-123.14701176 437.1796968 -120.48972548 437.68071893 -117.80859375 438.1484375 C-116.98660995 438.29446411 -116.16462616 438.44049072 -115.31773376 438.59094238 C-112.62939991 439.06599567 -109.939879 439.53377968 -107.25 440 C-106.33945862 440.15873596 -105.42891724 440.31747192 -104.49078369 440.48101807 C-50.47150734 449.87095478 1.49740326 449.44995416 55.4438324 439.65895081 C60.49701151 438.74242925 65.55746328 437.88086546 70.62548828 437.05078125 C77.01906265 435.98823182 82.99872298 434.81462984 89.0234375 432.40234375 C91.5482464 431.49541781 94.07792782 430.87249903 96.6875 430.25 C101.81428746 429.01589495 106.84242412 427.56706325 111.875 426 C112.58269531 425.78166504 113.29039062 425.56333008 114.01953125 425.33837891 C117.37147596 424.47391901 117.37147596 424.47391901 120.1875 422.625 C120.28470116 420.9621109 120.31121545 419.29505995 120.31054783 417.62933254 C120.31253888 416.54052207 120.31452993 415.45171161 120.31658131 414.32990688 C120.31221205 412.51331234 120.31221205 412.51331234 120.30775452 410.66001892 C120.30860894 409.38509616 120.30946337 408.1101734 120.31034368 406.79661661 C120.31259104 403.24157372 120.30856409 399.68656067 120.30356562 396.13152158 C120.29926474 392.30396419 120.30070729 388.47640861 120.3014679 384.64884949 C120.30199336 378.01194291 120.2988442 371.37504613 120.29323006 364.73814201 C120.28511811 355.14218141 120.28250015 345.54622556 120.28124207 335.9502619 C120.27905106 320.38309834 120.27238968 304.81594001 120.26293945 289.2487793 C120.25376658 274.122803 120.24668514 258.99682812 120.24243164 243.87084961 C120.24216892 242.93916971 120.24190619 242.00748982 120.24163551 241.04757719 C120.24033051 236.37381761 120.23906679 231.70005801 120.23782361 227.0262984 C120.22744949 188.22586194 120.20982987 149.42543132 120.1875 110.625 C117.94254755 110.30064851 115.69744768 109.97731732 113.45228577 109.65441895 C112.20206162 109.47425484 110.95183748 109.29409073 109.66372776 109.1084671 C62.77770969 102.58764947 14.59743815 103.44304304 -32.625 103.4375 C-34.14416834 103.43671637 -34.14416834 103.43671637 -35.69402695 103.4359169 C-41.60704467 103.4331245 -47.51999198 103.43710186 -53.43299484 103.4510498 C-55.24918747 103.45496592 -57.06538376 103.45749157 -58.88158035 103.45846558 C-68.74489722 103.46692474 -78.53376446 103.68294955 -88.37309265 104.39498901 Z " fill="#080808" transform="translate(275.8125,9.375)"/>
<path d="M0 0 C0.66 0.33 1.32 0.66 2 1 C2 2.65 2 4.3 2 6 C1.01 6 0.02 6 -1 6 C-1.625 4.125 -1.625 4.125 -2 2 C-1.34 1.34 -0.68 0.68 0 0 Z " fill="#D7D7D7" transform="translate(75,457)"/>
</svg>
