<?xml version="1.0"?>
<svg width="500" height="500" xmlns="http://www.w3.org/2000/svg" xmlns:svg="http://www.w3.org/2000/svg" version="1.1">
 <g class="layer">
  <title>Layer 1</title>
  <path d="m0,0c1.3,0.02 2.61,0.04 3.95,0.06c25.89,0.45 51.76,1.27 77.61,2.88c1.02,0.06 2.04,0.12 3.09,0.19c16.01,0.99 32,2.19 47.98,3.56c0.97,0.08 1.94,0.16 2.94,0.25c2.77,0.23 5.54,0.47 8.3,0.72c1.2,0.1 1.2,0.1 2.42,0.21c8.43,0.77 16.18,2.17 23.9,5.76c1.58,0.58 3.16,1.16 4.75,1.75c9.1,3.63 18.09,9.54 25.25,16.25c0,0.65 0,1.32 0,2c0.66,0 1.32,0 2,0c0,0.65 0,1.32 0,2c0.66,0 1.32,0 2,0c0.66,1.64 1.32,3.29 2,5c0.66,0 1.32,0 2,0c1.56,2.26 2.98,4.5 4.37,6.87c0.41,0.69 0.81,1.37 1.23,2.08c8.01,13.81 10.86,27.31 10.79,43.23c0.01,1.5 0.01,3 0.02,4.51c0.02,4.1 0.01,8.2 0.01,12.3c0,4.43 0.01,8.86 0.02,13.3c0.02,8.67 0.03,17.34 0.03,26.02c0,7.05 0,14.1 0.01,21.15c0,2.04 0,4.07 0,6.1c0,1.52 0,1.52 0.01,3.07c0.02,19.13 0.01,38.27 0.01,57.4c-0.01,17.49 0.01,34.98 0.05,52.47c0.03,17.97 0.04,35.95 0.04,53.93c0,10.08 0,20.17 0.03,30.25c0.02,8.59 0.02,17.17 0,25.75c-0.01,4.38 -0.01,8.76 0.01,13.13c0.02,4.01 0.02,8.02 0,12.04c-0.01,1.44 0,2.89 0.01,4.33c0.14,15.96 -5.92,28.44 -16.64,40.07c-0.66,0 -1.32,0 -2,0c0,0.66 0,1.31 0,2c-13.34,9.75 -27.85,12.66 -44,11c-8.69,-1.66 -16.84,-5.85 -24,-11c0,-0.67 0,-1.32 0,-2c-0.66,0 -1.32,0 -2,0c0,-0.67 0,-1.32 0,-2c-0.66,0 -1.32,0 -2,0c0,-0.67 0,-1.32 0,-2c-0.66,0 -1.32,0 -2,0c0,-0.67 0,-1.32 0,-2c-0.66,0 -1.32,0 -2,0c-4.08,-5.87 -7.57,-11.98 -9,-19c-5.73,0.58 -10.99,1.69 -16.5,3.31c-1.6,0.45 -3.19,0.91 -4.79,1.36c-0.79,0.22 -1.59,0.45 -2.4,0.68c-17.4,4.87 -35.03,8.25 -52.89,10.94c-1.41,0.21 -2.81,0.43 -4.22,0.65c-22.05,3.37 -44.04,4.44 -66.33,4.37c-1.2,0 -2.4,-0.01 -3.64,-0.01c-18.28,-0.04 -36.12,-0.73 -54.23,-3.3c-2.28,-0.3 -4.56,-0.59 -6.84,-0.88c-21.06,-2.81 -41.7,-7.46 -62.16,-13.12c-3.48,-0.93 -6.96,-1.84 -10.44,-2.75c-1.64,-0.44 -3.29,-0.87 -4.93,-1.3c-1.2,-0.32 -2.4,-0.63 -3.63,-0.95c-0.25,0.58 -0.49,1.17 -0.75,1.78c-3.31,7.86 -7.39,15.93 -13.25,22.22c-0.66,0 -1.32,0 -2,0c0,0.66 0,1.31 0,2c-0.66,0 -1.32,0 -2,0c0,0.66 0,1.31 0,2c-13.13,9.96 -28.04,12.2 -44,11c-8.68,-1.61 -16.86,-5.87 -24,-11c0,-0.67 0,-1.32 0,-2c-0.66,0 -1.32,0 -2,0c0,-0.67 0,-1.32 0,-2c-0.66,0 -1.32,0 -2,0c0,-0.67 0,-1.32 0,-2c-0.66,0 -1.32,0 -2,0c0,-0.67 0,-1.32 0,-2c-0.66,0 -1.32,0 -2,0c-1.37,-1.81 -1.37,-1.81 -2.88,-4.32c-0.49,-0.8 -0.98,-1.6 -1.49,-2.42c-4.95,-9.89 -6.22,-18.36 -6.15,-29.37c0,-1.51 -0.01,-3.02 -0.02,-4.53c-0.02,-4.12 -0.01,-8.23 0,-12.35c0.01,-4.45 -0.01,-8.9 -0.02,-13.35c-0.02,-8.71 -0.02,-17.42 -0.02,-26.13c0.01,-7.09 0.01,-14.17 0,-21.25c0,-1.01 0,-2.02 0,-3.06c0,-2.06 0,-4.11 -0.01,-6.16c-0.01,-19.22 0,-38.45 0.01,-57.67c0.02,-17.57 0,-35.13 -0.02,-52.7c-0.03,-18.05 -0.05,-36.11 -0.04,-54.17c0.01,-2.05 0.01,-4.09 0.01,-6.14c0,-1.51 0,-1.51 0,-3.05c0,-7.06 -0.01,-14.13 -0.02,-21.2c-0.02,-8.62 -0.02,-17.25 0,-25.87c0.01,-4.4 0.02,-8.79 0,-13.19c-0.02,-4.03 -0.01,-8.06 0.01,-12.1c0.01,-1.45 0,-2.9 -0.01,-4.34c-0.18,-21.21 8.6,-39.94 22.65,-55.63c0.66,0 1.32,0 2,0c0,-0.66 0,-1.33 0,-2c0.66,0 1.32,0 2,0c0,-0.67 0,-1.33 0,-2c2.09,-1.71 4.17,-3.27 6.37,-4.82c0.64,-0.45 1.28,-0.9 1.94,-1.36c13.97,-9.67 29.57,-14.46 46.41,-15.79c1.39,-0.12 1.39,-0.12 2.81,-0.24c3.03,-0.25 6.06,-0.49 9.09,-0.73c1.05,-0.09 2.1,-0.17 3.18,-0.26c31.32,-2.55 62.73,-4.94 94.16,-5.7c2.99,-0.08 5.97,-0.16 8.95,-0.25c25.65,-0.78 51.25,-0.91 76.9,-0.48z" fill="none" id="svg_1" stroke="#080808" stroke-dasharray="12 10" stroke-linecap="round" stroke-linejoin="round" stroke-width="6" transform="matrix(0.964412 0 0 1 275.894 9.375)"/>
  <path d="m33.38,83.95c-4.36,0.3 -8.71,0.39 -13.08,0.48c-15.42,0.33 -30.75,1.47 -46.11,2.76c-1.09,0.08 -2.18,0.17 -3.3,0.27c-3.1,0.25 -6.21,0.52 -9.31,0.79c-0.95,0.08 -1.89,0.16 -2.86,0.24c-0.87,0.07 -1.73,0.15 -2.63,0.23c-0.75,0.07 -1.51,0.13 -2.29,0.2c-1.95,0.18 -1.95,0.18 -3.86,1.27c0,102.96 0,205.92 0,312c5.27,2.25 10.32,4.21 15.75,5.93c0.81,0.26 1.62,0.52 2.46,0.79c6.89,2.12 13.83,3.7 20.91,5.07c5.79,1.12 5.79,1.12 6.88,2.21c2.66,0.55 5.32,1.05 8,1.52c0.82,0.14 1.65,0.29 2.49,0.44c2.69,0.48 5.38,0.94 8.07,1.41c0.91,0.16 1.82,0.32 2.76,0.48c54.02,9.39 105.99,8.97 159.93,-0.82c5.06,-0.92 10.12,-1.78 15.19,-2.61c6.39,-1.06 12.37,-2.24 18.39,-4.65c2.53,-0.9 5.06,-1.53 7.67,-2.15c5.12,-1.23 10.15,-2.68 15.19,-4.25c0.7,-0.22 1.41,-0.44 2.14,-0.66c3.35,-0.87 3.35,-0.87 6.17,-2.71c0.09,-1.67 0.12,-3.33 0.12,-5c0,-1.09 0,-2.18 0.01,-3.3c-0.01,-1.82 -0.01,-1.82 -0.01,-3.67c0,-1.27 0,-2.55 0,-3.86c0,-3.56 0,-7.11 -0.01,-10.67c0,-3.83 0,-7.65 0,-11.48c0,-6.64 0,-13.27 -0.01,-19.91c0,-9.6 -0.01,-19.19 -0.01,-28.79c0,-15.57 -0.01,-31.13 -0.02,-46.7c-0.01,-15.13 -0.01,-30.25 -0.02,-45.38c0,-0.93 0,-1.86 0,-2.82c0,-4.68 0,-9.35 0,-14.02c-0.01,-38.8 -0.03,-77.6 -0.05,-116.4c-2.25,-0.33 -4.49,-0.65 -6.74,-0.98c-1.25,-0.18 -2.5,-0.36 -3.79,-0.54c-46.88,-6.52 -95.06,-5.67 -142.29,-5.67c-1.51,0 -1.51,0 -3.06,0c-5.92,-0.01 -11.83,0 -17.74,0.01c-1.82,0 -3.64,0.01 -5.45,0.01c-9.86,0.01 -19.65,0.22 -29.49,0.93z" fill="none" id="svg_3" stroke="#080808" stroke-dasharray="12 10" stroke-linecap="round" stroke-linejoin="round" stroke-width="6" transform="translate(147.8125,9.375)"/>
 </g>
</svg>