<?xml version="1.0"?>
<svg width="500" height="500" xmlns="http://www.w3.org/2000/svg" xmlns:svg="http://www.w3.org/2000/svg" version="1.1">
 <g class="layer">
  <title>Layer 1</title>
  <path d="m243.6,7.99c39.17,-0.18 78.24,1.24 117.33,3.64c5.68,0.35 11.36,0.67 17.04,0.98c1.64,0.09 3.29,0.18 4.94,0.27c2.26,0.12 4.52,0.24 6.78,0.36c1.99,0.11 3.98,0.22 5.97,0.33c1.64,0.09 1.64,0.09 3.31,0.18c3.05,0.26 6.01,0.73 9.03,1.25c2.42,0.13 4.84,0.23 7.25,0.32c11.17,0.55 22.22,2.98 32.75,6.68c0,0.66 0,1.32 0,2c0.71,0.12 1.42,0.23 2.15,0.35c9.86,2.27 18.75,8.66 25.85,15.65c0,0.66 0,1.32 0,2c0.66,0 1.32,0 2,0c0,0.66 0,1.32 0,2c0.66,0 1.32,0 2,0c2.62,3.13 4.78,6.59 7,10c0.61,0.93 1.22,1.86 1.84,2.81c4.8,7.74 7.64,15.5 10.16,24.19c0.19,0.6 0.37,1.2 0.56,1.82c0.57,2.81 0.57,5.46 0.58,8.33c0,1.27 0.01,2.53 0.01,3.84c0,1.41 0,2.82 0,4.23c0.01,1.5 0.01,3 0.01,4.49c0.01,4.12 0.02,8.24 0.02,12.36c0,4.43 0.01,8.87 0.02,13.31c0.02,10.73 0.03,21.45 0.04,32.18c0.01,5.05 0.01,10.1 0.02,15.15c0.01,16.79 0.03,33.59 0.03,50.38c0.01,4.36 0.01,8.72 0.01,13.07c0,1.09 0,2.17 0,3.29c0.01,17.54 0.04,35.08 0.07,52.62c0.03,18.01 0.05,36.03 0.05,54.04c0,10.11 0.01,20.22 0.04,30.34c0.02,8.61 0.03,17.22 0.02,25.84c-0.01,4.39 0,8.78 0.02,13.17c0.01,4.03 0.01,8.06 0,12.08c-0.01,1.45 0,2.91 0.01,4.36c0.12,15.54 -4.26,28.88 -14.83,40.52c-12.04,11.39 -26.91,14.11 -42.83,13.86c-15.22,-0.6 -26.53,-8.69 -36.85,-19.28c-4.49,-5.62 -9,-13.7 -9,-21c-6.5,1.57 -12.95,3.26 -19.39,5.06c-33.78,9.39 -67.53,15.37 -102.48,18.13c-1.02,0.09 -2.04,0.17 -3.09,0.26c-17.08,1.24 -34.11,0.54 -51.16,-0.7c-1.41,-0.1 -1.41,-0.1 -2.84,-0.2c-36.67,-2.67 -72.13,-10.58 -107.38,-20.83c-2.54,-0.68 -5.07,-1.23 -7.66,-1.72c-0.66,2.97 -1.32,5.94 -2,9c-0.66,0 -1.32,0 -2,0c-0.11,0.74 -0.22,1.48 -0.34,2.24c-2.05,8.68 -9.69,15.69 -16.66,20.76c-0.99,0 -1.98,0 -3,0c0,0.66 0,1.32 0,2c-2.01,0.83 -4.03,1.64 -6.06,2.44c-1.12,0.45 -2.25,0.91 -3.41,1.37c-11.76,3.97 -26.91,3.71 -38.53,-0.81c-5.22,-2.67 -10.12,-5.74 -15,-9c0,-0.66 0,-1.32 0,-2c-0.66,0 -1.32,0 -2,0c-1.98,-2.16 -1.98,-2.16 -4.31,-5.18c-0.76,-0.97 -1.52,-1.93 -2.3,-2.92c-6.71,-10.11 -8.12,-20.44 -8.01,-32.3c-0.01,-1.52 -0.02,-3.04 -0.02,-4.55c-0.02,-4.13 -0.01,-8.26 0.01,-12.39c0.01,-4.47 -0.01,-8.94 -0.02,-13.41c-0.02,-8.73 -0.01,-17.47 0.01,-26.21c0.01,-7.1 0.02,-14.21 0.01,-21.31c0,-1.52 0,-1.52 0,-3.07c0,-2.06 0,-4.12 0,-6.18c-0.01,-18.18 0.01,-36.36 0.04,-54.54c0.03,-17.63 0.03,-35.25 0.02,-52.87c-0.02,-19.21 -0.02,-38.42 0,-57.64c0,-2.05 0,-4.1 0,-6.15c0,-1.01 0,-2.02 0,-3.06c0.01,-7.09 0.01,-14.18 0,-21.27c-0.01,-8.65 0,-17.3 0.02,-25.95c0.02,-4.41 0.02,-8.82 0.01,-13.22c-0.01,-4.05 0,-8.09 0.02,-12.13c0.01,-1.46 0.01,-2.91 0,-4.37c-0.06,-9.47 1.24,-17.39 4.52,-26.28c0.38,-1.06 0.76,-2.12 1.15,-3.21c2.93,-8 7.5,-14.23 12.85,-20.79c0.84,-1.08 0.84,-1.08 1.68,-2.18c7.02,-8.69 17.69,-17.1 28.32,-20.82c1.32,0 2.64,0 4,0c0,-0.66 0,-1.32 0,-2c19.86,-7.16 41.97,-7.38 62.84,-8.78c3.4,-0.23 6.8,-0.47 10.2,-0.72c39.54,-2.82 78.91,-4.3 118.56,-4.51z" fill="#007fff" id="svg_1"/>
  <path d="m253.76,25.75c2.68,0 5.36,-0.01 8.04,-0.02c26.12,-0.07 52.12,0.77 78.2,2.27c0.75,0.04 1.51,0.08 2.29,0.13c8.85,0.5 17.69,1.04 26.53,1.62c3.93,0.25 7.87,0.5 11.81,0.75c11.76,0.74 23.52,1.53 35.27,2.51c0.92,0.07 1.83,0.14 2.77,0.22c13.89,1.2 26.49,5.59 37.46,14.31c1.75,1.37 3.55,2.52 5.43,3.71c9.49,6.82 16.41,21.75 19.44,32.75c1.11,7.79 1.15,15.5 1.15,23.36c0,1.45 0.01,2.9 0.01,4.35c0.01,3.97 0.02,7.94 0.02,11.91c0.01,4.29 0.02,8.58 0.03,12.87c0.03,10.34 0.04,20.69 0.06,31.03c0,2.93 0,5.85 0.01,8.77c0.02,18.17 0.04,36.34 0.06,54.51c0,4.2 0,8.4 0.01,12.61c0,1.04 0,2.09 0,3.16c0.01,16.93 0.04,33.86 0.09,50.78c0.04,17.4 0.06,34.79 0.07,52.18c0,9.76 0.01,19.52 0.04,29.28c0.03,8.31 0.04,16.62 0.03,24.93c0,4.24 0,8.47 0.03,12.71c0.02,3.89 0.02,7.77 0,11.65c0,1.4 0,2.8 0.02,4.2c0.13,12.85 -2.95,23.24 -12.07,32.56c-7.89,6.58 -16.71,8.09 -26.73,7.54c-9.11,-0.96 -15.54,-3.78 -21.69,-10.7c-7.21,-9.08 -9.02,-17.52 -8.88,-28.91c0,-1.4 -0.01,-2.8 -0.02,-4.2c-0.01,-3.8 0.01,-7.61 0.03,-11.42c0.03,-4.12 0.01,-8.24 0,-12.35c-0.01,-7.13 0,-14.26 0.03,-21.38c0.03,-10.31 0.03,-20.61 0.02,-30.92c-0.02,-16.73 -0.01,-33.46 0.02,-50.19c0,-1 0,-2 0,-3.03c0.01,-4.05 0.01,-8.11 0.02,-12.16c0.01,-11.17 0.03,-22.35 0.03,-33.52c0.01,-1 0.01,-2 0.01,-3.03c0.01,-16.68 0.01,-33.36 0,-50.04c-0.01,-10.29 0,-20.57 0.03,-30.86c0.02,-7.04 0.02,-14.07 0.02,-21.11c-0.01,-4.07 0,-8.13 0.02,-12.19c0.02,-3.72 0.02,-7.44 0.01,-11.15c-0.01,-1.99 0.01,-3.98 0.03,-5.96c-0.01,-1.76 -0.01,-1.76 -0.02,-3.56c0,-1.02 0,-2.03 0,-3.08c-0.63,-3.38 -1.83,-4.54 -4.49,-6.64c-3.55,-1.18 -7.02,-1.55 -10.72,-1.94c-0.79,-0.09 -1.58,-0.17 -2.39,-0.26c-91.13,-9.64 -183.25,-8.95 -274.52,-1.74c-1.57,0.12 -1.57,0.12 -3.16,0.25c-2.92,0.23 -5.84,0.47 -8.75,0.72c-0.84,0.07 -1.67,0.14 -2.53,0.21c-3.96,0.35 -7.87,0.84 -11.78,1.57c-0.7,0.13 -1.4,0.26 -2.13,0.39c-2.78,1.09 -4.12,2.49 -6.02,4.8c-0.59,2.69 -0.59,2.69 -0.49,5.7c-0.01,1.17 -0.02,2.34 -0.02,3.54c0.01,1.29 0.02,2.57 0.03,3.9c0,1.38 0,2.76 0,4.14c-0.01,3.79 0.01,7.59 0.03,11.38c0.02,4.09 0.01,8.18 0.01,12.28c0,7.09 0.02,14.18 0.04,21.28c0.03,10.27 0.04,20.54 0.03,30.81c0,16.69 0,33.37 0.02,50.05c0,1 0,2 0,3.03c0.02,11.13 0.03,22.27 0.06,33.4c0,1 0,2 0,3.03c0,1 0.01,2 0.01,3.03c0,2.01 0.01,4.02 0.01,6.04c0,0.99 0.01,1.98 0.01,3.01c0.03,16.61 0.04,33.22 0.02,49.83c-0.01,10.24 0.01,20.47 0.05,30.71c0.03,7.03 0.03,14.05 0.02,21.08c-0.01,4.05 -0.01,8.09 0.02,12.14c0.03,3.72 0.03,7.43 0,11.15c0,1.96 0.03,3.92 0.06,5.88c-0.15,11.43 -4.12,20.81 -11.91,29.27c-8.52,7.71 -19.12,8 -30.08,7.48c-7.9,-0.68 -13.55,-4.69 -18.75,-10.46c-7.49,-9.29 -9.05,-18.1 -8.93,-29.76c-0.01,-1.49 -0.01,-2.98 -0.03,-4.47c-0.02,-4.06 0,-8.12 0.02,-12.18c0.01,-4.39 -0.01,-8.79 -0.02,-13.18c-0.02,-8.59 -0.02,-17.19 0.01,-25.78c0.01,-6.99 0.02,-13.98 0.01,-20.96c0,-1 0,-2 0,-3.02c0,-2.03 0,-4.05 0,-6.08c-0.02,-18.96 0.01,-37.92 0.04,-56.89c0.04,-16.25 0.04,-32.5 0.02,-48.75c-0.02,-18.9 -0.03,-37.79 -0.01,-56.68c0,-2.02 0.01,-4.04 0.01,-6.05c0,-1 0,-1.99 0,-3.01c0.01,-6.98 0,-13.95 -0.01,-20.92c-0.01,-8.51 0,-17.02 0.03,-25.53c0.02,-4.33 0.02,-8.67 0.01,-13c-0.01,-3.98 0,-7.96 0.02,-11.94c0.01,-1.43 0.01,-2.86 0,-4.29c-0.1,-13.01 2.86,-23.94 10.22,-34.78c0.37,-0.56 0.74,-1.12 1.13,-1.7c9.13,-13.6 24.42,-23.39 40.31,-27.55c5.59,-1.06 11.18,-1.66 16.85,-2.16c1.43,-0.13 1.43,-0.13 2.89,-0.26c11.53,-1 23.08,-1.66 34.63,-2.33c3.27,-0.18 6.53,-0.37 9.8,-0.57c2,-0.12 4.01,-0.23 6.01,-0.34c3.97,-0.24 7.9,-0.5 11.83,-1.03c4.81,-0.64 9.62,-0.83 14.47,-1.03c1.04,-0.04 2.08,-0.09 3.16,-0.13c28.37,-1.13 56.73,-1.55 85.12,-1.58z" fill="#007fff" id="svg_2"/>
  <path d="m0,0c39.17,-0.18 78.24,1.24 117.33,3.64c5.68,0.35 11.36,0.67 17.04,0.98c1.64,0.09 3.29,0.18 4.94,0.27c2.26,0.12 4.52,0.24 6.78,0.36c1.99,0.11 3.98,0.22 5.97,0.33c1.64,0.09 1.64,0.09 3.31,0.18c3.05,0.26 6.01,0.73 9.03,1.25c2.42,0.13 4.84,0.23 7.25,0.32c11.17,0.55 22.22,2.98 32.75,6.68c0,0.66 0,1.32 0,2c0.71,0.12 1.42,0.23 2.15,0.35c9.86,2.27 18.75,8.66 25.85,15.65c0,0.66 0,1.32 0,2c0.66,0 1.32,0 2,0c0,0.66 0,1.32 0,2c0.66,0 1.32,0 2,0c2.62,3.13 4.78,6.59 7,10c0.61,0.93 1.22,1.86 1.84,2.81c4.8,7.74 7.64,15.5 10.16,24.19c0.19,0.6 0.37,1.2 0.56,1.82c0.57,2.81 0.57,5.46 0.58,8.33c0,1.27 0.01,2.53 0.01,3.84c0,1.41 0,2.82 0,4.23c0.01,1.5 0.01,3 0.01,4.49c0.01,4.12 0.02,8.24 0.02,12.36c0,4.43 0.01,8.87 0.02,13.31c0.02,10.73 0.03,21.45 0.04,32.18c0.01,5.05 0.01,10.1 0.02,15.15c0.01,16.79 0.03,33.59 0.03,50.38c0.01,4.36 0.01,8.72 0.01,13.07c0,1.09 0,2.17 0,3.29c0.01,17.54 0.04,35.08 0.07,52.62c0.03,18.01 0.05,36.03 0.05,54.04c0,10.11 0.01,20.22 0.04,30.34c0.02,8.61 0.03,17.22 0.02,25.84c-0.01,4.39 0,8.78 0.02,13.17c0.01,4.03 0.01,8.06 0,12.08c-0.01,1.45 0,2.91 0.01,4.36c0.12,15.54 -4.26,28.88 -14.83,40.52c-12.04,11.39 -26.91,14.11 -42.83,13.86c-15.22,-0.6 -26.53,-8.69 -36.85,-19.28c-4.49,-5.62 -9,-13.7 -9,-21c-6.5,1.57 -12.95,3.26 -19.39,5.06c-33.78,9.39 -67.53,15.37 -102.48,18.13c-1.02,0.09 -2.04,0.17 -3.09,0.26c-17.08,1.24 -34.11,0.54 -51.16,-0.7c-1.41,-0.1 -1.41,-0.1 -2.84,-0.2c-36.67,-2.67 -72.13,-10.58 -107.38,-20.83c-2.54,-0.68 -5.07,-1.23 -7.66,-1.72c-0.66,2.97 -1.32,5.94 -2,9c-0.66,0 -1.32,0 -2,0c-0.11,0.74 -0.22,1.48 -0.34,2.24c-2.05,8.68 -9.69,15.69 -16.66,20.76c-0.99,0 -1.98,0 -3,0c0,0.66 0,1.32 0,2c-2.01,0.83 -4.03,1.64 -6.06,2.44c-1.12,0.45 -2.25,0.91 -3.41,1.37c-11.76,3.97 -26.91,3.71 -38.53,-0.81c-5.22,-2.67 -10.12,-5.74 -15,-9c0,-0.66 0,-1.32 0,-2c-0.66,0 -1.32,0 -2,0c-1.98,-2.16 -1.98,-2.16 -4.31,-5.18c-0.76,-0.97 -1.52,-1.93 -2.3,-2.92c-6.71,-10.11 -8.12,-20.44 -8.01,-32.3c-0.01,-1.52 -0.02,-3.04 -0.02,-4.55c-0.02,-4.13 -0.01,-8.26 0.01,-12.39c0.01,-4.47 -0.01,-8.94 -0.02,-13.41c-0.02,-8.73 -0.01,-17.47 0.01,-26.21c0.01,-7.1 0.02,-14.21 0.01,-21.31c0,-1.52 0,-1.52 0,-3.07c0,-2.06 0,-4.12 0,-6.18c-0.01,-18.18 0.01,-36.36 0.04,-54.54c0.03,-17.63 0.03,-35.25 0.02,-52.87c-0.02,-19.21 -0.02,-38.42 0,-57.64c0,-2.05 0,-4.1 0,-6.15c0,-1.01 0,-2.02 0,-3.06c0.01,-7.09 0.01,-14.18 0,-21.27c-0.01,-8.65 0,-17.3 0.02,-25.95c0.02,-4.41 0.02,-8.82 0.01,-13.22c-0.01,-4.05 0,-8.09 0.02,-12.13c0.01,-1.46 0.01,-2.91 0,-4.37c-0.06,-9.47 1.24,-17.39 4.52,-26.28c0.38,-1.06 0.76,-2.12 1.15,-3.21c2.93,-8 7.5,-14.23 12.85,-20.79c0.84,-1.08 0.84,-1.08 1.68,-2.18c7.02,-8.69 17.69,-17.1 28.32,-20.82c1.32,0 2.64,0 4,0c0,-0.66 0,-1.32 0,-2c19.86,-7.16 41.97,-7.38 62.84,-8.78c3.4,-0.23 6.8,-0.47 10.2,-0.72c39.54,-2.82 78.91,-4.3 118.56,-4.51zm-63.6,18.89c-1.14,0.04 -2.29,0.08 -3.48,0.12c-11.74,0.41 -23.4,1.09 -35.08,2.28c-7.6,0.77 -15.18,1.2 -22.81,1.56c-12.06,0.57 -24.1,1.33 -36.13,2.54c-1.64,0.15 -1.64,0.15 -3.31,0.31c-12.49,1.34 -22.69,5.55 -33.19,12.31c-0.95,0.59 -1.9,1.17 -2.88,1.78c-11.94,7.88 -20.88,22.12 -24.69,35.88c-1,5.53 -0.71,11.21 -0.71,16.81c0,1.49 -0.01,2.97 -0.01,4.46c-0.02,4.08 -0.02,8.15 -0.03,12.23c0,4.4 -0.01,8.8 -0.03,13.2c-0.02,9.62 -0.04,19.24 -0.05,28.85c0,6.01 -0.01,12.02 -0.02,18.03c-0.02,16.64 -0.04,33.28 -0.05,49.92c0,1.07 0,2.13 0,3.23c0,1.07 0,2.13 0,3.23c0,2.16 0,4.33 -0.01,6.49c0,1.07 0,2.14 0,3.25c0,17.38 -0.04,34.75 -0.09,52.13c-0.04,17.85 -0.07,35.7 -0.07,53.55c0,10.02 -0.01,20.03 -0.05,30.05c-0.03,8.53 -0.04,17.06 -0.03,25.6c0.01,4.35 0.01,8.69 -0.02,13.04c-0.02,3.99 -0.02,7.98 0,11.97c0.01,1.44 0,2.87 -0.02,4.31c-0.13,12.16 2.83,20.91 11.01,29.99c8.11,7.41 16.26,8.76 26.97,8.33c8.69,-0.75 15.84,-3.81 21.78,-10.33c0.64,-0.68 1.28,-1.36 1.94,-2.06c6.35,-9.04 7.79,-17.08 7.68,-27.99c0,-1.39 0.01,-2.78 0.01,-4.18c0.02,-3.79 0,-7.59 -0.02,-11.39c-0.02,-4.11 0,-8.21 0,-12.32c0.01,-7.11 0.01,-14.22 -0.01,-21.32c-0.03,-10.28 -0.03,-20.56 -0.01,-30.84c0.01,-16.69 0.01,-33.37 0,-50.06c0,-1 0,-2 0,-3.02c-0.01,-4.05 -0.01,-8.09 -0.01,-12.13c-0.01,-11.15 -0.02,-22.29 -0.03,-33.43c0,-1 0,-2 0,-3.03c-0.01,-16.63 0,-33.27 0.01,-49.9c0.01,-10.26 0.01,-20.52 -0.02,-30.78c-0.01,-7.02 -0.01,-14.04 -0.01,-21.06c0.01,-4.05 0.01,-8.11 -0.01,-12.16c-0.02,-3.71 -0.02,-7.41 0,-11.12c0,-1.98 -0.02,-3.97 -0.03,-5.95c0.01,-1.75 0.01,-1.75 0.02,-3.55c0,-1.01 0,-2.02 0,-3.07c0.63,-3.35 1.88,-4.52 4.49,-6.64c2.03,-0.79 2.03,-0.79 4.16,-1.19c1.19,-0.22 1.19,-0.22 2.4,-0.44c3.96,-0.59 7.91,-1.01 11.91,-1.33c0.91,-0.08 1.82,-0.16 2.76,-0.24c3.05,-0.25 6.1,-0.5 9.15,-0.73c1.07,-0.09 2.15,-0.17 3.26,-0.26c87.72,-6.84 175.71,-6.8 263.36,1.19c1.33,0.12 1.33,0.12 2.69,0.24c2.49,0.22 4.99,0.46 7.48,0.7c0.73,0.06 1.45,0.13 2.2,0.19c5.39,0.56 8.81,2.05 12.63,5.87c0.25,2.4 0.25,2.4 0.25,5.48c0.01,1.75 0.01,1.75 0.01,3.55c-0.01,1.94 -0.01,1.94 -0.02,3.93c0,1.38 0.01,2.76 0.01,4.15c0,3.81 -0.01,7.63 -0.02,11.44c0,4.11 0,8.22 0,12.33c0,7.13 0,14.25 -0.01,21.38c-0.01,11.27 -0.01,22.54 0,33.81c0.01,3.85 0.01,7.71 0.01,11.56c0,0.97 0.01,1.93 0.01,2.92c0.01,10.98 0.01,21.95 0.01,32.93c0,1.5 0,1.5 0,3.04c0.01,16.24 0,32.49 -0.02,48.73c-0.01,16.68 0,33.36 0.02,50.04c0.02,10.29 0.02,20.57 -0.01,30.86c-0.02,7.06 -0.01,14.11 0.01,21.17c0.01,4.07 0.01,8.14 -0.01,12.2c-0.02,3.74 -0.02,7.47 0.01,11.2c0.01,1.97 -0.01,3.95 -0.04,5.92c0.13,11.02 3.68,19.14 10.98,27.36c7.56,6.92 15.77,8.65 25.82,8.55c8.3,-0.39 15.64,-3.07 21.87,-8.61c6.04,-6.7 10.25,-15.78 10.25,-24.78c0,-1.22 0.01,-2.45 0.01,-3.71c0,-1.37 -0.01,-2.74 -0.01,-4.11c0,-1.45 0,-2.9 0.01,-4.34c0,-3.99 0,-7.98 0,-11.97c-0.01,-4.3 0,-8.6 0,-12.9c0,-8.42 0,-16.85 0,-25.28c0,-6.85 0,-13.7 0,-20.55c0,-0.97 0,-1.95 0,-2.95c0,-1.98 0,-3.96 0,-5.94c0,-18.57 0,-37.14 -0.01,-55.71c0,-15.93 0,-31.86 0.01,-47.79c0,-18.5 0,-36.99 0,-55.48c0,-1.98 0,-3.95 0,-5.92c0,-0.97 0,-1.94 0,-2.94c0,-6.84 0,-13.68 0,-20.52c0,-8.34 0,-16.68 0,-25.02c0,-4.25 -0.01,-8.5 0,-12.76c0,-3.9 0,-7.79 -0.01,-11.69c0,-1.41 0,-2.81 0.01,-4.22c0.03,-18.68 -3.4,-35.86 -16.59,-49.98c-23.31,-21.74 -49.39,-22.37 -79.67,-24.38c-2.61,-0.17 -5.23,-0.35 -7.84,-0.52c-5.09,-0.35 -10.18,-0.69 -15.27,-1.03c-4.78,-0.31 -9.57,-0.64 -14.35,-0.97c-3.28,-0.22 -6.57,-0.44 -9.85,-0.66c-1.54,-0.11 -1.54,-0.11 -3.11,-0.22c-3.49,-0.23 -6.97,-0.42 -10.46,-0.6c-1.26,-0.06 -1.26,-0.06 -2.56,-0.12c-21.66,-1.04 -43.32,-1.07 -65,-1.06c-1.87,0 -3.75,0 -5.63,0c-23.95,0 -47.87,0.22 -71.81,1.06zm-12.43,87.44c-1.13,0.04 -1.13,0.04 -2.28,0.09c-16.31,0.64 -32.57,1.58 -48.82,3.14c-0.68,0.06 -1.36,0.13 -2.06,0.19c-6.67,0.01 -6.67,0.01 -12.41,2.26c-0.09,1.66 -0.12,3.32 -0.12,4.98c0,1.09 0,2.17 0,3.29c0,1.21 0,2.42 0,3.66c0,1.27 0,2.54 0,3.85c0,3.55 0,7.09 0.01,10.63c0,3.82 0,7.63 0,11.45c0,6.61 0,13.23 0.01,19.85c0.01,9.56 0.01,19.13 0.01,28.69c0,15.52 0.01,31.04 0.02,46.55c0.01,15.08 0.02,30.16 0.02,45.23c0,0.93 0,1.86 0,2.82c0,4.66 0,9.32 0,13.98c0.02,38.67 0.03,77.35 0.05,116.02c1.61,0.65 3.21,1.29 4.81,1.94c0.9,0.36 1.79,0.72 2.71,1.09c4.41,1.73 8.91,3.07 13.46,4.39c1.42,0.41 2.84,0.83 4.26,1.25c16.7,4.94 33.64,8.26 50.76,11.33c0.91,0.17 1.82,0.34 2.76,0.51c5.4,0.97 10.8,1.78 16.24,2.49c1.01,0.14 2.01,0.27 3.04,0.41c39.24,5.14 78.4,3.22 117.34,-3.19c5.11,-0.84 10.22,-1.56 15.36,-2.2c6.45,-0.84 12.66,-2.12 18.95,-3.77c1.02,-0.26 2.04,-0.52 3.09,-0.78c9.82,-2.55 19.53,-5.45 29.22,-8.47c4.29,-1.32 8.58,-2.64 13,-4c0,-102.96 0,-205.92 0,-312c-3.18,-1.59 -6.68,-1.46 -10.19,-1.72c-0.82,-0.06 -1.63,-0.12 -2.48,-0.19c-2.63,-0.2 -5.26,-0.39 -7.89,-0.59c-2.6,-0.19 -5.21,-0.39 -7.81,-0.59c-1.62,-0.12 -3.24,-0.24 -4.86,-0.36c-3.76,-0.28 -7.49,-0.62 -11.23,-1.06c-4.73,-0.54 -9.45,-0.81 -14.2,-1.02c-0.95,-0.04 -1.9,-0.09 -2.88,-0.13c-55.91,-2.44 -111.98,-2.29 -167.89,-0.02z" fill="#060606" id="svg_3" transform="translate(243.59500122070313,7.986419677734375)"/>
  <path d="m0,0c3.2,2.47 4.89,3.79 6.19,7.69c0.56,5.72 0.21,10.05 -3,15c-0.66,0.33 -1.32,0.66 -2,1c4.62,9.59 11.1,17.87 17.74,26.13c2.26,2.87 2.26,2.87 3.26,4.87c3.52,-1.27 6.17,-2.71 9.06,-5.06c3.7,-2.97 7.45,-5.85 11.25,-8.69c0.99,-0.74 1.97,-1.48 2.99,-2.24c0.89,-0.66 1.78,-1.33 2.7,-2.01c1.33,-1 2.66,-2 4,-3c-0.33,-0.64 -0.66,-1.28 -1,-1.94c-1.67,-5.09 -1.88,-9.95 0.19,-14.94c3.29,-3.86 5.67,-5 10.75,-5.56c4.27,0.18 6.79,1.63 10.06,4.44c2.37,2.92 2.96,4.68 3.44,8.44c-0.63,5.1 -2.75,8.06 -6.57,11.43c-1.87,1.13 -1.87,1.13 -3.87,1.13c-0.12,1.29 -0.24,2.59 -0.37,3.93c-0.54,4.86 -1.58,9.47 -2.82,14.19c-0.22,0.85 -0.43,1.69 -0.66,2.56c-0.46,1.81 -0.93,3.63 -1.4,5.44c-0.79,3.02 -1.57,6.05 -2.35,9.08c-0.53,2.06 -1.06,4.12 -1.59,6.17c-0.25,0.97 -0.5,1.94 -0.76,2.94c-0.98,3.78 -1.98,7.48 -3.29,11.16c-1.05,2.62 -1.05,2.62 0.24,5.53c0.57,7.23 0.57,7.23 -1.81,10.44c-3.17,2.26 -5.71,2.68 -9.5,2.7c-1.32,0.02 -1.32,0.02 -2.66,0.03c-0.96,0 -1.93,0 -2.92,0c-1.01,0.01 -2.03,0.02 -3.07,0.02c-3.37,0.02 -6.73,0.04 -10.09,0.05c-1.15,0 -2.3,0 -3.48,0.01c-6.08,0.02 -12.15,0.03 -18.23,0.04c-6.28,0.01 -12.56,0.05 -18.83,0.09c-4.83,0.02 -9.66,0.03 -14.48,0.04c-2.32,0 -4.63,0.01 -6.94,0.03c-3.24,0.03 -6.48,0.02 -9.72,0.02c-0.96,0.01 -1.91,0.02 -2.9,0.04c-5.71,-0.05 -9.09,-0.59 -13.37,-4.51c-1.02,-4.19 -1.25,-6.82 -0.38,-11c0.44,-3.49 -0.53,-5.52 -1.79,-8.72c-1.44,-3.93 -2.35,-7.98 -3.31,-12.04c-0.22,-0.91 -0.44,-1.81 -0.66,-2.75c-0.46,-1.9 -0.91,-3.81 -1.36,-5.71c-0.69,-2.91 -1.39,-5.81 -2.09,-8.72c-0.45,-1.85 -0.89,-3.71 -1.33,-5.57c-0.21,-0.86 -0.42,-1.73 -0.63,-2.61c-1.03,-4.39 -1.7,-8.34 -1.45,-12.88c-1.09,-0.03 -1.09,-0.03 -2.19,-0.06c-3.58,-1.2 -4.84,-2.73 -6.86,-5.84c-1.69,-3.73 -1.87,-7.13 -0.95,-11.1c1.98,-3.54 4.63,-5.76 8,-8c4.79,-0.47 7.03,-0.52 11.31,1.75c4.41,3.69 4.41,3.69 5.69,6.25c0.43,5.36 -0.18,8.9 -2,14c13.75,11.61 13.75,11.61 29,21c7.99,-10.12 15.83,-20.27 23,-31c-0.63,-0.28 -1.25,-0.55 -1.89,-0.84c-3.2,-1.76 -3.86,-3.78 -5.11,-7.16c-0.78,-5.37 -0.4,-7.99 2.75,-12.44c4.35,-5.62 11.78,-6.18 18.06,-3.25z" fill="#D89904" id="svg_4" transform="translate(256.8125,192.3125)"/>
  <path d="m0,0c3.53,1.18 4,2.04 6.04,5.05c0.86,1.26 0.86,1.26 1.75,2.54c0.6,0.9 1.21,1.8 1.84,2.72c1.25,1.83 2.51,3.66 3.76,5.48c0.62,0.89 1.23,1.79 1.86,2.7c2.94,4.22 6.05,8.31 9.18,12.39c1.57,2.12 1.57,2.12 2.57,4.12c4.5,0.55 7.16,0.26 10.69,-2.49c1.31,-1.11 2.6,-2.24 3.87,-3.38c1.4,-1.2 2.79,-2.39 4.19,-3.57c0.71,-0.6 1.41,-1.2 2.13,-1.81c3.26,-2.69 6.67,-5.14 10.12,-7.56c0.61,-0.43 1.21,-0.85 1.83,-1.29c1.39,-0.97 2.78,-1.94 4.17,-2.9c1,3.14 0.96,5.2 0.21,8.39c-0.2,0.88 -0.4,1.76 -0.61,2.66c-0.22,0.91 -0.44,1.82 -0.66,2.76c-0.2,0.84 -0.39,1.68 -0.59,2.54c-2.56,10.94 -5.51,21.78 -8.35,32.65c-35.31,0 -70.62,0 -107,0c-1.65,-7.26 -3.3,-14.52 -5,-22c-1.35,-5.67 -2.72,-11.35 -4.11,-17.01c-0.25,-1.02 -0.5,-2.05 -0.75,-3.1c-0.22,-0.9 -0.44,-1.79 -0.67,-2.72c-0.47,-2.17 -0.47,-2.17 -0.47,-4.17c9.2,4.25 17.16,11.61 25.15,17.8c0.94,0.73 1.88,1.45 2.85,2.2c0.72,0.58 1.44,1.17 2.18,1.77c1.91,1.49 1.91,1.49 5.07,1.61c6,-2.21 8.34,-7.19 11.75,-12.38c1.11,-1.49 2.24,-2.97 3.37,-4.44c1.88,-2.42 3.33,-4.79 4.63,-7.56c0.66,0 1.32,0 2,0c0.23,-0.7 0.45,-1.4 0.69,-2.12c1.63,-3.57 3.72,-5.95 6.31,-8.88z" fill="#FDE440" id="svg_5" transform="translate(249,218)"/>
  <path d="m0,0c3.2,2.47 4.89,3.79 6.19,7.69c0.56,5.72 0.21,10.05 -3,15c-0.66,0.33 -1.32,0.66 -2,1c4.62,9.59 11.1,17.87 17.74,26.13c2.26,2.87 2.26,2.87 3.26,4.87c3.52,-1.27 6.17,-2.71 9.06,-5.06c3.7,-2.97 7.45,-5.85 11.25,-8.69c0.99,-0.74 1.97,-1.48 2.99,-2.24c0.89,-0.66 1.78,-1.33 2.7,-2.01c1.33,-1 2.66,-2 4,-3c-0.33,-0.64 -0.66,-1.28 -1,-1.94c-1.67,-5.09 -1.88,-9.95 0.19,-14.94c3.29,-3.86 5.67,-5 10.75,-5.56c4.27,0.18 6.79,1.63 10.06,4.44c2.37,2.92 2.96,4.68 3.44,8.44c-0.53,4.3 -1.65,6.25 -4.44,9.56c-1.99,1.35 -3.99,2.68 -6,4c-2.16,3.07 -2.5,6.32 -3,10c-2.97,-0.5 -2.97,-0.5 -6,-1c0,-2.64 0,-5.28 0,-8c-1.66,1.23 -3.32,2.47 -4.98,3.71c-1.44,1.07 -2.89,2.15 -4.33,3.22c-3.61,2.7 -7.17,5.43 -10.63,8.31c-0.61,0.51 -1.22,1.01 -1.85,1.54c-1.16,0.95 -2.3,1.93 -3.43,2.91c-2.8,2.32 -4.8,3.31 -8.39,3.98c-3.77,-0.75 -4.89,-1.74 -7.01,-4.89c-0.37,-0.61 -0.75,-1.22 -1.13,-1.84c-0.85,-1.29 -1.7,-2.57 -2.56,-3.85c-0.43,-0.67 -0.87,-1.34 -1.32,-2.03c-2.29,-3.45 -4.78,-6.75 -7.25,-10.06c-3.16,-4.27 -6.21,-8.56 -9.12,-13c-3.49,1.41 -4.82,2.86 -6.63,6.12c-1.22,2.2 -1.22,2.2 -2.37,3.88c-0.66,0 -1.32,0 -2,0c-0.21,0.83 -0.42,1.66 -0.64,2.52c-1.72,4.4 -4.24,7.5 -7.24,11.1c-0.53,0.66 -1.06,1.31 -1.6,1.99c-1.49,1.82 -3,3.6 -4.52,5.39c-0.69,0.81 -1.37,1.62 -2.07,2.46c-2.52,2.01 -3.76,1.86 -6.93,1.54c-2,-1.13 -2,-1.13 -3.94,-2.71c-0.72,-0.58 -1.45,-1.17 -2.19,-1.76c-0.76,-0.63 -1.53,-1.26 -2.31,-1.91c-1.6,-1.28 -3.2,-2.56 -4.8,-3.84c-1.2,-0.96 -1.2,-0.96 -2.41,-1.93c-3.42,-2.69 -6.93,-5.22 -10.48,-7.73c-0.59,-0.42 -1.19,-0.84 -1.81,-1.28c-1.35,-0.95 -2.71,-1.9 -4.06,-2.84c-0.33,0.99 -0.66,1.98 -1,3c-1.32,-0.66 -2.64,-1.32 -4,-2c-0.66,1.32 -1.32,2.64 -2,4c0,-1.98 0,-3.96 0,-6c-1.09,-0.03 -1.09,-0.03 -2.19,-0.06c-3.58,-1.2 -4.84,-2.73 -6.86,-5.84c-1.69,-3.73 -1.87,-7.13 -0.95,-11.1c1.98,-3.54 4.63,-5.76 8,-8c4.79,-0.47 7.03,-0.52 11.31,1.75c4.41,3.69 4.41,3.69 5.69,6.25c0.43,5.36 -0.18,8.9 -2,14c13.75,11.61 13.75,11.61 29,21c7.99,-10.12 15.83,-20.27 23,-31c-0.63,-0.28 -1.25,-0.55 -1.89,-0.84c-3.2,-1.76 -3.86,-3.78 -5.11,-7.16c-0.78,-5.37 -0.4,-7.99 2.75,-12.44c4.35,-5.62 11.78,-6.18 18.06,-3.25z" fill="#D89A08" id="svg_6" transform="translate(256.8125,192.3125)"/>
  <path d="m0,0c0.95,0 1.9,0.01 2.88,0.01c1.49,0 1.49,0 3.01,0c3.31,0 6.62,0.01 9.92,0.02c2.29,0 4.57,0 6.86,0c6.03,0 12.06,0.01 18.08,0.03c6.15,0.01 12.3,0.01 18.44,0.02c12.07,0.01 24.14,0.02 36.21,0.04c0.96,2.89 1.11,4.7 1.07,7.69c-0.01,0.81 -0.02,1.62 -0.03,2.45c-0.01,0.62 -0.03,1.23 -0.04,1.86c-13.54,0.03 -27.08,0.05 -40.63,0.06c-6.28,0 -12.57,0.01 -18.86,0.02c-6.06,0.01 -12.12,0.02 -18.19,0.02c-2.31,0 -4.63,0 -6.95,0.01c-3.24,0.01 -6.47,0.01 -9.71,0.01c-0.97,0 -1.93,0.01 -2.93,0.01c-0.88,0 -1.76,0 -2.66,-0.01c-0.76,0.01 -1.53,0.01 -2.32,0.01c-1.75,-0.13 -1.75,-0.13 -2.75,-1.13c0.07,-1.67 0.2,-3.33 0.38,-5c0.09,-0.9 0.18,-1.81 0.27,-2.75c0.73,-4.67 3.85,-3.36 7.95,-3.37z" fill="#FDE342" id="svg_7" transform="translate(205.59747314453125,284.8755798339844)"/>
  <path d="m0,0c2.45,3.67 2.71,6.73 2,11c-2.21,2.97 -3.49,3.83 -7,5c-1.44,0.09 -2.88,0.13 -4.32,0.14c-0.88,0.01 -1.76,0.01 -2.67,0.02c-0.97,0 -1.93,0 -2.93,0c-1.52,0.01 -1.52,0.01 -3.08,0.02c-3.37,0.01 -6.75,0.02 -10.12,0.02c-2.34,0.01 -4.68,0.01 -7.02,0.02c-4.91,0.01 -9.82,0.02 -14.73,0.02c-6.29,0.01 -12.59,0.03 -18.89,0.06c-4.83,0.02 -9.66,0.02 -14.5,0.02c-2.32,0.01 -4.64,0.01 -6.96,0.03c-3.25,0.01 -6.49,0.01 -9.73,0.01c-1.45,0.01 -1.45,0.01 -2.92,0.02c-0.89,0 -1.77,-0.01 -2.68,-0.01c-1.15,0 -1.15,0 -2.33,0c-2.12,-0.37 -2.12,-0.37 -6.12,-3.37c35.64,0.33 71.28,0.66 108,1c0,-0.66 0,-1.32 0,-2c-33.33,-0.33 -66.66,-0.66 -101,-1c0,-0.33 0,-0.66 0,-1c33.66,0 67.32,0 102,0c0,-1.65 0,-3.3 0,-5c0.33,0 0.66,0 1,0c0,2.31 0,4.62 0,7c1.32,0 2.64,0 4,0c0,-3.96 0,-7.92 0,-12z" fill="#D3A62F" id="svg_8" transform="translate(307,287)"/>
  <path d="m0,0c3.81,2.01 7.05,4.1 9,8c0.35,2.8 0.23,5.14 0,8c-0.66,0.66 -1.32,1.32 -2,2c-0.31,-0.97 -0.62,-1.94 -0.94,-2.94c-0.76,-2.9 -0.76,-2.9 -2.06,-4.06c-0.47,1.13 -0.95,2.27 -1.44,3.44c-1.56,3.56 -1.56,3.56 -2.56,4.56c-7.26,0.59 -7.26,0.59 -10.06,-1.62c-1.28,-3.23 -0.91,-5.07 0.06,-8.38c1.56,-2.37 1.56,-2.37 3,-4c-1.32,0 -2.64,0 -4,0c-0.2,0.86 -0.2,0.86 -0.4,1.73c-0.59,2.25 -1.33,4.36 -2.16,6.52c-0.27,0.71 -0.54,1.41 -0.82,2.14c-0.31,0.8 -0.31,0.8 -0.62,1.61c-0.33,0 -0.66,0 -1,0c-0.76,-7.6 -0.76,-7.6 1.01,-10.86c4.33,-5.24 8.25,-7.19 14.99,-6.14z" fill="#D49B19" id="svg_9" transform="translate(184,204)"/>
  <path d="m0,0c0.92,3.32 0.97,5.82 0.56,9.25c-0.1,0.89 -0.2,1.78 -0.31,2.7c-0.08,0.68 -0.16,1.35 -0.25,2.05c-0.66,0 -1.32,0 -2,0c0.03,1.7 0.03,1.7 0.06,3.44c-0.06,3.56 -0.06,3.56 -1.06,4.56c-0.37,2.33 -0.7,4.66 -1,7c-0.66,0 -1.32,0 -2,0c0.06,1.2 0.12,2.39 0.19,3.63c0.16,3.09 -0.21,4.4 -1.71,7.2c-2.19,4.7 -1.51,8.85 -1.19,13.93c-0.29,3.24 -0.29,3.24 -2.17,5.61c-2.99,2.3 -4.63,2.76 -8.34,2.81c-1.33,0.02 -1.33,0.02 -2.69,0.04c-0.97,0.01 -1.95,0.02 -2.95,0.03c-1.54,0.03 -1.54,0.03 -3.11,0.05c-3.4,0.04 -6.8,0.08 -10.2,0.12c-1.16,0.02 -2.32,0.03 -3.52,0.04c-6.14,0.08 -12.28,0.14 -18.42,0.21c-6.35,0.06 -12.69,0.15 -19.04,0.24c-4.87,0.06 -9.75,0.11 -14.63,0.16c-2.34,0.03 -4.68,0.06 -7.02,0.09c-3.27,0.05 -6.55,0.08 -9.82,0.1c-0.97,0.02 -1.93,0.04 -2.93,0.06c-5.25,0.02 -8.93,-0.33 -13.45,-3.32c-6.22,-7.98 -5.31,-20.38 -5,-30c0.33,0 0.66,0 1,0c1,4 2,8 3,12c0.21,0.71 0.42,1.41 0.63,2.14c0.43,2.15 0.21,3.71 -0.19,5.86c-0.36,2.55 -0.48,3.87 0.25,6.38c2.02,2.5 4.24,3.49 7.43,3.87c1.14,0 1.14,0 2.31,0c1.33,0.01 1.33,0.01 2.68,0.02c0.96,0 1.91,-0.01 2.9,-0.01c1.53,0 1.53,0 3.08,0.01c3.37,0.01 6.73,0 10.09,0c2.34,0 4.68,0 7.01,0c4.9,0 9.8,0 14.7,-0.01c6.28,-0.01 12.56,0 18.84,0.01c4.82,0.01 9.65,0 14.47,0c2.32,0 4.63,0 6.95,0c3.23,0.01 6.47,0 9.71,-0.01c0.95,0 1.91,0.01 2.9,0.01c6.36,-0.01 6.36,-0.01 12.24,-2.27c1.84,-3.67 1.42,-8.4 0.38,-12.32c-0.45,-3.2 0.13,-4.76 1.36,-7.73c2.32,-5.95 3.9,-11.94 5.38,-18.14c0.26,-1.03 0.51,-2.05 0.77,-3.11c0.48,-1.99 0.97,-3.98 1.45,-5.97c0.87,-3.58 1.76,-7.16 2.66,-10.73z" fill="#007fff" id="svg_10" transform="translate(319,242)"/>
  <path d="m0,0c5.61,1.36 7.89,5.29 11.06,9.75c0.52,0.7 1.04,1.41 1.57,2.13c2.89,3.97 5.67,8.01 8.37,12.12c3.84,-1.35 6.65,-3.08 9.81,-5.62c0.79,-0.64 1.58,-1.27 2.4,-1.92c0.59,-0.48 1.18,-0.96 1.79,-1.46c0.66,0.33 1.32,0.66 2,1c-2,3 -2,3 -4.5,3.88c-0.82,0.37 -1.65,0.74 -2.5,1.12c-0.27,0.81 -0.53,1.62 -0.8,2.46c-1.2,2.54 -1.2,2.54 -3.8,3.68c-1,0.22 -2,0.45 -3.02,0.67c-1.01,0.24 -2.01,0.47 -3.04,0.71c-0.77,0.16 -1.55,0.32 -2.34,0.48c-6.64,-8.47 -12.96,-17.09 -19,-26c0.66,-0.33 1.32,-0.66 2,-1c0,-0.66 0,-1.32 0,-2z" fill="#D79A0A" id="svg_11" transform="translate(258,223)"/>
  <path d="m0,0c2.16,0.34 2.16,0.34 4.73,1.91c2,3.39 1.99,5.56 1.43,9.43c-1.43,2.44 -1.43,2.44 -4,4c-3.15,0.67 -5.85,0.76 -9,0c-2.62,-2.62 -2.62,-2.62 -4,-6c0.07,-3.21 0.3,-5.09 2.29,-7.64c2.74,-2.16 5.18,-1.83 8.55,-1.7z" fill="#FCE13D" id="svg_12" transform="translate(251.8359375,196.65625)"/>
  <path d="m0,0c3,0.56 3,0.56 5.38,2.19c2.11,3.08 2.23,4.7 1.62,8.37c-1.56,2.44 -1.56,2.44 -4,4c-4.23,-0.15 -6.46,-0.64 -10,-3c-0.58,-3.75 -0.25,-5.55 1.62,-8.87c2.38,-2.13 2.38,-2.13 5.38,-2.69z" fill="#FDE441" id="svg_13" transform="translate(319,209.4375)"/>
  <path d="m0,0c2,1.13 2,1.13 3,3c-0.33,6.33 -0.33,6.33 -3,9c-7.14,0.68 -7.14,0.68 -10.06,-1.62c-1.27,-3.22 -0.92,-5.09 0.06,-8.38c2.46,-4.23 5.72,-3.07 10,-2z" fill="#FCE13D" id="svg_14" transform="translate(184,211)"/>
  <path d="m0,0c4.36,2.22 7.1,4.45 9,9c0.57,4.51 0.31,6.47 -2,10.44c-0.66,0.84 -1.32,1.69 -2,2.56c-0.33,-0.99 -0.66,-1.98 -1,-3c0.66,0 1.32,0 2,0c0.17,-1.26 0.33,-2.52 0.5,-3.81c0.14,-1.06 0.14,-1.06 0.28,-2.15c0.27,-2.19 0.27,-2.19 0.22,-5.04c-1.32,0 -2.64,0 -4,0c0,-1.32 0,-2.64 0,-4c-1.32,-0.33 -2.64,-0.66 -4,-1c-0.33,0.99 -0.66,1.98 -1,3c-1.98,0.72 -3.99,1.38 -6,2c-1.69,0.96 -3.37,1.94 -5,3c-0.33,-0.33 -0.66,-0.66 -1,-1c0,2.97 0,5.94 0,9c-2.39,-2.39 -2.3,-3.04 -2.31,-6.31c0.1,-4.04 0.62,-6.54 3.31,-9.69c3.95,-3.27 8.01,-3.88 13,-3z" fill="#D59B11" id="svg_15" transform="translate(323,204)"/>
  <path d="m0,0c0.92,3.32 0.97,5.82 0.56,9.25c-0.1,0.89 -0.2,1.78 -0.31,2.7c-0.08,0.68 -0.16,1.35 -0.25,2.05c-0.66,0 -1.32,0 -2,0c0.02,1.13 0.04,2.27 0.06,3.44c-0.06,3.56 -0.06,3.56 -1.06,4.56c-0.37,2.33 -0.7,4.66 -1,7c-0.66,0 -1.32,0 -2,0c0.06,1.2 0.12,2.39 0.19,3.63c0.16,3.09 -0.21,4.4 -1.71,7.2c-2.19,4.7 -1.51,8.85 -1.19,13.93c-0.29,3.24 -0.29,3.24 -2.15,5.69c-2.14,1.55 -2.14,1.55 -4.39,1.3c-0.58,-0.25 -1.16,-0.49 -1.75,-0.75c0.8,-0.29 1.61,-0.58 2.44,-0.87c2.69,-0.86 2.69,-0.86 3.56,-3.13c0.22,-5.22 0.22,-5.22 -0.62,-10.32c-0.45,-3.2 0.13,-4.76 1.36,-7.73c2.32,-5.95 3.9,-11.94 5.38,-18.14c0.26,-1.03 0.51,-2.05 0.77,-3.11c0.48,-1.99 0.97,-3.98 1.45,-5.97c0.87,-3.58 1.76,-7.16 2.66,-10.73z" fill="#007fff" id="svg_16" transform="translate(319,242)"/>
  <path d="m0,0c0.66,0 1.32,0 2,0c0.09,0.76 0.17,1.51 0.26,2.29c0.89,3.27 1.86,4.06 4.56,6.04c0.76,0.57 1.52,1.14 2.31,1.73c0.8,0.58 1.61,1.16 2.43,1.75c0.81,0.6 1.62,1.2 2.45,1.81c1.99,1.47 3.98,2.93 5.99,4.38c-1.32,0.33 -2.64,0.66 -4,1c-0.33,-0.66 -0.66,-1.32 -1,-2c-3.03,-0.66 -3.03,-0.66 -6,-1c0,-0.66 0,-1.32 0,-2c-1.61,-0.37 -1.61,-0.37 -3.25,-0.75c-3.75,-1.25 -5.27,-2.27 -7.75,-5.25c0.66,-0.33 1.32,-0.66 2,-1c0,-2.31 0,-4.62 0,-7z" fill="#D69912" id="svg_17" transform="translate(189,222)"/>
  <path d="m0,0c1.88,0.25 1.88,0.25 4,1c2.87,3.8 2.26,8.41 2.19,12.94c0,0.8 0,1.59 0,2.42c-0.03,3.32 -0.12,6.32 -0.83,9.58c-0.18,1.02 -0.18,1.02 -0.36,2.06c0.66,0.66 1.32,1.32 2,2c0,1.32 0,2.64 0,4c0.66,0 1.32,0 2,0c0.33,1.65 0.66,3.3 1,5c-2.95,-2.82 -5.43,-5.74 -7.81,-9.06c-0.63,-0.86 -1.25,-1.72 -1.9,-2.6c-0.42,-0.77 -0.85,-1.54 -1.29,-2.34c0.49,-1.48 0.49,-1.48 1,-3c0.66,0 1.32,0 2,0c2.06,-5.02 2.67,-9.64 2,-15c-1.3,-2.89 -1.3,-2.89 -3,-5c-0.33,-0.66 -0.66,-1.32 -1,-2z" fill="#007fff" id="svg_18" transform="translate(258,193)"/>
  <path d="m0,0c0.66,0.33 1.32,0.66 2,1c-2,3 -2,3 -4.5,3.88c-0.83,0.37 -1.65,0.74 -2.5,1.12c-0.27,0.81 -0.53,1.62 -0.8,2.46c-1.2,2.54 -1.2,2.54 -3.8,3.68c-1,0.22 -2,0.45 -3.03,0.67c-1,0.24 -2,0.47 -3.03,0.71c-0.77,0.16 -1.55,0.32 -2.34,0.48c-1,-1 -1,-1 -1.1,-3.29c0.01,-0.91 0.03,-1.83 0.04,-2.77c0.01,-0.92 0.02,-1.84 0.02,-2.79c0.02,-0.71 0.03,-1.42 0.04,-2.15c3.87,3.75 3.87,3.75 5,6c3.84,-1.35 6.65,-3.08 9.81,-5.62c0.79,-0.64 1.58,-1.27 2.4,-1.92c0.59,-0.48 1.18,-0.96 1.79,-1.46z" fill="#D39D1E" id="svg_19" transform="translate(293,238)"/>
  <path d="m0,0c0.66,0 1.32,0 2,0c-0.48,4.31 -1.75,6.17 -5,9c0.66,0 1.32,0 2,0c-1.15,2.47 -2.05,4.05 -4,6c-1.32,0 -2.64,0 -4,0c0,-0.66 0,-1.32 0,-2c-1.65,0.66 -3.3,1.32 -5,2c3.74,-3.98 7.78,-7.16 12.21,-10.35c0.59,-0.55 1.18,-1.09 1.79,-1.65c0,-0.99 0,-1.98 0,-3z" fill="#D19917" id="svg_20" transform="translate(309,223)"/>
  <path d="m0,0c2.44,-0.08 4.87,-0.14 7.31,-0.19c1.04,-0.04 1.04,-0.04 2.09,-0.07c5.08,-0.08 5.08,-0.08 7.46,1.46c2.79,4.39 3.38,7.94 3.27,13.11c-0.02,1.07 -0.04,2.14 -0.06,3.24c-0.02,0.81 -0.05,1.62 -0.07,2.45c-0.99,0.33 -1.98,0.66 -3,1c0.16,-0.52 0.33,-1.03 0.5,-1.56c1,-4.88 1.11,-8.29 -1.25,-12.75c-2.19,-2.62 -3.16,-3.5 -6.25,-4.69c-2.59,-0.24 -2.59,-0.24 -5.25,-0.12c-1.34,0.02 -1.34,0.02 -2.7,0.05c-0.68,0.02 -1.35,0.05 -2.05,0.07c0,-0.66 0,-1.32 0,-2z" fill="#007fff" id="svg_21" transform="translate(313,203)"/>
  <path d="m0,0c1.32,0.33 2.64,0.66 4,1c-0.99,1.48 -0.99,1.48 -2,3c-0.76,4.66 -0.39,8.2 1.69,12.44c2.38,2.63 3.93,3.62 7.31,4.56c0.33,3.3 0.66,6.6 1,10c-2.15,-3.23 -2.2,-4.28 -2,-8c-1.11,-0.09 -1.11,-0.09 -2.25,-0.19c-3.6,-1.06 -4.67,-2.76 -6.75,-5.81c-1.53,-3.07 -1.1,-6.27 -1.06,-9.62c0,-0.71 0.01,-1.42 0.01,-2.15c0.01,-1.74 0.03,-3.49 0.05,-5.23z" fill="#007fff" id="svg_22" transform="translate(167,208)"/>
  <path d="m0,0c0.33,1.32 0.66,2.64 1,4c0.66,0 1.32,0 2,0c0.56,1.94 0.56,1.94 1,4c-0.33,0.33 -0.66,0.66 -1,1c0,0.99 0,1.98 0,3c1.32,0.33 2.64,0.66 4,1c-6.62,-0.75 -6.62,-0.75 -10,-3c-0.46,-3.52 -0.41,-5.35 1.5,-8.37c0.5,-0.54 0.99,-1.08 1.5,-1.63z" fill="#FCE03C" id="svg_23" transform="translate(315,211)"/>
  <path d="m0,0c0.33,1.32 0.66,2.64 1,4c0.66,0 1.32,0 2,0c0.33,0.66 0.66,1.32 1,2c0.99,0 1.98,0 3,0c0,-1.65 0,-3.3 0,-5c0.33,0 0.66,0 1,0c0,3.3 0,6.6 0,10c-0.99,0.33 -1.98,0.66 -3,1c-0.33,0.99 -0.66,1.98 -1,3c-2.45,-5.12 -3.5,-9.34 -4,-15z" fill="#D79F19" id="svg_24" transform="translate(188,272)"/>
  <path d="m0,0c1.16,4.66 0.29,7.77 -0.94,12.25c-0.19,0.75 -0.39,1.49 -0.59,2.26c-0.48,1.83 -0.97,3.66 -1.47,5.49c-0.33,0 -0.66,0 -1,0c-0.33,-3.3 -0.66,-6.6 -1,-10c-0.66,0 -1.32,0 -2,0c-0.33,1.32 -0.66,2.64 -1,4c-0.63,-1.87 -0.63,-1.87 -1,-4c0.66,-0.66 1.32,-1.32 2,-2c1.32,0.33 2.64,0.66 4,1c0.99,-2.97 1.98,-5.94 3,-9z" fill="#D19B17" id="svg_25" transform="translate(321,230)"/>
  <path d="m0,0c0.33,0 0.66,0 1,0c1,4 2,8 3,12c0.22,0.69 0.43,1.38 0.66,2.09c0.44,2.46 0,4.25 -0.6,6.66c-0.19,0.8 -0.39,1.6 -0.59,2.42c-0.23,0.91 -0.23,0.91 -0.47,1.83c-0.33,0 -0.66,0 -1,0c-1.52,-8.42 -2.28,-16.45 -2,-25z" fill="#007fff" id="svg_26" transform="translate(187,272)"/>
  <path d="m0,0c0.99,0.66 1.98,1.32 3,2c-2.31,0 -4.62,0 -7,0c0,0.99 0,1.98 0,3c-1.32,0.33 -2.64,0.66 -4,1c0,-0.99 0,-1.98 0,-3c-3.46,1.49 -3.46,1.49 -7,3c0.97,-2.65 1.66,-3.8 4.12,-5.25c3.84,-1 6.91,-1.01 10.88,-0.75z" fill="#CF9A1A" id="svg_27" transform="translate(254,191)"/>
  <path d="m0,0c0.99,0.66 1.98,1.32 3,2c0.29,2.16 0.29,2.16 0.19,4.63c-0.03,0.81 -0.06,1.63 -0.08,2.47c-0.04,0.63 -0.07,1.25 -0.11,1.9c-0.66,0 -1.32,0 -2,0c0,1.65 0,3.3 0,5c0.66,0.33 1.32,0.66 2,1c0.33,-0.66 0.66,-1.32 1,-2c0.33,1.98 0.66,3.96 1,6c-2.31,-1.65 -4.62,-3.3 -7,-5c0.33,-0.78 0.66,-1.57 1,-2.37c1.27,-4.62 1.17,-8.87 1,-13.63z" fill="#007fff" id="svg_28" transform="translate(192,210)"/>
  <path d="m0,0c2,3 2.28,3.63 2.25,7c0.01,0.68 0.01,1.36 0.02,2.06c-0.27,1.94 -0.27,1.94 -2.27,4.94c-3.13,0.19 -3.13,0.19 -6,0c-0.33,-1.32 -0.66,-2.64 -1,-4c0.66,0 1.32,0 2,0c0,-1.65 0,-3.3 0,-5c0.33,0 0.66,0 1,0c0,2.31 0,4.62 0,7c1.32,0 2.64,0 4,0c0,-3.96 0,-7.92 0,-12z" fill="#D19F23" id="svg_29" transform="translate(307,287)"/>
  <path d="m0,0c0.66,0.33 1.32,0.66 2,1c-0.32,0.57 -0.65,1.14 -0.98,1.72c-2.05,4.59 -1.55,9.66 -0.02,14.34c0.33,0.64 0.66,1.28 1,1.94c-1.65,0.99 -3.3,1.98 -5,3c0.11,-2.92 0.24,-5.83 0.37,-8.75c0.04,-0.82 0.07,-1.65 0.1,-2.5c0.06,-1.2 0.06,-1.2 0.12,-2.42c0.03,-0.74 0.06,-1.47 0.09,-2.22c0.36,-2.36 1.16,-4.04 2.32,-6.11z" fill="#007fff" id="svg_30" transform="translate(308,207)"/>
  <path d="m0,0c2.31,0 4.62,0 7,0c-1.31,3.94 -2.92,6.23 -6,9c-2.09,-4.43 -2.09,-4.43 -1.63,-7.31c0.21,-0.56 0.42,-1.12 0.63,-1.69z" fill="#007fff" id="svg_31" transform="translate(233,220)"/>
  <path d="m0,0c4.02,2.07 6.19,3.81 8,8c0.57,4.51 0.31,6.47 -2,10.44c-0.66,0.84 -1.32,1.69 -2,2.56c-0.33,-0.99 -0.66,-1.98 -1,-3c0.66,0 1.32,0 2,0c0.17,-1.26 0.33,-2.52 0.5,-3.81c0.09,-0.71 0.19,-1.42 0.28,-2.15c0.27,-2.19 0.27,-2.19 0.22,-5.04c-1.32,0 -2.64,0 -4,0c0,-1.32 0,-2.64 0,-4c-0.66,-0.33 -1.32,-0.66 -2,-1c0,-0.66 0,-1.32 0,-2z" fill="#D09D25" id="svg_32" transform="translate(324,205)"/>
  <path d="m0,0c2.31,0 4.62,0 7,0c0.66,1.98 1.32,3.96 2,6c-0.99,0.33 -1.98,0.66 -3,1c0,-0.66 0,-1.32 0,-2c-2.64,-0.33 -5.28,-0.66 -8,-1c0.66,-0.33 1.32,-0.66 2,-1c0,-0.99 0,-1.98 0,-3z" fill="#DA9906" id="svg_33" transform="translate(250,193)"/>
  <path d="m0,0c3.91,1.13 6.21,2.09 9,5c2.1,0.71 2.1,0.71 4,1c0,-0.99 0,-1.98 0,-3c1.65,-0.66 3.3,-1.32 5,-2c-2.97,3.96 -2.97,3.96 -6,8c-3.11,-1.55 -5.52,-3 -8.25,-5.06c-0.71,-0.53 -1.41,-1.06 -2.14,-1.6c-0.53,-0.44 -1.06,-0.88 -1.61,-1.34c0,-0.33 0,-0.66 0,-1z" fill="#007fff" id="svg_34" transform="translate(208,239)"/>
  <path d="m0,0c4.42,1.35 6.34,3.26 9,7c-1.32,0 -2.64,0 -4,0c-0.66,0.66 -1.32,1.32 -2,2c-2.29,-3.44 -3,-4.72 -3,-9z" fill="#D49D19" id="svg_35" transform="translate(209,241)"/>
  <path d="m0,0c1.4,2.8 0.62,5.02 0.19,8.02c-0.21,2.21 0.03,3.91 0.81,5.98c1.32,0.33 2.64,0.66 4,1c0,1.32 0,2.64 0,4c-2.98,-1.03 -3.98,-1.97 -5.75,-4.62c-1.56,-4.22 -1.62,-6.91 -1.25,-11.38c0.66,-0.99 1.32,-1.98 2,-3z" fill="#CF9D29" id="svg_36" transform="translate(238,197)"/>
  <path d="m0,0c0.99,0 1.98,0 3,0c0.33,0.99 0.66,1.98 1,3c0.66,0.27 1.32,0.54 2,0.81c0.66,0.39 1.32,0.79 2,1.19c0.75,3.13 0.75,3.13 1,6c0.99,0.33 1.98,0.66 3,1c-1.32,0 -2.64,0 -4,0c-2.14,-2.37 -2.14,-2.37 -4.25,-5.44c-0.71,-1.01 -1.41,-2.02 -2.14,-3.06c-1.61,-2.5 -1.61,-2.5 -1.61,-3.5z" fill="#007fff" id="svg_37" transform="translate(270,235)"/>
  <path d="m0,0c2.96,2.81 5.44,5.18 7,9c-0.99,-0.33 -1.98,-0.66 -3,-1c0,-0.66 0,-1.32 0,-2c-1.32,0.33 -2.64,0.66 -4,1c0,-0.66 0,-1.32 0,-2c-0.99,0.33 -1.98,0.66 -3,1c-0.66,-1.32 -1.32,-2.64 -2,-4c2.48,0.5 2.48,0.5 5,1c0,-0.99 0,-1.98 0,-3z" fill="#D49B19" id="svg_38" transform="translate(267,232)"/>
  <path d="m0,0c0.66,0 1.32,0 2,0c-0.33,1.65 -0.66,3.3 -1,5c0.66,0.33 1.32,0.66 2,1c-0.99,0.66 -1.98,1.32 -3,2c-0.33,-0.33 -0.66,-0.66 -1,-1c0,2.97 0,5.94 0,9c-2.39,-2.39 -2.3,-3.04 -2.31,-6.31c0.08,-3.98 0.68,-6.56 3.31,-9.69z" fill="#D29E29" id="svg_39" transform="translate(310,207)"/>
  <path d="m0,0c0,0.99 0,1.98 0,3c-3.33,3 -3.33,3 -6,3c0.03,0.61 0.07,1.23 0.11,1.86c0.02,0.81 0.05,1.62 0.08,2.45c0.05,1.2 0.05,1.2 0.1,2.43c-0.35,2.74 -1.18,3.55 -3.29,5.26c0.23,-1.97 0.47,-3.94 0.73,-5.9c0.21,-1.61 0.35,-3.23 0.46,-4.85c1.24,-3.43 3.75,-4.46 6.81,-6.25c0.33,-0.33 0.66,-0.66 1,-1z" fill="#EAD3A5" id="svg_40" transform="translate(329,224)"/>
  <path d="m0,0c0.33,0 0.66,0 1,0c0,3.63 0,7.26 0,11c-1.65,0.66 -3.3,1.32 -5,2c0,-0.99 0,-1.98 0,-3c0.99,0 1.98,0 3,0c-0.66,-1.32 -1.32,-2.64 -2,-4c0.66,-0.66 1.32,-1.32 2,-2c0.64,-2.07 0.64,-2.07 1,-4z" fill="#D5A110" id="svg_41" transform="translate(326,216)"/>
  <path d="m0,0c0,1.65 0,3.3 0,5c-0.78,0.29 -1.57,0.58 -2.38,0.88c-2.72,0.97 -2.72,0.97 -4.62,3.12c0.5,-3.68 1.06,-5.65 4,-8c2,-1 2,-1 3,-1z" fill="#D69A06" id="svg_42" transform="translate(236,232)"/>
  <path d="m0,0c1,2 1,2 0.4,3.88c-2.79,5.79 -2.79,5.79 -6.15,7.62c-0.74,0.16 -1.49,0.33 -2.25,0.5c1.41,-3.04 3.09,-5.59 5.12,-8.25c0.81,-1.06 0.81,-1.06 1.64,-2.14c0.41,-0.53 0.82,-1.06 1.24,-1.61z" fill="#D5A534" id="svg_43" transform="translate(230,234)"/>
  <path d="m0,0c2,1 4,2 6,3c0,1.32 0,2.64 0,4c-1.98,-0.66 -3.96,-1.32 -6,-2c0,-1.65 0,-3.3 0,-5z" fill="#D99504" id="svg_44" transform="translate(261,228)"/>
  <path d="m0,0c4.95,0 9.9,0 15,0c0.33,0.99 0.66,1.98 1,3c-0.78,-0.17 -1.57,-0.33 -2.37,-0.5c-4.57,-0.63 -9.03,-0.58 -13.63,-0.5c0,-0.66 0,-1.32 0,-2z" fill="#007fff" id="svg_45" transform="matrix(1 0 0 1 313 203)"/>
  <path d="m0,0c1.8,2.76 2.01,3.89 1.63,7.25c-0.21,0.91 -0.42,1.81 -0.63,2.75c-1.32,-0.66 -2.64,-1.32 -4,-2c0.99,-2.64 1.98,-5.28 3,-8z" fill="#D59502" id="svg_46" transform="translate(260,201)"/>
  <path d="m0,0c5.63,-0.25 5.63,-0.25 9,2c-0.33,0.66 -0.66,1.32 -1,2c-2.56,0.63 -2.56,0.63 -5,1c-0.12,-0.64 -0.25,-1.28 -0.37,-1.94c-0.31,-1.02 -0.31,-1.02 -0.63,-2.06c-0.66,-0.33 -1.32,-0.66 -2,-1z" fill="#FCDC3B" id="svg_47" transform="translate(316,210)"/>
  <path d="m0,0c1.75,-0.05 3.5,-0.09 5.25,-0.13c0.97,-0.02 1.95,-0.04 2.95,-0.07c2.82,0.2 4.41,0.75 6.8,2.2c-0.99,1.48 -0.99,1.48 -2,3c-0.66,-0.47 -1.32,-0.95 -2,-1.44c-3.79,-1.97 -6.76,-2.2 -11,-2.56c0,-0.33 0,-0.66 0,-1z" fill="#007fff" id="svg_48" transform="translate(176,203)"/>
  <path d="m0,0c2.97,0.33 5.94,0.66 9,1c0,1.98 0,3.96 0,6c-1.5,-0.97 -3,-1.96 -4.5,-2.94c-0.84,-0.54 -1.67,-1.09 -2.53,-1.65c-0.65,-0.47 -1.3,-0.93 -1.97,-1.41c0,-0.33 0,-0.66 0,-1z" fill="#007fff" id="svg_49" transform="translate(197,231)"/>
  <path d="m0,0c0.66,0 1.32,0 2,0c0,0.66 0,1.32 0,2c1.65,-0.33 3.3,-0.66 5,-1c0.33,0.66 0.66,1.32 1,2c-0.99,0 -1.98,0 -3,0c0.33,1.32 0.66,2.64 1,4c-2.99,-1.1 -3.85,-1.68 -5.25,-4.62c-0.25,-0.79 -0.49,-1.57 -0.75,-2.38z" fill="#D19D1F" id="svg_50" transform="translate(169,221)"/>
  <path d="m0,0c0.66,0 1.32,0 2,0c-1.56,3.82 -4.04,6.19 -7,9c-0.66,-0.33 -1.32,-0.66 -2,-1c1.12,-1.34 2.24,-2.67 3.37,-4c0.94,-1.11 0.94,-1.11 1.9,-2.25c0.57,-0.58 1.14,-1.16 1.73,-1.75z" fill="#717171" id="svg_51" transform="translate(25,39)"/>
  <path d="m0,0c0.33,0 0.66,0 1,0c0.33,3.96 0.66,7.92 1,12c-0.66,-0.33 -1.32,-0.66 -2,-1c-1.27,-7.18 -1.27,-7.18 0,-11z" fill="#D3A942" id="svg_52" transform="translate(191,288)"/>
  <path d="m0,0c0.33,0 0.66,0 1,0c0.33,1.65 0.66,3.3 1,5c1.32,0 2.64,0 4,0c0,0.99 0,1.98 0,3c1.32,0.33 2.64,0.66 4,1c-6.62,-0.75 -6.62,-0.75 -10,-3c-0.19,-3.12 -0.19,-3.12 0,-6z" fill="#F0C729" id="svg_53" transform="translate(312,215)"/>
  <path d="m0,0c0.33,0 0.66,0 1,0c-0.12,1.42 -0.24,2.83 -0.37,4.25c-0.07,0.79 -0.14,1.58 -0.22,2.39c-0.43,2.45 -1.2,4.21 -2.41,6.36c-0.05,-1.42 -0.09,-2.83 -0.13,-4.25c-0.02,-0.79 -0.04,-1.58 -0.07,-2.39c0.22,-2.57 0.91,-4.15 2.2,-6.36z" fill="#D69D29" id="svg_54" transform="translate(313,261)"/>
  <path d="m0,0c0.33,0 0.66,0 1,0c0.13,0.68 0.27,1.35 0.4,2.05c0.18,0.89 0.36,1.78 0.54,2.7c0.17,0.88 0.35,1.76 0.52,2.67c0.46,2.21 0.97,4.4 1.54,6.58c-0.66,0 -1.32,0 -2,0c-2.28,-3.42 -2.22,-4.68 -2.13,-8.69c0.02,-0.99 0.04,-1.99 0.06,-3.01c0.02,-0.76 0.05,-1.52 0.07,-2.3z" fill="#007fff" id="svg_55" transform="translate(235,200)"/>
  <path d="m0,0c0.33,0.66 0.66,1.32 1,2c0.99,0.33 1.98,0.66 3,1c-2.64,1.65 -5.28,3.3 -8,5c1.12,-2.97 2.22,-5.33 4,-8z" fill="#007fff" id="svg_56" transform="translate(292,234)"/>
  <path d="m0,0c0.66,0 1.32,0 2,0c0,0.66 0,1.32 0,2c0.99,0.33 1.98,0.66 3,1c-1.98,2.97 -1.98,2.97 -4,6c-0.91,-3.07 -1.09,-5.8 -1,-9z" fill="#DEA50A" id="svg_57" transform="translate(313,229)"/>
  <path d="m0,0c1.68,0.29 3.34,0.62 5,1c-1.65,1.69 -3.31,3.35 -5,5c-0.33,0 -0.66,0 -1,0c-0.04,-1.67 -0.04,-3.33 0,-5c0.33,-0.33 0.66,-0.66 1,-1z" fill="#007fff" id="svg_58" transform="translate(300,228)"/>
  <path d="m0,0c2.48,0.49 2.48,0.49 5,1c-1,3 -1,3 -3.06,4.19c-0.64,0.27 -1.28,0.53 -1.94,0.81c0,-1.98 0,-3.96 0,-6z" fill="#007fff" id="svg_59" transform="translate(305,223)"/>
  <path d="m0,0c0.66,0 1.32,0 2,0c0.1,0.76 0.21,1.53 0.31,2.31c0.73,2.86 1.46,3.85 3.69,5.69c-2.97,-0.5 -2.97,-0.5 -6,-1c0,-2.31 0,-4.62 0,-7z" fill="#CD9B21" id="svg_60" transform="translate(189,222)"/>
  <path d="m0,0c0.33,0.66 0.66,1.32 1,2c-2.34,6.56 -2.34,6.56 -6,9c0.33,-1.32 0.66,-2.64 1,-4c0.66,0 1.32,0 2,0c0.14,-0.97 0.29,-1.94 0.44,-2.94c0.56,-3.06 0.56,-3.06 1.56,-4.06z" fill="#D5940E" id="svg_61" transform="translate(308,281)"/>
  <path d="m0,0c0.33,0 0.66,0 1,0c0.66,3.3 1.32,6.6 2,10c-0.99,0 -1.98,0 -3,0c0,-3.3 0,-6.6 0,-10z" fill="#007fff" id="svg_62" transform="translate(187,272)"/>
  <path d="m324,205c4.02,2.07 6.19,3.81 8,8c0.57,4.51 0.31,6.47 -2,10.44c-0.66,0.84 -1.32,1.69 -2,2.56c-0.33,-0.99 -0.66,-1.98 -1,-3c0.66,0 1.32,0 2,0c0.17,-1.26 0.33,-2.52 0.5,-3.81c0.09,-0.71 0.19,-1.42 0.28,-2.15c0.27,-2.19 0.27,-2.19 0.22,-5.04c-1.32,0 -2.64,0 -4,0c0,-1.32 0,-2.64 0,-4c-0.66,-0.33 -1.32,-0.66 -2,-1c0,-0.66 0,-1.32 0,-2z" fill="#D09D25" id="svg_63"/>
  <path d="m329,224c0,0.99 0,1.98 0,3c-3.33,3 -3.33,3 -6,3c0.03,0.61 0.07,1.23 0.11,1.86c0.02,0.81 0.05,1.62 0.08,2.45c0.05,1.2 0.05,1.2 0.1,2.43c-0.35,2.74 -1.18,3.55 -3.29,5.26c0.23,-1.97 0.47,-3.94 0.73,-5.9c0.21,-1.61 0.35,-3.23 0.46,-4.85c1.24,-3.43 3.75,-4.46 6.81,-6.25c0.33,-0.33 0.66,-0.66 1,-1z" fill="#007fff" id="svg_64"/>
 </g>
</svg>