<?xml version="1.0" encoding="UTF-8"?>
<svg version="1.1" xmlns="http://www.w3.org/2000/svg" width="512" height="512">
<path d="M0 0 C1.11867407 -0.00382555 2.23734814 -0.00765109 3.38992143 -0.01159257 C7.13395798 -0.02190179 10.87784059 -0.01793436 14.62188721 -0.01396179 C17.3076783 -0.01830926 19.99345814 -0.02342806 22.679245 -0.02944946 C29.21320246 -0.04218376 35.74711881 -0.04399194 42.28108659 -0.0416492 C47.58982339 -0.03986534 52.89854771 -0.04161711 58.20728302 -0.04587364 C59.34107155 -0.04676643 59.34107155 -0.04676643 60.4977649 -0.04767724 C62.03327797 -0.04888899 63.56879104 -0.05010313 65.10430411 -0.05131962 C79.49467971 -0.06218916 93.88503186 -0.06003477 108.27540877 -0.05393478 C121.44851418 -0.04875968 134.62154577 -0.06003769 147.79463658 -0.07903299 C161.3199981 -0.09838699 174.84532465 -0.1066721 188.37070012 -0.10290974 C195.96467473 -0.10099481 203.55858641 -0.10351409 211.15254974 -0.11762428 C217.61330371 -0.12950761 224.07395598 -0.130977 230.53471127 -0.11883412 C233.83234247 -0.11292536 237.12974787 -0.11351356 240.42737389 -0.12383652 C243.99724962 -0.13420966 247.56661782 -0.12627946 251.13647461 -0.11352539 C252.18519013 -0.12089968 253.23390565 -0.12827396 254.31440043 -0.13587171 C255.7433353 -0.12506189 255.7433353 -0.12506189 257.20113754 -0.1140337 C258.43770084 -0.11411622 258.43770084 -0.11411622 259.69924521 -0.11420041 C262.35459997 0.35647211 263.20651728 1.1248485 264.81427002 3.26069641 C265.89860348 7.16429685 266.30523539 9.27884337 264.470438 12.94814777 C260.40279011 16.489578 256.60828338 15.94888779 251.37808228 15.88647461 C249.76645248 15.89689143 249.76645248 15.89689143 248.1222645 15.90751868 C244.50931522 15.92483031 240.89741783 15.90644523 237.28448486 15.88838196 C234.69916264 15.89355811 232.11384404 15.90095602 229.52853394 15.91041565 C223.95403883 15.92745084 218.37978135 15.92643322 212.80527878 15.91341209 C204.73462257 15.89476288 196.6642125 15.905555 188.5935653 15.92388866 C175.48531415 15.95305087 162.37713913 15.96138952 149.26885986 15.95527649 C136.55986665 15.94942095 123.85089906 15.94833191 111.14190674 15.95722961 C110.36004483 15.95777219 109.57818292 15.95831476 108.77262823 15.95887377 C100.22968896 15.96504525 91.68675612 15.97379009 83.14382362 15.98622608 C82.3920139 15.98731857 81.64020417 15.98841105 80.86561234 15.98953665 C77.85923827 15.99395681 74.85286437 15.99843102 71.84649093 16.00326226 C63.05724288 16.01736045 54.2680809 16.0234266 45.47882433 16.01472638 C39.306587 16.00891382 33.13438982 16.01257736 26.96215439 16.01954651 C24.43463548 16.02063071 21.90711236 16.01827759 19.37960052 16.01220131 C15.92378011 16.00429363 12.46817679 16.00864816 9.01235962 16.01586914 C7.51932943 16.00785114 7.51932943 16.00785114 5.99613702 15.99967116 C-4.51362108 16.04881821 -13.83759084 17.46703835 -22.18572998 24.26069641 C-27.92483905 30.9958492 -30.48881819 37.36392921 -30.45988464 46.19763184 C-30.46512132 46.99114101 -30.470358 47.78465019 -30.47575337 48.6022051 C-30.49074168 51.25819542 -30.49145827 53.91399289 -30.49212646 56.57002258 C-30.49974885 58.47569605 -30.50817648 60.38136644 -30.51734924 62.28703308 C-30.53929606 67.46286914 -30.54809366 72.63864612 -30.55317569 77.81452346 C-30.5568197 81.05008567 -30.56306007 84.28563242 -30.57017708 87.52118874 C-30.59467431 98.81465458 -30.60772362 110.1080745 -30.61126709 121.40156555 C-30.61490033 131.9188074 -30.64477993 142.43575706 -30.68667167 152.95290965 C-30.72139944 161.98919553 -30.73681598 171.02538473 -30.73751312 180.06173688 C-30.73830523 185.45561919 -30.74701307 190.84920399 -30.77551079 196.2430172 C-30.80173314 201.3197819 -30.80387322 206.39600336 -30.78785515 211.47280502 C-30.78604386 213.33112462 -30.79270237 215.18947574 -30.80867386 217.04772758 C-30.90101576 228.49384703 -30.43195399 236.88015369 -22.87322998 246.07319641 C-11.87174763 255.02789135 -1.67550261 255.54628385 12.24786377 255.56929016 C13.61645057 255.58041248 14.98502754 255.59281062 16.35359192 255.60641479 C22.11831026 255.66138677 27.88308915 255.69265919 33.64801025 255.71699524 C37.19342914 255.73285272 40.73850023 255.76302649 44.28373909 255.80175972 C46.28176016 255.81904274 48.27990407 255.81946437 50.27799988 255.81964111 C52.09117455 255.83964928 52.09117455 255.83964928 53.940979 255.86006165 C55.00557846 255.86513229 56.07017792 255.87020294 57.16703796 255.87542725 C59.81427002 256.26069641 59.81427002 256.26069641 61.63056946 257.63729858 C63.25962793 259.87148692 63.61748958 261.50577019 63.81427002 264.26069641 C62.87810752 267.35723392 62.1100368 268.96492964 59.81427002 271.26069641 C56.62822157 272.36516001 53.59419763 272.39295251 50.24224854 272.40596008 C49.12330704 272.41233994 48.00436554 272.41871979 46.85151672 272.42529297 C45.64426437 272.42640579 44.43701202 272.42751862 43.19317627 272.42866516 C41.94229721 272.43199356 40.69141815 272.43532196 39.40263367 272.43875122 C36.75050307 272.44381705 34.09847488 272.44659209 31.4463501 272.44599915 C28.74934119 272.44591828 26.05250353 272.45279506 23.35552979 272.46650696 C19.44719324 272.48498212 15.53905236 272.48974323 11.63067627 272.49116516 C9.84712486 272.50194344 9.84712486 272.50194344 8.02754211 272.51293945 C-6.56090821 272.47381906 -18.072563 270.49696073 -30.18572998 262.26069641 C-30.82645261 273.73675054 -30.47537124 281.82734894 -22.87322998 291.07319641 C-11.91392922 299.99355749 -1.784546 300.56161336 12.08743286 300.51225281 C13.51627031 300.51439469 14.94510666 300.51742256 16.37394059 300.52125323 C20.27719988 300.52925169 24.18036265 300.52500647 28.0836215 300.51873446 C32.30170114 300.51418436 36.51976288 300.52124911 40.73783875 300.52703857 C48.03920013 300.53565506 55.34053728 300.53748379 62.64190292 300.5350914 C73.20270743 300.53199025 83.76345848 300.54364398 94.32424952 300.5596412 C111.46577501 300.58557828 128.60730054 300.60561186 145.74884033 300.61909485 C147.28642709 300.6203104 147.28642709 300.6203104 148.85507621 300.62155052 C163.42011011 300.63278558 177.98514018 300.63805663 192.55017783 300.64093764 C193.57705481 300.64114163 194.6039318 300.64134562 195.66192627 300.64155579 C197.20036321 300.64185569 197.20036321 300.64185569 198.76987968 300.64216165 C215.8560322 300.64589098 232.9421265 300.66494753 250.02824986 300.69665015 C260.56690088 300.715586 271.10540279 300.72151325 281.64406617 300.71083297 C288.85741253 300.70452737 296.07065164 300.71251605 303.28397445 300.73188709 C307.44857472 300.74259746 311.61291476 300.74667264 315.7775135 300.7334156 C319.58690508 300.72141043 323.39580746 300.72764177 327.20515622 300.74860759 C328.58580349 300.75292827 329.96649172 300.75043175 331.34711049 300.74056642 C333.21871505 300.72815948 335.09044069 300.74259104 336.96201897 300.75847435 C338.00310747 300.75890909 339.04419597 300.75934382 340.11683261 300.75979173 C343.54121241 301.39568707 344.7251118 302.51690385 346.81427002 305.26069641 C347.31427002 308.76069641 347.31427002 308.76069641 346.81427002 312.26069641 C344.7086257 315.04012839 343.52551482 316.13115194 340.06142569 316.76209307 C338.99408146 316.76274248 337.92673724 316.76339189 336.82704926 316.76406097 C335.59336341 316.77449196 334.35967757 316.78492295 333.08860731 316.79567003 C331.71733335 316.78702145 330.34606174 316.77799481 328.97479248 316.76863098 C327.51970689 316.77323853 326.06462594 316.77959046 324.60955477 316.78753996 C320.60547626 316.80427836 316.60177782 316.79596648 312.59769773 316.78359509 C308.28117992 316.77456461 303.96472859 316.78850478 299.64822388 316.79951477 C291.18772781 316.81732966 282.72737344 316.81344577 274.26687175 316.80186421 C267.38776695 316.79283704 260.50870192 316.7916028 253.6295929 316.79595947 C252.65112165 316.7965724 251.67265041 316.79718534 250.66452852 316.79781684 C248.67678542 316.79909574 246.68904233 316.8003926 244.70129925 316.80170721 C226.04578697 316.81312294 207.39035321 316.79998625 188.7348538 316.77850574 C172.73817446 316.76065624 156.7416113 316.76371922 140.74493408 316.78218079 C122.16937551 316.80360859 103.59388596 316.81200063 85.01831675 316.79973173 C83.03536893 316.79845756 81.0524211 316.79720007 79.06947327 316.79595947 C77.60603346 316.79503382 77.60603346 316.79503382 76.11302921 316.79408947 C69.24871137 316.79064062 62.38443739 316.79645535 55.52012634 316.80587769 C47.14473781 316.81712125 38.76949914 316.81400911 30.39412767 316.79275471 C26.12326745 316.78227249 21.85265668 316.77807361 17.58179855 316.79135132 C13.66566144 316.80334147 9.75000304 316.79660468 5.83390886 316.77544111 C4.42333104 316.77100261 3.01271211 316.77317882 1.60216111 316.78294426 C-12.52536952 316.87318439 -23.51404262 313.73540146 -34.18572998 304.26069641 C-41.37311043 296.84234155 -47.29423672 286.53748952 -47.31995106 275.9885931 C-47.3244089 275.13746407 -47.32886675 274.28633505 -47.33345968 273.40941423 C-47.33327531 272.47917753 -47.33309095 271.54894083 -47.332901 270.59051514 C-47.33657769 269.59847189 -47.34025438 268.60642863 -47.34404248 267.58432347 C-47.35508106 264.25044973 -47.35892349 260.91660717 -47.36273193 257.5827179 C-47.3689965 255.19606426 -47.3756433 252.8094116 -47.38264465 250.42276001 C-47.40187262 243.25338504 -47.41247353 236.08400951 -47.42137244 228.91461596 C-47.42575891 225.53544355 -47.43112484 222.1562727 -47.43636131 218.77710152 C-47.45337275 207.53845641 -47.46786541 196.29981227 -47.47511005 185.06115627 C-47.47701984 182.14581743 -47.47894019 179.23047859 -47.480896 176.31513977 C-47.48137974 175.59057719 -47.48186348 174.8660146 -47.48236188 174.11949558 C-47.49065655 162.39038666 -47.51598428 150.66137992 -47.54847667 138.93231558 C-47.58158979 126.88055154 -47.5995627 114.82883933 -47.60275429 102.77702957 C-47.60491561 96.01437898 -47.61360834 89.25187732 -47.63921547 82.48927116 C-47.6625152 76.12398865 -47.66672151 69.75897371 -47.65645409 63.39365959 C-47.65595907 61.06167205 -47.66226934 58.72967126 -47.67601013 56.39772415 C-47.69376657 53.20475227 -47.68660375 50.01273677 -47.67347717 46.81976318 C-47.68444642 45.90514153 -47.69541566 44.99051988 -47.70671731 44.04818243 C-47.59454115 32.68292232 -42.81937829 21.42418881 -35.15057373 13.03413391 C-24.84267166 3.32616265 -13.84793372 -0.05033294 0 0 Z " fill="#000000" transform="translate(47.18572998046875,97.73930358886719)"/>
<path d="M0 0 C1.20820908 -0.0112793 2.41641815 -0.02255859 3.66123962 -0.03417969 C4.9972253 -0.02640239 6.3332086 -0.0182097 7.66918945 -0.00964355 C9.07886986 -0.01506512 10.4885446 -0.02218798 11.89820862 -0.03088379 C15.72730886 -0.04912973 19.55597822 -0.04204111 23.38508606 -0.02936745 C27.40069732 -0.01923034 31.41627203 -0.02863657 35.43188477 -0.03491211 C42.18406779 -0.04219318 48.93607596 -0.03259587 55.68823242 -0.0135498 C63.47033079 0.00814946 71.25200881 0.00122035 79.03409672 -0.02085543 C85.72903798 -0.03908089 92.42385351 -0.04153093 99.11881161 -0.03110075 C103.11096501 -0.02489578 107.10292184 -0.02394539 111.09506226 -0.0372467 C114.85778597 -0.04890649 118.61997596 -0.04059761 122.38264275 -0.01766968 C124.4032457 -0.00995785 126.42389441 -0.02165665 128.44447327 -0.03417969 C141.71970547 0.08748039 152.13328592 3.63040791 162.0949707 12.50793457 C171.52891219 22.55560832 175.40679843 33.20335632 175.36239624 46.80462646 C175.36692735 47.82781786 175.37145847 48.85100925 175.37612689 49.90520644 C175.38876576 53.32653961 175.38715082 56.74771348 175.38549805 60.16906738 C175.39148362 62.62512924 175.39828924 65.08118921 175.40585327 67.5372467 C175.42168369 73.5124133 175.42796156 79.48751751 175.42907803 85.46269926 C175.43002989 90.32228361 175.43414705 95.181855 175.44047928 100.04143524 C175.45808453 113.83408212 175.46731934 127.62669794 175.46581833 141.41935614 C175.46573842 142.16224425 175.46565851 142.90513236 175.46557617 143.67053223 C175.46549441 144.41433261 175.46541265 145.15813299 175.46532841 145.92447278 C175.46451585 157.97348887 175.48364788 170.02237986 175.51185291 182.07135978 C175.54061771 194.45770933 175.55439121 206.84399794 175.55266535 219.23038173 C175.55200266 226.17853631 175.55744162 233.12655974 175.57902145 240.07468414 C175.59919457 246.61153611 175.59852286 253.14815908 175.58398819 259.68504143 C175.58189991 262.0799163 175.58660202 264.47480852 175.59870911 266.8696537 C175.61420442 270.14786121 175.60482426 273.4251202 175.58944702 276.70330811 C175.59973415 277.64312003 175.61002127 278.58293196 175.62062013 279.55122304 C175.50967972 290.30943398 171.97252007 298.58904532 164.52856445 306.27746582 C156.77308465 313.38561826 149.52204214 316.72225917 138.84619141 316.81433105 C138.15909088 316.82265457 137.47199036 316.83097809 136.7640686 316.83955383 C134.51623722 316.8634494 132.26869643 316.87239657 130.02075195 316.87902832 C128.44850076 316.88800395 126.87625039 316.89712596 125.30400085 316.90638733 C122.02002898 316.92281965 118.73615845 316.93056799 115.45214844 316.93347168 C111.24521322 316.93887722 107.03922827 316.97666964 102.83256245 317.02221584 C99.59061685 317.05194315 96.34890257 317.05919413 93.1068325 317.06019783 C91.5554585 317.06440186 90.00408391 317.07684371 88.45284462 317.09771538 C86.28636635 317.12456834 84.12212596 317.1198278 81.95556641 317.1072998 C80.10859917 317.11490578 80.10859917 317.11490578 78.22431946 317.12266541 C75.0949707 316.50793457 75.0949707 316.50793457 72.66227722 314.19703674 C71.0949707 311.50793457 71.0949707 311.50793457 71.1574707 307.88293457 C72.38330266 303.46993952 72.38330266 303.46993952 75.0949707 301.50793457 C77.79362488 301.12266541 77.79362488 301.12266541 81.09179688 301.1072998 C82.32705612 301.09396103 83.56231537 301.08062225 84.83500671 301.06687927 C86.18598429 301.06674399 87.53696187 301.06662748 88.88793945 301.06652832 C90.27697642 301.05475129 91.66600076 301.04138626 93.05500793 301.02650452 C96.71634948 300.99028457 100.37757925 300.97011582 104.0390625 300.95495605 C109.88130091 300.9301604 115.72329166 300.89011322 121.5653019 300.8330555 C123.59699545 300.81685481 125.62845215 300.81295945 127.66020203 300.81004333 C136.92726363 300.73458492 144.56361769 300.49878356 152.0949707 294.50793457 C155.9240626 290.25338802 158.36875856 286.76823583 158.2902832 280.96105957 C158.28383789 280.11672363 158.27739258 279.2723877 158.27075195 278.40246582 C158.25399414 277.52977051 158.23723633 276.6570752 158.2199707 275.75793457 C158.20643555 274.42568848 158.20643555 274.42568848 158.19262695 273.06652832 C158.16911648 270.88005399 158.13625569 268.69413363 158.0949707 266.50793457 C157.0018457 267.12668457 155.9087207 267.74543457 154.7824707 268.38293457 C145.37415667 273.03467448 135.02357609 272.79709028 124.74624634 272.76190186 C123.32138325 272.76421051 121.89652136 272.76738973 120.47166193 272.77135634 C116.58399357 272.77965683 112.69642421 272.77560089 108.80875564 272.76938391 C104.60567179 272.76484112 100.40260445 272.77185204 96.19952393 272.77734375 C87.97832566 272.78621856 79.757164 272.78432468 71.53596433 272.77851847 C64.85577427 272.77399629 58.17559444 272.77339147 51.49540329 272.7755661 C50.0677179 272.7760258 50.0677179 272.7760258 48.61119037 272.77649479 C46.6775479 272.77713425 44.74390543 272.77778267 42.81026296 272.77843997 C24.6976587 272.78413718 6.58507472 272.77759397 -11.52752621 272.76683924 C-27.07150222 272.75789563 -42.61544836 272.75946361 -58.15942383 272.76867676 C-76.21782886 272.77937525 -94.27621617 272.78359701 -112.33462393 272.77745223 C-114.25920144 272.77681513 -116.18377896 272.77618639 -118.10835648 272.7755661 C-119.52871474 272.77510327 -119.52871474 272.77510327 -120.9777671 272.7746311 C-127.65358221 272.77290354 -134.32938607 272.77582039 -141.00519943 272.78052521 C-149.1350059 272.78612898 -157.26477373 272.78462785 -165.39457576 272.77396372 C-169.54303913 272.76870155 -173.69143805 272.76665967 -177.83990097 272.77326202 C-181.6356031 272.77921177 -185.43118087 272.77596259 -189.22687168 272.76530692 C-191.25369935 272.76200689 -193.28053562 272.76855234 -195.30735433 272.77542138 C-196.50881396 272.77020589 -197.7102736 272.76499039 -198.9481411 272.75961685 C-200.50383452 272.75912979 -200.50383452 272.75912979 -202.09095609 272.7586329 C-206.20440486 272.39217664 -208.97494278 271.43802108 -211.9050293 268.50793457 C-212.59492916 261.37896932 -212.59492916 261.37896932 -210.24331164 258.40992892 C-207.29506246 256.01177829 -205.79955277 256.00727973 -202.03157425 256.00571251 C-200.82328878 255.99549832 -199.6150033 255.98528413 -198.37010312 255.97476041 C-197.02751511 255.98362527 -195.68492947 255.99285525 -194.34234619 256.00241089 C-192.91740823 255.99796901 -191.49247484 255.99176796 -190.06755137 255.98395598 C-186.14696109 255.96753354 -182.22675523 255.97601549 -178.30616474 255.98844719 C-174.07970205 255.99748948 -169.85330999 255.98348955 -165.62686157 255.97218323 C-158.30082303 255.95566523 -150.97489365 255.95355235 -143.64884186 255.96094894 C-133.0478579 255.97145628 -122.44700771 255.95808573 -111.84604153 255.93848439 C-94.63588598 255.90712751 -77.42575865 255.89213746 -60.21557617 255.88879395 C-59.18518395 255.88858996 -58.15479173 255.88838597 -57.0931755 255.8881758 C-56.06150793 255.88797243 -55.02984035 255.88776906 -53.96691012 255.88755953 C-39.34992474 255.88464132 -24.73294807 255.87784233 -10.1159668 255.86633301 C-9.08804045 255.86552771 -8.0601141 255.86472242 -7.00103846 255.86389272 C10.13916484 255.85013677 27.27935259 255.82834534 44.4195416 255.80246317 C54.99306615 255.7870174 65.56653985 255.77980895 76.14007547 255.7832581 C83.38664767 255.78529866 90.63319459 255.78063573 97.87976024 255.77071474 C102.06095122 255.76528297 106.24207675 255.76320619 110.42326736 255.76988792 C114.25271132 255.775977 118.0820358 255.77290646 121.91146985 255.76265104 C123.29506274 255.76058171 124.67866575 255.76188285 126.06225094 255.76694064 C139.9777213 255.81768754 139.9777213 255.81768754 152.0949707 249.50793457 C157.15215682 243.88883889 158.39271829 239.92319191 158.36912537 232.42550659 C158.37436204 231.60426697 158.37959872 230.78302736 158.38499409 229.93690169 C158.40001291 227.1810706 158.40069966 224.42542489 158.40136719 221.66955566 C158.4089876 219.69506516 158.41741489 217.72057764 158.42658997 215.74609375 C158.44855809 210.37805607 158.4573374 205.01007537 158.46241641 199.64199781 C158.46605834 196.28700681 158.47229766 192.93203075 158.4794178 189.57704544 C158.50392379 177.8686177 158.51696594 166.1602343 158.52050781 154.45178223 C158.52414028 143.54546022 158.55401213 132.63942011 158.5959124 121.73318422 C158.63063654 112.3657114 158.64605665 102.99833186 158.64675385 93.63079512 C158.64754616 88.0379291 158.65626372 82.44534993 158.68475151 76.85255051 C158.7109671 71.58784739 158.71311762 66.32366816 158.69709587 61.05892944 C158.69528396 59.13127117 158.70194867 57.20358254 158.71791458 55.27598953 C158.80843893 43.63269771 158.47191617 35.04746284 150.7824707 25.69543457 C140.04387294 16.95471546 130.14039405 16.20693967 116.53881836 16.25256348 C115.20394681 16.24980745 113.86907691 16.24612386 112.53421021 16.24159241 C109.68054608 16.23353698 106.82696002 16.23129741 103.97328568 16.23353958 C99.45985855 16.23639089 94.94658559 16.22195662 90.43319702 16.20455933 C77.60644791 16.15769464 64.77971193 16.13357295 51.95288086 16.1270752 C44.85287064 16.1233269 37.75303752 16.10532657 30.65310323 16.07198083 C26.16653998 16.05176823 21.68043336 16.04939407 17.19384313 16.06026101 C13.75404421 16.06347623 10.31450378 16.04078915 6.87475586 16.02209473 C5.01234253 16.03435341 5.01234253 16.03435341 3.11230469 16.04685974 C1.97693268 16.03583725 0.84156067 16.02481476 -0.32821655 16.01345825 C-1.31445196 16.01236872 -2.30068737 16.01127918 -3.3168087 16.01015663 C-6.66098106 15.3612486 -7.84906469 14.1802558 -9.9050293 11.50793457 C-10.4050293 8.00793457 -10.4050293 8.00793457 -9.9050293 4.50793457 C-6.92520135 0.58725589 -4.8352578 0.00694478 0 0 Z " fill="#000000" transform="translate(336.905029296875,97.4920654296875)"/>
<path d="M0 0 C3.38109423 2.27771957 6.055476 5.14785026 8.84765625 8.1015625 C9.66318466 8.93078217 10.47871307 9.76000183 11.31895447 10.61434937 C13.91963013 13.26632927 16.49138591 15.9443795 19.0625 18.625 C21.64296177 21.27801843 24.2290409 23.92543942 26.8167572 26.57138062 C28.42286829 28.21769189 30.02372328 29.86915289 31.61842346 31.52651978 C35.43558419 35.47827758 39.25489385 39.21373893 43.57981873 42.60971069 C45.29376899 44.28758575 46.13458661 45.76589892 47 48 C46.67868874 54.10491402 46.67868874 54.10491402 44.71362305 56.6965332 C42.56663582 58.32963832 41.44305101 58.34985215 38.76953125 58.29296875 C37.96708984 58.28330078 37.16464844 58.27363281 36.33789062 58.26367188 C35.50451172 58.23853516 34.67113281 58.21339844 33.8125 58.1875 C32.96751953 58.17396484 32.12253906 58.16042969 31.25195312 58.14648438 C29.16769616 58.11115799 27.08376723 58.05735139 25 58 C25.0314209 59.55895996 25.0314209 59.55895996 25.06347656 61.14941406 C25.13595674 65.01076442 25.18182831 68.87205483 25.21972656 72.73388672 C25.23982393 74.40423702 25.26710683 76.07451713 25.30175781 77.74462891 C25.35036119 80.1476372 25.37298656 82.54971434 25.390625 84.953125 C25.41127014 85.69806213 25.43191528 86.44299927 25.45318604 87.21051025 C25.4546201 90.53513918 25.36502772 92.53163412 23.28863525 95.19584656 C20.5791858 97.33173193 19.33696206 97.50957057 15.92773438 97.53344727 C14.91988892 97.5492836 13.91204346 97.56511993 12.87365723 97.58143616 C11.79128784 97.57647629 10.70891846 97.57151642 9.59375 97.56640625 C8.47689819 97.57260483 7.36004639 97.57880341 6.20935059 97.58518982 C3.84904858 97.59229084 1.48869652 97.58910914 -0.87158203 97.57641602 C-4.48693786 97.5625501 -8.09970657 97.59662088 -11.71484375 97.63476562 C-14.00781313 97.63571679 -16.30078577 97.63385814 -18.59375 97.62890625 C-20.21730408 97.64879356 -20.21730408 97.64879356 -21.87365723 97.66908264 C-29.24042876 97.57747279 -29.24042876 97.57747279 -32.68847656 94.95605469 C-34.33093115 91.25411126 -34.50486013 88.04656424 -34.390625 84.07421875 C-34.38496521 83.32662796 -34.37930542 82.57903717 -34.37347412 81.80879211 C-34.35118468 79.43436089 -34.30100656 77.06147062 -34.25 74.6875 C-34.22992519 73.07228751 -34.21167613 71.45705123 -34.1953125 69.84179688 C-34.15134486 65.89394267 -34.08237261 61.94723208 -34 58 C-35.89685547 58.05220703 -35.89685547 58.05220703 -37.83203125 58.10546875 C-39.49217423 58.13360677 -41.15233156 58.16090691 -42.8125 58.1875 C-43.64587891 58.21263672 -44.47925781 58.23777344 -45.33789062 58.26367188 C-46.54155273 58.27817383 -46.54155273 58.27817383 -47.76953125 58.29296875 C-48.87711792 58.31653442 -48.87711792 58.31653442 -50.00708008 58.34057617 C-52.56769245 57.9029853 -53.41069689 57.01400206 -55 55 C-56.38690096 50.94598182 -55.84474711 48.79085297 -54 45 C-52.10253906 42.73504639 -52.10253906 42.73504639 -49.765625 40.40917969 C-48.89131836 39.53187195 -48.01701172 38.65456421 -47.11621094 37.75067139 C-46.1610398 36.80750374 -45.20563045 35.86457727 -44.25 34.921875 C-43.27057567 33.9455106 -42.29174305 32.96855232 -41.31347656 31.99102783 C-39.26689741 29.94904085 -37.21551963 27.91205065 -35.16015625 25.87890625 C-32.52362576 23.27073213 -29.89591915 20.65388948 -27.27130127 18.03373337 C-25.25239137 16.01897546 -23.23066596 14.0070645 -21.20788574 11.99619293 C-20.23776904 11.03177748 -19.26812186 10.06688949 -18.2989502 9.10152435 C-16.94670138 7.75613564 -15.59062931 6.41459295 -14.234375 5.07324219 C-13.46319336 4.30888855 -12.69201172 3.54453491 -11.89746094 2.75701904 C-8.37242714 -0.50710692 -4.62820963 -1.09024857 0 0 Z M-7.13305664 21.01953125 C-8.04949951 21.94121094 -8.96594238 22.86289063 -9.91015625 23.8125 C-10.39705429 24.30081299 -10.88395233 24.78912598 -11.38560486 25.29223633 C-12.94692138 26.85917005 -14.50473358 28.42953765 -16.0625 30 C-17.11761028 31.06012306 -18.17294587 32.12002194 -19.22851562 33.1796875 C-21.82163407 35.78385775 -24.41161959 38.39111945 -27 41 C-25.1149756 43.15279873 -25.1149756 43.15279873 -22.4375 44 C-20 45 -20 45 -19 47 C-18.84339117 49.62380313 -18.7417092 52.22524852 -18.68359375 54.8515625 C-18.66281265 55.62559418 -18.64203156 56.39962585 -18.62062073 57.19711304 C-18.55516552 59.67298392 -18.49625913 62.14896202 -18.4375 64.625 C-18.39431093 66.30209448 -18.35069652 67.97917807 -18.30664062 69.65625 C-18.19868658 73.77072498 -18.09958386 77.88527977 -18 82 C-9.09 82 -0.18 82 9 82 C9.03738281 79.59203125 9.07476562 77.1840625 9.11328125 74.703125 C9.1595164 72.36644499 9.21074264 70.02992391 9.26245117 67.69335938 C9.29566835 66.07171314 9.32371035 64.44995219 9.34643555 62.828125 C9.38004155 60.49429523 9.4323576 58.16151365 9.48828125 55.828125 C9.49467117 55.10506165 9.5010611 54.38199829 9.50764465 53.63702393 C9.62776063 49.50816314 9.98362088 46.92950236 13 44 C15.6875 42.75 15.6875 42.75 18 42 C13.47783954 36.58052896 8.69081573 31.53850008 3.6875 26.5625 C2.95982422 25.83095703 2.23214844 25.09941406 1.48242188 24.34570312 C0.79083984 23.65541016 0.09925781 22.96511719 -0.61328125 22.25390625 C-1.24016846 21.62814697 -1.86705566 21.0023877 -2.51293945 20.35766602 C-4.85914107 18.21561591 -4.6904345 18.70691017 -7.13305664 21.01953125 Z " fill="#000000" transform="translate(95,185)"/>
<path d="M0 0 C3.22339166 0.89538657 4.46776958 1.28856885 6.375 3.9375 C7.7058911 6.59928221 7.48768993 8.62489396 7.47265625 11.6015625 C7.47015869 12.6117041 7.46766113 13.6218457 7.46508789 14.66259766 C7.45598389 15.94956543 7.44687988 17.2365332 7.4375 18.5625 C7.416875 22.64625 7.39625 26.73 7.375 30.9375 C16.945 30.9375 26.515 30.9375 36.375 30.9375 C36.17751082 22.23114697 36.17751082 22.23114697 35.92456055 13.52636719 C35.90582886 11.89683105 35.90582886 11.89683105 35.88671875 10.234375 C35.86053467 9.12416992 35.83435059 8.01396484 35.80737305 6.87011719 C36.375 3.9375 36.375 3.9375 38.67895508 1.54003906 C41.375 -0.0625 41.375 -0.0625 45 0 C49.51785714 1.25496032 49.51785714 1.25496032 51.375 3.9375 C52.4902571 7.2832713 52.51552834 9.82299078 52.53613281 13.34912109 C52.54358017 14.31796486 52.54358017 14.31796486 52.55117798 15.30638123 C52.56577225 17.44124419 52.57259685 19.57603286 52.578125 21.7109375 C52.58387854 23.19682822 52.58963625 24.68271893 52.59539795 26.16860962 C52.60590003 29.28395941 52.61174793 32.39928344 52.61523438 35.51464844 C52.62071867 39.50162649 52.64474832 43.48826295 52.67320633 47.4751339 C52.69185283 50.5446776 52.69703936 53.61413934 52.69857025 56.68373489 C52.70159258 58.15331516 52.709607 59.62289412 52.72275543 61.09241867 C52.73985944 63.15090503 52.73792575 65.20856076 52.73144531 67.26708984 C52.73691376 69.02223404 52.73691376 69.02223404 52.74249268 70.81283569 C52.3315982 74.30653061 51.48127141 76.14456543 49.375 78.9375 C46.375 80.9375 46.375 80.9375 42.875 80.75 C38.27450954 79.682029 38.27450954 79.682029 36.375 76.9375 C36.03442383 73.84301758 36.03442383 73.84301758 36.08203125 70.08203125 C36.08627609 69.42039474 36.09052094 68.75875824 36.09489441 68.07707214 C36.11166307 65.9676309 36.14930901 63.85915154 36.1875 61.75 C36.20254932 60.31837319 36.2162373 58.88673138 36.22851562 57.45507812 C36.25900716 53.94855173 36.31772341 50.44410006 36.375 46.9375 C26.805 46.9375 17.235 46.9375 7.375 46.9375 C7.4539971 55.97228922 7.4539971 55.97228922 7.55517578 65.00683594 C7.5601709 66.13379883 7.56516602 67.26076172 7.5703125 68.421875 C7.58078613 69.57397461 7.59125977 70.72607422 7.60205078 71.91308594 C7.38042032 74.86529902 6.97652712 76.48406631 5.375 78.9375 C2.67912197 81.03429403 1.282056 80.93260821 -2.1875 80.75 C-6.7179831 79.67915854 -6.7179831 79.67915854 -8.625 76.9375 C-9.01940918 73.83229065 -9.01940918 73.83229065 -9.04492188 69.95922852 C-9.05339142 69.25320496 -9.06186096 68.5471814 -9.07058716 67.81976318 C-9.09399258 65.4851278 -9.09497853 63.1511501 -9.09375 60.81640625 C-9.10084957 59.19359574 -9.10854826 57.57078774 -9.11682129 55.94798279 C-9.13027426 52.54589868 -9.13183132 49.14404664 -9.12597656 45.74194336 C-9.12008007 41.38240035 -9.15066482 37.02397087 -9.19109344 32.66464329 C-9.21694534 29.31286115 -9.21985019 25.961348 -9.21620178 22.6094799 C-9.21789546 21.0023004 -9.22756192 19.3951088 -9.24534607 17.78802681 C-9.26748811 15.53964909 -9.25786175 13.29353608 -9.24023438 11.04516602 C-9.24228882 9.76625992 -9.24434326 8.48735382 -9.24645996 7.16969299 C-8.625 3.9375 -8.625 3.9375 -6.31311035 1.48936462 C-3.625 -0.0625 -3.625 -0.0625 0 0 Z " fill="#000000" transform="translate(251.625,193.0625)"/>
<path d="M0 0 C5.13605854 3.74867958 5.13605854 3.74867958 6.49609375 6.46875 C6.77467756 9.67246381 6.78516704 11.83959049 5.43359375 14.78125 C2.40673521 17.41754615 0.50887739 17.53244498 -3.50390625 17.46875 C-6.07579284 16.35072327 -8.48493826 15.03581165 -10.9453125 13.69140625 C-15.76105751 11.39014184 -20.3041115 11.05628848 -25.50390625 12.03125 C-27.83759602 13.38554117 -27.83759602 13.38554117 -28.31640625 16.59375 C-28.40921875 18.016875 -28.40921875 18.016875 -28.50390625 19.46875 C-23.80710226 21.89904228 -19.15831907 24.04224773 -14.21142578 25.90234375 C-5.02990451 29.39688132 2.21067292 33.19216503 7.55859375 41.78125 C9.64093955 49.97181014 9.30861644 56.80403288 5.10546875 64.2421875 C0.56775608 70.52009095 -5.98946785 73.99029952 -13.50390625 75.46875 C-23.46901045 76.70107586 -33.86180114 74.43307561 -42.06640625 68.53125 C-44.96171935 66.07759483 -47.63066377 63.80800833 -49.50390625 60.46875 C-49.44361781 56.97202038 -49.20167802 54.5704949 -47.31640625 51.59375 C-44.66191233 49.94613308 -42.62063138 49.59341901 -39.50390625 49.46875 C-37.12890625 50.59375 -37.12890625 50.59375 -34.50390625 52.46875 C-33.15663535 53.35433087 -31.80192112 54.22865367 -30.44140625 55.09375 C-29.46494141 55.73183594 -29.46494141 55.73183594 -28.46875 56.3828125 C-24.28734652 58.69380687 -20.22837588 58.80029173 -15.50390625 58.46875 C-12.63084653 57.06414303 -10.75879626 55.72364001 -8.50390625 53.46875 C-7.66848771 51.10117673 -7.66848771 51.10117673 -8.50390625 48.46875 C-14.28558872 43.69486618 -21.60909437 41.22708192 -28.52539062 38.59570312 C-35.12988834 35.95710234 -40.18557892 32.60970961 -44.44140625 26.84375 C-46.46399917 20.41904308 -46.72756283 13.33858372 -43.94140625 7.09375 C-40.49385277 1.31579452 -36.05869796 -2.2571641 -29.69140625 -4.40625 C-19.22897196 -7.04158413 -9.30015584 -5.6874588 0 0 Z " fill="#000000" transform="translate(221.50390625,198.53125)"/>
<path d="M0 0 C1.31871094 -0.01611328 2.63742187 -0.03222656 3.99609375 -0.04882812 C5.26582031 -0.04947266 6.53554688 -0.05011719 7.84375 -0.05078125 C9.57915039 -0.05525269 9.57915039 -0.05525269 11.34960938 -0.05981445 C14.82952391 0.35144327 16.70957082 1.22951698 19.5 3.3125 C21.04586876 6.40423752 20.79359521 8.90679552 20.5 12.3125 C19.18359375 14.5234375 19.18359375 14.5234375 16.5 16.3125 C12.73960878 16.80927858 9.03449539 16.68736914 5.25 16.5625 C4.21875 16.54445312 3.1875 16.52640625 2.125 16.5078125 C-0.4170645 16.46073723 -2.95865067 16.38899546 -5.5 16.3125 C-5.5 21.5925 -5.5 26.8725 -5.5 32.3125 C-4.18644531 32.25449219 -2.87289063 32.19648438 -1.51953125 32.13671875 C0.21611023 32.08980952 1.95179023 32.04431061 3.6875 32 C4.55181641 31.95810547 5.41613281 31.91621094 6.30664062 31.87304688 C10.85470923 31.78591912 12.84325258 31.81430659 16.57421875 34.64453125 C18.5 37.3125 18.5 37.3125 19.125 40.3125 C18.25828572 44.47272855 16.88212544 45.74689786 13.5 48.3125 C10.20476357 48.91530506 7.02319519 48.78668545 3.6875 48.625 C2.80384766 48.60244141 1.92019531 48.57988281 1.00976562 48.55664062 C-1.1608891 48.49797428 -3.3306669 48.40829979 -5.5 48.3125 C-5.47905273 49.13975586 -5.45810547 49.96701172 -5.43652344 50.81933594 C-5.35338381 54.5669337 -5.30134469 58.31433749 -5.25 62.0625 C-5.21648437 63.36445313 -5.18296875 64.66640625 -5.1484375 66.0078125 C-5.13554687 67.25820313 -5.12265625 68.50859375 -5.109375 69.796875 C-5.08842773 70.94897461 -5.06748047 72.10107422 -5.04589844 73.28808594 C-5.597896 76.96450842 -6.57860182 78.08748928 -9.5 80.3125 C-12.66521024 81.23568632 -14.60528774 81.61073742 -17.75 80.5625 C-19.5 79.3125 -19.5 79.3125 -21.5 76.3125 C-21.75396729 73.32118225 -21.75396729 73.32118225 -21.75878906 69.60961914 C-21.7622937 68.93285629 -21.76579834 68.25609344 -21.76940918 67.55882263 C-21.77821154 65.32166282 -21.77238212 63.08481929 -21.765625 60.84765625 C-21.76697224 59.29210855 -21.76891327 57.73656127 -21.77142334 56.18101501 C-21.7743727 52.92019646 -21.77008362 49.65948746 -21.76074219 46.39868164 C-21.74935718 42.22109519 -21.75590218 38.04376598 -21.76788712 33.866189 C-21.7751189 30.65341763 -21.77281157 27.4407071 -21.76763153 24.22793388 C-21.76629819 22.68776863 -21.76793171 21.14759783 -21.77259064 19.60743904 C-21.77767653 17.45306935 -21.76991657 15.29911425 -21.75878906 13.14477539 C-21.75719788 11.91916397 -21.75560669 10.69355255 -21.75396729 9.43080139 C-21.51063308 6.44305682 -21.17036092 4.76906012 -19.5 2.3125 C-13.59582828 -0.97825353 -6.55169879 -0.01601099 0 0 Z " fill="#000000" transform="translate(373.5,192.6875)"/>
<path d="M0 0 C1.34021461 0.00349709 1.34021461 0.00349709 2.70750427 0.00706482 C4.59115179 0.01678458 6.47477083 0.03853093 8.3581543 0.0715332 C11.23986112 0.12098679 14.11986 0.1330183 17.00195312 0.13867188 C18.83465356 0.15275717 20.6673392 0.16896133 22.5 0.1875 C23.36049454 0.1928627 24.22098907 0.1982254 25.1075592 0.20375061 C25.91196945 0.21973801 26.7163797 0.2357254 27.54516602 0.25219727 C28.6017617 0.26815697 28.6017617 0.26815697 29.67970276 0.28443909 C32.82898308 0.7152958 35.03833632 1.72897705 36.99609375 4.24609375 C38.01282204 7.66599798 37.55640524 10.12969149 36.68359375 13.55859375 C34.275048 16.07085678 32.94897631 16.53455548 29.44921875 16.8515625 C28.2890625 16.81675781 27.12890625 16.78195313 25.93359375 16.74609375 C24.763125 16.71902344 23.59265625 16.69195312 22.38671875 16.6640625 C21.4946875 16.62925781 20.60265625 16.59445313 19.68359375 16.55859375 C19.68803497 17.2888678 19.6924762 18.01914185 19.697052 18.77154541 C19.73714461 25.65743363 19.76758626 32.54330437 19.78721809 39.42927933 C19.79765036 42.96934239 19.81179929 46.50930891 19.83447266 50.04931641 C19.86038226 54.12012656 19.87007113 58.19083547 19.87890625 62.26171875 C19.88922882 63.53162659 19.89955139 64.80153442 19.91018677 66.10992432 C19.91041336 67.88130768 19.91041336 67.88130768 19.91064453 69.68847656 C19.91508575 70.72772278 19.91952698 71.76696899 19.92410278 72.83770752 C19.67867008 75.61429538 19.16946191 77.22327223 17.68359375 79.55859375 C14.98771572 81.65538778 13.59064975 81.55370196 10.12109375 81.37109375 C5.66346432 80.31747225 5.66346432 80.31747225 3.68359375 77.55859375 C3.3228302 74.8820343 3.3228302 74.8820343 3.34301758 71.6184082 C3.34324417 70.39736893 3.34347076 69.17632965 3.34370422 67.91828918 C3.35918808 66.5994725 3.37467194 65.28065582 3.390625 63.921875 C3.39622132 62.55853237 3.40049125 61.19518371 3.40348816 59.83183289 C3.41493426 56.24615783 3.44439889 52.66084821 3.4776001 49.07531738 C3.50830636 45.41549625 3.52199465 41.75561598 3.53710938 38.09570312 C3.56926926 30.91650019 3.62046222 23.73759821 3.68359375 16.55859375 C2.719375 16.605 1.75515625 16.65140625 0.76171875 16.69921875 C-0.5015625 16.7353125 -1.76484375 16.77140625 -3.06640625 16.80859375 C-4.94585937 16.87820312 -4.94585937 16.87820312 -6.86328125 16.94921875 C-10.31640625 16.55859375 -10.31640625 16.55859375 -12.734375 14.7578125 C-15.06856958 11.51299386 -14.93203128 9.45755229 -14.31640625 5.55859375 C-10.18652428 -0.12535056 -6.51190129 -0.14816183 0 0 Z " fill="#000000" transform="translate(421.31640625,192.44140625)"/>
<path d="M0 0 C4.06379661 0.84662429 5.40242648 2.42480398 8 5.625 C8.63491821 8.88806152 8.63491821 8.88806152 8.64697266 12.63085938 C8.66011505 13.65866264 8.66011505 13.65866264 8.67352295 14.70722961 C8.69544661 16.96172283 8.68099222 19.2142385 8.6640625 21.46875 C8.66743273 23.04146703 8.67228708 24.61418151 8.67855835 26.18688965 C8.68592004 29.47884991 8.67524787 32.77013062 8.65185547 36.06201172 C8.6233669 40.27577554 8.63977483 44.48794709 8.66971779 48.70165253 C8.68781052 51.94801774 8.68202395 55.1940072 8.66907883 58.44038391 C8.66575021 59.99367971 8.66981279 61.54700993 8.68147659 63.1002655 C8.69421943 65.27413904 8.67476729 67.44545688 8.64697266 69.61914062 C8.64299469 70.85426392 8.63901672 72.08938721 8.63491821 73.36193848 C7.82441237 77.52740478 6.2827817 79.01918156 3 81.625 C0 82.25 0 82.25 -3 81.625 C-6.2827817 79.01918156 -7.82441237 77.52740478 -8.63491821 73.36193848 C-8.63889618 72.12681519 -8.64287415 70.89169189 -8.64697266 69.61914062 C-8.65573425 68.93393845 -8.66449585 68.24873627 -8.67352295 67.54277039 C-8.69544661 65.28827717 -8.68099222 63.0357615 -8.6640625 60.78125 C-8.66743273 59.20853297 -8.67228708 57.63581849 -8.67855835 56.06311035 C-8.68592004 52.77115009 -8.67524787 49.47986938 -8.65185547 46.18798828 C-8.6233669 41.97422446 -8.63977483 37.76205291 -8.66971779 33.54834747 C-8.68781052 30.30198226 -8.68202395 27.0559928 -8.66907883 23.80961609 C-8.66575021 22.25632029 -8.66981279 20.70299007 -8.68147659 19.1497345 C-8.69421943 16.97586096 -8.67476729 14.80454312 -8.64697266 12.63085938 C-8.64299469 11.39573608 -8.63901672 10.16061279 -8.63491821 8.88806152 C-7.65682598 3.86131152 -5.02835398 1.04757375 0 0 Z " fill="#000000" transform="translate(327,192.375)"/>
</svg>
