<?xml version="1.0" encoding="UTF-8"?>
<svg version="1.1" xmlns="http://www.w3.org/2000/svg" width="500" height="500">
<path d="M0 0 C39.1712128 -0.1788145 78.23671656 1.23621349 117.32785034 3.64492798 C123.0060125 3.99299948 128.68542874 4.31191994 134.36593628 4.61904907 C136.01421223 4.70895194 137.66248702 4.79887627 139.3107605 4.88882446 C141.56999952 5.01195974 143.82925694 5.13455051 146.08865356 5.25476074 C148.0796892 5.36133114 150.07047785 5.47248685 152.06124878 5.58389282 C153.69803589 5.67307983 153.69803589 5.67307983 155.3678894 5.7640686 C158.42397634 6.01513941 161.38440808 6.49489039 164.40499878 7.01358032 C166.82078137 7.13655568 169.23765483 7.23903604 171.65499878 7.32608032 C182.82084778 7.87580394 193.86512366 10.30633718 204.40499878 14.01358032 C204.40499878 14.67358032 204.40499878 15.33358032 204.40499878 16.01358032 C205.11398315 16.12701782 205.82296753 16.24045532 206.55343628 16.35733032 C216.40894562 18.62544754 225.29500719 25.0155571 232.40499878 32.01358032 C232.40499878 32.67358032 232.40499878 33.33358032 232.40499878 34.01358032 C233.06499878 34.01358032 233.72499878 34.01358032 234.40499878 34.01358032 C234.40499878 34.67358032 234.40499878 35.33358032 234.40499878 36.01358032 C235.06499878 36.01358032 235.72499878 36.01358032 236.40499878 36.01358032 C239.0235391 39.13648329 241.18079915 42.60314089 243.40499878 46.01358032 C244.01214722 46.94041626 244.61929565 47.8672522 245.24484253 48.82217407 C250.04141675 56.55756838 252.87506642 64.31563105 255.40499878 73.01358032 C255.58672754 73.61390406 255.7684563 74.2142278 255.95569199 74.83274317 C256.53450463 77.64217346 256.53454448 80.28749507 256.53921986 83.15697479 C256.5436777 84.42549459 256.54813554 85.69401439 256.55272847 87.00097418 C256.55263918 88.41154831 256.55244933 89.82212243 256.5521698 91.23269653 C256.55546932 92.72902475 256.55919507 94.22535207 256.56331128 95.72167826 C256.57332961 99.83964771 256.57704781 103.95760259 256.57970059 108.0755825 C256.5836042 112.51478062 256.59318257 116.95396721 256.60191345 121.39315796 C256.6216774 132.11763205 256.63174449 142.84210709 256.64064124 153.56659484 C256.6450247 158.61775636 256.6503914 163.66891683 256.65563011 168.72007751 C256.67264316 185.51320935 256.68713674 202.30634054 256.69437885 219.09947968 C256.69628873 223.45756532 256.69820907 227.81565095 256.70016479 232.17373657 C256.70064854 233.25691062 256.70113228 234.34008466 256.70163067 235.45608217 C256.70992875 252.99790656 256.73526158 270.53966271 256.76774547 288.08145732 C256.80082898 306.09404093 256.81882883 324.10658989 256.82202309 342.11920404 C256.82418711 352.23143399 256.83291981 362.34356445 256.85848427 372.45576477 C256.88020898 381.06901649 256.888233 389.68214457 256.87851749 398.29542059 C256.87397778 402.68780965 256.87583972 407.0799437 256.89527893 411.47229767 C256.91294732 415.49943142 256.91188336 419.52612482 256.89638164 423.55326349 C256.8940111 425.00422804 256.89830019 426.45522338 256.91021029 427.90614098 C257.02981689 443.44924749 252.64957449 456.79377605 242.08078003 468.42764282 C230.04150895 479.82145182 215.17442646 482.53793872 199.25265503 482.29092407 C184.03451322 481.6943088 172.72259031 473.60268742 162.40499878 463.01358032 C157.90823486 457.38714156 153.40499878 449.31054764 153.40499878 442.01358032 C146.9044065 443.57701391 140.45222076 445.2695215 134.01290894 447.0663147 C100.22876341 456.45851238 66.47832959 462.4375961 31.52999878 465.20108032 C30.51075317 465.28503052 29.49150757 465.36898071 28.44137573 465.45547485 C11.36492431 466.70441206 -5.66724969 466.00219538 -22.72000122 464.76358032 C-24.12731003 464.66271622 -24.12731003 464.66271622 -25.56304932 464.55981445 C-62.23330922 461.89135329 -97.68783405 453.98272816 -132.93655396 443.73452759 C-135.47670221 443.04566196 -138.00865091 442.4968156 -140.59500122 442.01358032 C-141.25500122 444.98358032 -141.91500122 447.95358032 -142.59500122 451.01358032 C-143.25500122 451.01358032 -143.91500122 451.01358032 -144.59500122 451.01358032 C-144.70972778 451.75092407 -144.82445435 452.48826782 -144.94265747 453.24795532 C-146.98984033 461.92702994 -154.62642755 468.94007488 -161.59500122 474.01358032 C-162.58500122 474.01358032 -163.57500122 474.01358032 -164.59500122 474.01358032 C-164.59500122 474.67358032 -164.59500122 475.33358032 -164.59500122 476.01358032 C-166.61200281 476.83554638 -168.63381491 477.64571249 -170.65750122 478.45108032 C-171.78285278 478.90354126 -172.90820435 479.3560022 -174.06765747 479.82217407 C-185.8271602 483.79409914 -200.98104987 483.52750473 -212.59500122 479.01358032 C-217.82108926 476.34178147 -222.71591179 473.26630661 -227.59500122 470.01358032 C-227.59500122 469.35358032 -227.59500122 468.69358032 -227.59500122 468.01358032 C-228.25500122 468.01358032 -228.91500122 468.01358032 -229.59500122 468.01358032 C-231.58328247 465.84561157 -231.58328247 465.84561157 -233.90750122 462.82608032 C-234.66675903 461.86315063 -235.42601685 460.90022095 -236.20828247 459.90811157 C-242.91602873 449.80474463 -244.32863073 439.46996617 -244.22319031 427.60501099 C-244.22824645 426.08924603 -244.23548346 424.57348708 -244.24468845 423.05774164 C-244.26348625 418.92762896 -244.25144828 414.79811447 -244.23396552 410.66801763 C-244.2205273 406.20030404 -244.23605163 401.7326743 -244.24778748 397.26496887 C-244.26612049 388.52660392 -244.25768081 379.7884633 -244.23969925 371.05010545 C-244.22564629 363.94524774 -244.22178624 356.84045072 -244.22514153 349.73558044 C-244.22585769 348.21601623 -244.22585769 348.21601623 -244.22658832 346.66575375 C-244.2276147 344.60746919 -244.22867006 342.54918464 -244.22975408 340.4909001 C-244.23831238 322.30977611 -244.22167446 304.12876007 -244.19192505 285.94766235 C-244.16308981 268.32489487 -244.15600526 250.7022829 -244.17141724 233.07949829 C-244.1881963 213.86734524 -244.19219621 194.65526594 -244.17470688 175.44311094 C-244.17286258 173.3926007 -244.17102785 171.34209046 -244.1692028 169.2915802 C-244.16829071 168.28281583 -244.16737863 167.27405146 -244.1664389 166.23471847 C-244.16084411 159.14234173 -244.16413081 152.05000112 -244.17074776 144.95762634 C-244.1784969 136.30872749 -244.17167151 127.65998144 -244.14657272 119.01111329 C-244.13411433 114.60235612 -244.12788649 110.1938364 -244.13911438 105.78507042 C-244.14921572 101.74217534 -244.140573 97.69975201 -244.1175332 93.65691394 C-244.11240891 92.2015033 -244.11387186 90.74604978 -244.12292785 89.2906583 C-244.17692031 79.8189002 -242.88076401 71.89635539 -239.59500122 63.01358032 C-239.21684141 61.95224176 -238.8386816 60.8909032 -238.44906241 59.79740286 C-235.52225236 51.79917337 -230.95402899 45.56765261 -225.59500122 39.01358032 C-224.76355591 37.93463501 -224.76355591 37.93463501 -223.91531372 36.83389282 C-216.89833209 28.14121408 -206.22818581 19.73421581 -195.59500122 16.01358032 C-194.27500122 16.01358032 -192.95500122 16.01358032 -191.59500122 16.01358032 C-191.59500122 15.35358032 -191.59500122 14.69358032 -191.59500122 14.01358032 C-171.73561379 6.85274351 -149.62688787 6.6259021 -128.7605896 5.22903442 C-125.36027625 4.99760463 -121.96078913 4.75597028 -118.56130981 4.51260376 C-79.01907719 1.69243987 -39.65088571 0.20750349 0 0 Z " fill="#DCDCDC" transform="translate(243.59500122070313,7.986419677734375)"/>
<path d="M0 0 C2.68117578 -0.00360804 5.36231849 -0.01088516 8.04348373 -0.01909256 C34.16228994 -0.08922567 60.16072308 0.75236025 86.23553085 2.24631882 C86.99386971 2.28943695 87.75220856 2.33255508 88.53352737 2.37697983 C97.37706311 2.88106872 106.21767806 3.42361833 115.05706406 3.99631882 C118.99452723 4.25094226 122.93237367 4.49891511 126.87029648 4.74631882 C138.63431148 5.49327007 150.39407221 6.2849288 162.14178085 7.25803757 C163.0568692 7.33050705 163.97195755 7.40297653 164.91477585 7.47764206 C178.80383887 8.68043157 191.39624432 13.06839218 202.36834335 21.79319382 C204.12208374 23.15802943 205.92081337 24.311586 207.79803085 25.49631882 C217.28789678 32.31783242 224.21247997 47.24843235 227.23553085 58.24631882 C228.35178621 66.03577187 228.38705566 73.75415065 228.389431 81.6111412 C228.39345249 83.0622873 228.39789184 84.51343228 228.40271056 85.96457595 C228.41460416 89.93442765 228.42030755 93.90426724 228.42489171 97.87413323 C228.43087486 102.16259618 228.44247731 106.45104487 228.45318222 110.73949814 C228.47763663 121.08367918 228.49231913 131.4278649 228.50524229 141.77206591 C228.50895803 144.69523058 228.51293091 147.61839478 228.51699495 150.54155898 C228.54222529 168.71072049 228.56426874 186.87988282 228.5767231 205.04905796 C228.57965255 209.25161174 228.58261426 213.45416549 228.58562851 217.65671921 C228.58637456 218.70117837 228.58712061 219.74563753 228.58788927 220.82174697 C228.60054856 237.74895211 228.63378466 254.67605237 228.67543034 271.60320846 C228.71787165 288.99670289 228.74142028 306.39014361 228.74664366 323.78368968 C228.75005426 333.54375844 228.76176898 343.30366295 228.7947464 353.06368065 C228.8227776 361.37306775 228.83373249 369.68225686 228.82255094 377.99168757 C228.81737307 382.22822751 228.82019432 386.46435296 228.84501648 390.70083237 C228.86758612 394.58537133 228.86671018 398.46919992 228.84781261 402.35375198 C228.84502343 403.7527549 228.85055061 405.1518068 228.86562555 406.55073128 C228.99557216 419.40382271 225.92126254 429.79129928 216.79803085 439.10960007 C208.91188391 445.68539637 200.08558038 447.20222642 190.07146835 446.65256882 C180.95975008 445.68758032 174.52954237 442.86776533 168.383304 435.95082092 C161.17023379 426.86803507 159.35701184 418.42924496 159.50295639 407.03635788 C159.49906481 405.63878479 159.49252635 404.24121703 159.48359931 402.84366703 C159.46674541 399.03581456 159.48679456 395.2289443 159.51323032 391.42118001 C159.53515928 387.30264625 159.52213271 383.18420154 159.51331711 379.0656395 C159.50261772 371.93991296 159.5132672 364.8144803 159.53821564 357.68879318 C159.57391943 347.38208542 159.57258892 337.07563256 159.56161781 326.76888072 C159.5444367 310.03882804 159.55098064 293.30887942 159.5753746 276.57883835 C159.57682624 275.57883643 159.57827788 274.57883451 159.5797735 273.54852951 C159.58568752 269.49601495 159.59164059 265.44350045 159.5976496 261.39098603 C159.6139734 250.21760443 159.62552343 239.04421993 159.63494492 227.87083054 C159.63579587 226.86962732 159.63664683 225.86842411 159.63752358 224.8368814 C159.65112859 208.15748907 159.64888009 191.47812739 159.63689578 174.79873466 C159.6304084 164.51326349 159.63930595 154.22801368 159.66798033 143.94257921 C159.68683769 136.90401604 159.69200224 129.86553221 159.68628739 122.82694632 C159.68353872 118.76357168 159.6875493 114.70048054 159.70897865 110.63715553 C159.72849978 106.92039586 159.72981816 103.20409848 159.71647055 99.48731565 C159.71420654 97.50052638 159.73182178 95.51374546 159.75005662 93.52703857 C159.73843553 91.7653364 159.73843553 91.7653364 159.72657967 89.96804428 C159.72831322 88.95234202 159.73004678 87.93663977 159.73183286 86.89015865 C159.09783149 83.51278349 157.8996007 82.35218486 155.23553085 80.24631882 C151.6921439 79.06518983 148.21717295 78.70289154 144.52459335 78.30881882 C143.7329982 78.22309616 142.94140305 78.1373735 142.12582016 78.04905319 C51.00028732 68.41118788 -41.11787093 69.09792022 -132.38946915 76.30881882 C-133.95611816 76.4315416 -133.95611816 76.4315416 -135.55441666 76.55674362 C-138.47162096 76.789352 -141.38766942 77.03265744 -144.30353165 77.28147507 C-145.13782196 77.34913574 -145.97211227 77.41679642 -146.83168411 77.48650742 C-150.78817967 77.84023661 -154.69936645 78.33063062 -158.60577774 79.05662155 C-159.30931381 79.18713409 -160.01284988 79.31764664 -160.73770523 79.45211411 C-163.52379736 80.54386805 -164.86145309 81.94067619 -166.76446915 84.24631882 C-167.35497492 86.93668556 -167.35497492 86.93668556 -167.25272465 89.94684029 C-167.25985534 91.11659161 -167.26698604 92.28634293 -167.27433282 93.49154127 C-167.26179757 94.77769885 -167.24926231 96.06385644 -167.2363472 97.38898849 C-167.23720946 98.7683981 -167.23984767 100.14780755 -167.24411172 101.52721083 C-167.25081324 105.3222506 -167.23267142 109.11683227 -167.21066129 112.91179919 C-167.19134647 117.00337163 -167.19519424 121.09492635 -167.19653702 125.18653488 C-167.19598526 132.28013373 -167.1815953 139.37359557 -167.15862846 146.46715546 C-167.12600691 156.73853774 -167.12200637 167.00978475 -167.12636616 177.28121085 C-167.13331963 193.96539582 -167.12757543 210.64954542 -167.10895157 227.33372116 C-167.107844 228.33263337 -167.10673644 229.33154558 -167.10559531 230.36072786 C-167.09288284 241.49427309 -167.07603875 252.6278039 -167.05340958 263.76133347 C-167.05138274 264.7608424 -167.04935591 265.76035133 -167.04726766 266.79014841 C-167.04523916 267.78856979 -167.04321067 268.78699117 -167.04112071 269.81566775 C-167.03703353 271.828847 -167.0329511 273.84202626 -167.02887344 275.85520554 C-167.02685172 276.84986951 -167.02483 277.84453349 -167.02274702 278.8693388 C-166.98971126 295.47848599 -166.9837888 312.08751638 -166.99949807 328.69668829 C-167.00806613 338.9356583 -166.99371589 349.1740895 -166.94956329 359.41297038 C-166.92102078 366.43819317 -166.91780988 373.46314163 -166.93418209 380.48840217 C-166.94278511 384.53696825 -166.94014267 388.58468291 -166.90648842 392.63313675 C-166.87581522 396.34860434 -166.87810578 400.06262108 -166.9052582 403.77810259 C-166.911349 405.7400226 -166.88321936 407.70195985 -166.85337526 409.66366231 C-166.99622306 421.08684063 -170.97156683 430.46935423 -178.76446915 438.93381882 C-187.27602016 446.63866577 -197.88218993 446.93416545 -208.84064102 446.41233444 C-216.73719243 445.73090615 -222.38552553 441.71931307 -227.58553427 435.94752467 C-235.075608 426.66214803 -236.64475333 417.85360758 -236.51964188 406.19251633 C-236.52585143 404.70307172 -236.53467736 403.21363615 -236.54586726 401.72422063 C-236.56883021 397.66209667 -236.55474144 393.60084379 -236.53415811 389.53873873 C-236.518456 385.14595572 -236.53747593 380.75329909 -236.55195999 376.36053085 C-236.57473763 367.76670872 -236.56533842 359.17321271 -236.54445913 350.57939722 C-236.52814627 343.59131643 -236.52398264 336.60332438 -236.52842522 329.61522675 C-236.52905589 328.61898934 -236.52968657 327.62275193 -236.53033635 326.59632551 C-236.53168247 324.57218713 -236.53306205 322.54804878 -236.53447471 320.52391045 C-236.54640053 301.56066374 -236.5223747 282.59759533 -236.48545662 263.63438921 C-236.45457489 247.3825734 -236.45218922 231.13096289 -236.47125626 214.87913132 C-236.4933981 195.98485466 -236.49948474 177.09069297 -236.47893363 158.19641054 C-236.47677081 156.17928785 -236.47462171 154.16216514 -236.4724865 152.14504242 C-236.47142013 151.15270844 -236.47035377 150.16037445 -236.46925509 149.13796974 C-236.4628008 142.16378672 -236.4675349 135.1896631 -236.476511 128.21548462 C-236.48707699 119.70818999 -236.47944913 111.20113556 -236.44905522 102.6938851 C-236.43398775 98.35787422 -236.42668279 94.02224153 -236.44124603 89.68622017 C-236.45436438 85.70851379 -236.4439814 81.73155284 -236.4156873 77.75393181 C-236.40946341 76.32337596 -236.4114408 74.89275283 -236.42295774 73.4622298 C-236.51903461 60.45312721 -233.55537774 49.51570938 -226.20196915 38.68381882 C-225.82878555 38.12114304 -225.45560196 37.55846725 -225.07110977 36.97874069 C-215.94384966 23.37515476 -200.65312456 13.59217785 -184.76446915 9.43381882 C-179.16631834 8.37354276 -173.58154393 7.77367711 -167.91290665 7.26975632 C-166.48269684 7.14136116 -166.48269684 7.14136116 -165.0235939 7.01037216 C-153.49347566 6.006771 -141.94319709 5.34701051 -130.38946915 4.68381882 C-127.1243342 4.4953526 -123.85927933 4.3057895 -120.59439468 4.11303329 C-118.58886823 3.99469282 -116.58319813 3.87875155 -114.57736588 3.76571274 C-110.61391911 3.53240744 -106.6843921 3.27032785 -102.74908829 2.73704147 C-97.94123843 2.09546235 -93.12761795 1.90647856 -88.2840004 1.71116257 C-87.23963318 1.66800415 -86.19526596 1.62484573 -85.11925125 1.58037949 C-56.74559275 0.45082022 -28.39450974 0.02764679 0 0 Z " fill="#DFDFDF" transform="translate(253.76446914672852,25.753681182861328)"/>
<path d="M0 0 C39.1712128 -0.1788145 78.23671656 1.23621349 117.32785034 3.64492798 C123.0060125 3.99299948 128.68542874 4.31191994 134.36593628 4.61904907 C136.01421223 4.70895194 137.66248702 4.79887627 139.3107605 4.88882446 C141.56999952 5.01195974 143.82925694 5.13455051 146.08865356 5.25476074 C148.0796892 5.36133114 150.07047785 5.47248685 152.06124878 5.58389282 C153.69803589 5.67307983 153.69803589 5.67307983 155.3678894 5.7640686 C158.42397634 6.01513941 161.38440808 6.49489039 164.40499878 7.01358032 C166.82078137 7.13655568 169.23765483 7.23903604 171.65499878 7.32608032 C182.82084778 7.87580394 193.86512366 10.30633718 204.40499878 14.01358032 C204.40499878 14.67358032 204.40499878 15.33358032 204.40499878 16.01358032 C205.11398315 16.12701782 205.82296753 16.24045532 206.55343628 16.35733032 C216.40894562 18.62544754 225.29500719 25.0155571 232.40499878 32.01358032 C232.40499878 32.67358032 232.40499878 33.33358032 232.40499878 34.01358032 C233.06499878 34.01358032 233.72499878 34.01358032 234.40499878 34.01358032 C234.40499878 34.67358032 234.40499878 35.33358032 234.40499878 36.01358032 C235.06499878 36.01358032 235.72499878 36.01358032 236.40499878 36.01358032 C239.0235391 39.13648329 241.18079915 42.60314089 243.40499878 46.01358032 C244.01214722 46.94041626 244.61929565 47.8672522 245.24484253 48.82217407 C250.04141675 56.55756838 252.87506642 64.31563105 255.40499878 73.01358032 C255.58672754 73.61390406 255.7684563 74.2142278 255.95569199 74.83274317 C256.53450463 77.64217346 256.53454448 80.28749507 256.53921986 83.15697479 C256.5436777 84.42549459 256.54813554 85.69401439 256.55272847 87.00097418 C256.55263918 88.41154831 256.55244933 89.82212243 256.5521698 91.23269653 C256.55546932 92.72902475 256.55919507 94.22535207 256.56331128 95.72167826 C256.57332961 99.83964771 256.57704781 103.95760259 256.57970059 108.0755825 C256.5836042 112.51478062 256.59318257 116.95396721 256.60191345 121.39315796 C256.6216774 132.11763205 256.63174449 142.84210709 256.64064124 153.56659484 C256.6450247 158.61775636 256.6503914 163.66891683 256.65563011 168.72007751 C256.67264316 185.51320935 256.68713674 202.30634054 256.69437885 219.09947968 C256.69628873 223.45756532 256.69820907 227.81565095 256.70016479 232.17373657 C256.70064854 233.25691062 256.70113228 234.34008466 256.70163067 235.45608217 C256.70992875 252.99790656 256.73526158 270.53966271 256.76774547 288.08145732 C256.80082898 306.09404093 256.81882883 324.10658989 256.82202309 342.11920404 C256.82418711 352.23143399 256.83291981 362.34356445 256.85848427 372.45576477 C256.88020898 381.06901649 256.888233 389.68214457 256.87851749 398.29542059 C256.87397778 402.68780965 256.87583972 407.0799437 256.89527893 411.47229767 C256.91294732 415.49943142 256.91188336 419.52612482 256.89638164 423.55326349 C256.8940111 425.00422804 256.89830019 426.45522338 256.91021029 427.90614098 C257.02981689 443.44924749 252.64957449 456.79377605 242.08078003 468.42764282 C230.04150895 479.82145182 215.17442646 482.53793872 199.25265503 482.29092407 C184.03451322 481.6943088 172.72259031 473.60268742 162.40499878 463.01358032 C157.90823486 457.38714156 153.40499878 449.31054764 153.40499878 442.01358032 C146.9044065 443.57701391 140.45222076 445.2695215 134.01290894 447.0663147 C100.22876341 456.45851238 66.47832959 462.4375961 31.52999878 465.20108032 C30.51075317 465.28503052 29.49150757 465.36898071 28.44137573 465.45547485 C11.36492431 466.70441206 -5.66724969 466.00219538 -22.72000122 464.76358032 C-24.12731003 464.66271622 -24.12731003 464.66271622 -25.56304932 464.55981445 C-62.23330922 461.89135329 -97.68783405 453.98272816 -132.93655396 443.73452759 C-135.47670221 443.04566196 -138.00865091 442.4968156 -140.59500122 442.01358032 C-141.25500122 444.98358032 -141.91500122 447.95358032 -142.59500122 451.01358032 C-143.25500122 451.01358032 -143.91500122 451.01358032 -144.59500122 451.01358032 C-144.70972778 451.75092407 -144.82445435 452.48826782 -144.94265747 453.24795532 C-146.98984033 461.92702994 -154.62642755 468.94007488 -161.59500122 474.01358032 C-162.58500122 474.01358032 -163.57500122 474.01358032 -164.59500122 474.01358032 C-164.59500122 474.67358032 -164.59500122 475.33358032 -164.59500122 476.01358032 C-166.61200281 476.83554638 -168.63381491 477.64571249 -170.65750122 478.45108032 C-171.78285278 478.90354126 -172.90820435 479.3560022 -174.06765747 479.82217407 C-185.8271602 483.79409914 -200.98104987 483.52750473 -212.59500122 479.01358032 C-217.82108926 476.34178147 -222.71591179 473.26630661 -227.59500122 470.01358032 C-227.59500122 469.35358032 -227.59500122 468.69358032 -227.59500122 468.01358032 C-228.25500122 468.01358032 -228.91500122 468.01358032 -229.59500122 468.01358032 C-231.58328247 465.84561157 -231.58328247 465.84561157 -233.90750122 462.82608032 C-234.66675903 461.86315063 -235.42601685 460.90022095 -236.20828247 459.90811157 C-242.91602873 449.80474463 -244.32863073 439.46996617 -244.22319031 427.60501099 C-244.22824645 426.08924603 -244.23548346 424.57348708 -244.24468845 423.05774164 C-244.26348625 418.92762896 -244.25144828 414.79811447 -244.23396552 410.66801763 C-244.2205273 406.20030404 -244.23605163 401.7326743 -244.24778748 397.26496887 C-244.26612049 388.52660392 -244.25768081 379.7884633 -244.23969925 371.05010545 C-244.22564629 363.94524774 -244.22178624 356.84045072 -244.22514153 349.73558044 C-244.22585769 348.21601623 -244.22585769 348.21601623 -244.22658832 346.66575375 C-244.2276147 344.60746919 -244.22867006 342.54918464 -244.22975408 340.4909001 C-244.23831238 322.30977611 -244.22167446 304.12876007 -244.19192505 285.94766235 C-244.16308981 268.32489487 -244.15600526 250.7022829 -244.17141724 233.07949829 C-244.1881963 213.86734524 -244.19219621 194.65526594 -244.17470688 175.44311094 C-244.17286258 173.3926007 -244.17102785 171.34209046 -244.1692028 169.2915802 C-244.16829071 168.28281583 -244.16737863 167.27405146 -244.1664389 166.23471847 C-244.16084411 159.14234173 -244.16413081 152.05000112 -244.17074776 144.95762634 C-244.1784969 136.30872749 -244.17167151 127.65998144 -244.14657272 119.01111329 C-244.13411433 114.60235612 -244.12788649 110.1938364 -244.13911438 105.78507042 C-244.14921572 101.74217534 -244.140573 97.69975201 -244.1175332 93.65691394 C-244.11240891 92.2015033 -244.11387186 90.74604978 -244.12292785 89.2906583 C-244.17692031 79.8189002 -242.88076401 71.89635539 -239.59500122 63.01358032 C-239.21684141 61.95224176 -238.8386816 60.8909032 -238.44906241 59.79740286 C-235.52225236 51.79917337 -230.95402899 45.56765261 -225.59500122 39.01358032 C-224.76355591 37.93463501 -224.76355591 37.93463501 -223.91531372 36.83389282 C-216.89833209 28.14121408 -206.22818581 19.73421581 -195.59500122 16.01358032 C-194.27500122 16.01358032 -192.95500122 16.01358032 -191.59500122 16.01358032 C-191.59500122 15.35358032 -191.59500122 14.69358032 -191.59500122 14.01358032 C-171.73561379 6.85274351 -149.62688787 6.6259021 -128.7605896 5.22903442 C-125.36027625 4.99760463 -121.96078913 4.75597028 -118.56130981 4.51260376 C-79.01907719 1.69243987 -39.65088571 0.20750349 0 0 Z M-63.59500122 18.88858032 C-64.74437164 18.92778595 -65.89374207 18.96699158 -67.07794189 19.00738525 C-78.81658951 19.42186341 -90.47642814 20.0960415 -102.16212463 21.29151917 C-109.75631705 22.06294217 -117.34367585 22.49330127 -124.96707153 22.84701538 C-137.03475929 23.42033815 -149.0728714 24.17810105 -161.09500122 25.38858032 C-162.73770996 25.54121338 -162.73770996 25.54121338 -164.41360474 25.69692993 C-176.89794591 27.04473178 -187.09723632 31.24711647 -197.59500122 38.01358032 C-198.54632935 38.5988147 -199.49765747 39.18404907 -200.47781372 39.78701782 C-212.42274992 47.67267208 -221.36334828 61.91100975 -225.17308331 75.6699053 C-226.16820671 81.19762948 -225.88367473 86.88026484 -225.87588501 92.47956848 C-225.88105678 93.96611361 -225.88708435 95.45265596 -225.89389181 96.9391945 C-225.90998575 101.01619397 -225.91360836 105.09312293 -225.91508675 109.1701504 C-225.91879587 113.57045343 -225.93389449 117.97072021 -225.94735718 122.3710022 C-225.97449126 131.98885022 -225.98656793 141.60668153 -225.99537849 151.22456145 C-226.00090839 157.23243229 -226.00938397 163.24029672 -226.01838684 169.24816322 C-226.04276704 185.88957788 -226.06336726 202.53098742 -226.07013702 219.17241955 C-226.07057616 220.23696262 -226.07101529 221.30150569 -226.07146773 222.39830764 C-226.07190428 223.46536165 -226.07234084 224.53241566 -226.07279062 225.63180465 C-226.07367755 227.79397532 -226.07457067 229.95614598 -226.07546997 232.11831665 C-226.07591283 233.19082235 -226.07635569 234.26332804 -226.07681197 235.36833391 C-226.08470733 252.74511601 -226.11961575 270.12173033 -226.16618901 287.49844762 C-226.2136437 305.34840974 -226.23854195 323.19828771 -226.24087286 341.04831392 C-226.24270474 351.06665172 -226.25416839 361.08477085 -226.29051208 371.10304832 C-226.32135144 379.63392952 -226.33153318 388.16452444 -226.31503588 396.69545081 C-226.30723599 401.04544926 -226.30901579 405.39487155 -226.33715057 409.74479866 C-226.36271009 413.73314443 -226.36016531 417.72048355 -226.33596915 421.70882872 C-226.33206894 423.14557611 -226.33814879 424.58239581 -226.35565788 426.0190418 C-226.49438405 438.17918814 -223.53085649 446.92655611 -215.34500122 456.01358032 C-207.23943334 463.42016059 -199.0937353 464.76784665 -188.38406372 464.34170532 C-179.68807288 463.58865045 -172.54000167 460.5339034 -166.59500122 454.01358032 C-165.95562622 453.33295532 -165.31625122 452.65233032 -164.65750122 451.95108032 C-158.30893307 442.90918022 -156.86785263 434.86562176 -156.98268127 423.96183777 C-156.97922778 422.56925507 -156.97356787 421.17667643 -156.96591336 419.78411049 C-156.95126216 415.98551315 -156.96738437 412.18759211 -156.98876631 408.38905013 C-157.00633776 404.28208996 -156.99481604 400.17519751 -156.98675537 396.06822205 C-156.97657441 388.96106791 -156.98411373 381.85411323 -157.00341606 374.74698067 C-157.03095915 364.46705922 -157.02705862 354.18732996 -157.01483024 343.90738749 C-156.99545912 327.22116659 -156.99536412 310.53500922 -157.01028442 293.8487854 C-157.01117056 292.8512086 -157.01205669 291.85363179 -157.01296968 290.82582539 C-157.01660408 286.78319302 -157.02032148 282.74056075 -157.02413624 278.69792855 C-157.03461137 267.55387951 -157.04284862 256.40982965 -157.04934692 245.26577759 C-157.04993516 244.26729864 -157.05052339 243.2688197 -157.05112945 242.24008382 C-157.06040099 225.60591884 -157.05395021 208.97179182 -157.03703648 192.33763355 C-157.02743723 182.0791101 -157.03262937 171.82079021 -157.05680419 161.56228965 C-157.07252401 154.54146485 -157.07439965 147.52072704 -157.06527095 140.49989081 C-157.06053205 136.44665464 -157.0625206 132.39369842 -157.08190727 128.34049988 C-157.09955003 124.63294321 -157.09897966 120.92585975 -157.0837282 117.21829664 C-157.08043716 115.2364375 -157.09700347 113.25457642 -157.11418909 111.27278906 C-157.10164295 109.51538693 -157.10164295 109.51538693 -157.08884335 107.72248173 C-157.09003483 106.70927516 -157.09122631 105.69606859 -157.0924539 104.6521588 C-156.46047135 101.30000969 -155.21276703 100.12800928 -152.59500122 98.01358032 C-150.5682373 97.21937561 -150.5682373 97.21937561 -148.43630981 96.82388306 C-147.25014069 96.60343826 -147.25014069 96.60343826 -146.04000854 96.37854004 C-142.07907964 95.78730275 -138.12528069 95.37242298 -134.13406372 95.04873657 C-133.22077805 94.97080368 -132.30749237 94.89287079 -131.36653137 94.81257629 C-128.31838597 94.55744127 -125.26946233 94.31495855 -122.22000122 94.07608032 C-121.14567841 93.99120361 -120.07135559 93.9063269 -118.96447754 93.81887817 C-31.24092073 86.98143071 56.748416 87.01625368 144.40499878 95.01358032 C145.73174622 95.12935425 145.73174622 95.12935425 147.08529663 95.24746704 C149.58139686 95.46836707 152.07516814 95.70665588 154.56906128 95.95108032 C155.29515594 96.01359985 156.02125061 96.07611938 156.76934814 96.14053345 C162.16341839 96.70332841 165.58452954 98.19311108 169.40499878 102.01358032 C169.6529038 104.40902317 169.6529038 104.40902317 169.64995193 107.48921013 C169.65559988 109.24493916 169.65559988 109.24493916 169.66136193 111.03613746 C169.65232075 112.98199515 169.65232075 112.98199515 169.64309692 114.96716309 C169.64380271 116.35039532 169.64540161 117.73362735 169.64782119 119.11685765 C169.6519966 122.9315433 169.64378097 126.74611956 169.63371873 130.56079054 C169.62509814 134.67008998 169.62805043 138.77938138 169.62986755 142.88868713 C169.63168175 150.01556413 169.62687133 157.14241174 169.61826324 164.26928329 C169.60523405 175.53881515 169.6127767 186.80828935 169.62368774 198.07781982 C169.62716627 201.93260756 169.63051128 205.78739541 169.63381577 209.6421833 C169.6346471 210.60566483 169.63547844 211.56914635 169.63633497 212.56182428 C169.64552456 223.53695263 169.65046972 234.51208149 169.65353394 245.48721313 C169.65396256 246.99255081 169.65396256 246.99255081 169.65439984 248.52829935 C169.65849995 264.77369466 169.64729126 281.01905319 169.63215843 297.26444028 C169.61717856 313.94358699 169.62519162 330.62262262 169.65277553 347.30175316 C169.66893173 357.58811025 169.66627102 367.87411727 169.6393024 378.16045327 C169.62238288 385.21698565 169.62729462 392.27329198 169.6491867 399.32980983 C169.66112249 403.39826164 169.66341052 407.46610592 169.63930702 411.53451729 C169.6173962 415.26589788 169.62352594 418.99618629 169.65111217 422.72751953 C169.65863381 424.70290119 169.63682467 426.67832895 169.613662 428.65358913 C169.74433167 439.66735192 173.28943231 447.79477125 180.59249878 456.01358032 C188.14709332 462.92816768 196.36266878 464.65708426 206.41085815 464.55508423 C214.7068949 464.16558965 222.0457472 461.49263728 228.27999878 455.95108032 C234.31836875 449.24671367 238.52946604 440.17006919 238.53083992 431.17226219 C238.53344767 429.94568409 238.53605541 428.71910599 238.53874218 427.45535886 C238.53657991 426.08693831 238.53432325 424.71851791 238.53198242 423.35009766 C238.53313396 421.9019926 238.53472171 420.45388783 238.53670967 419.00578368 C238.54089872 415.01657538 238.53881416 411.0273909 238.53572345 407.0381825 C238.53346774 402.73945276 238.5369499 398.44072721 238.53970337 394.14199829 C238.54415889 385.71516743 238.54318536 377.28834547 238.54029073 368.86151426 C238.53803495 362.01145172 238.53772494 355.16139169 238.53881454 348.31132889 C238.53896778 347.33740671 238.53912101 346.36348453 238.53927889 345.36004955 C238.53959861 343.38164173 238.53992282 341.40323392 238.54025148 339.4248261 C238.54310586 320.85432465 238.53982037 302.28382813 238.53445111 283.71332748 C238.52998732 267.78167101 238.53075558 251.85002182 238.53536987 235.91836548 C238.54072363 217.42489776 238.54282673 198.93143437 238.53975761 180.43796599 C238.53943906 178.46488611 238.53912469 176.49180623 238.53881454 174.51872635 C238.53866027 173.54791091 238.53850599 172.57709547 238.53834704 171.57686137 C238.53748398 164.73871316 238.53894033 157.90056768 238.5412941 151.06241989 C238.54410137 142.7232053 238.54333442 134.38400013 238.53801335 126.04478662 C238.53538823 121.79058576 238.5343511 117.53640059 238.53766251 113.28219986 C238.54065019 109.384847 238.53899152 105.48752429 238.53368495 101.59017415 C238.53257126 100.18298007 238.53312863 98.77578342 238.53556074 97.368591 C238.56536257 78.68692613 235.14472719 61.50577378 221.95187378 47.38858032 C198.64441697 25.65401938 172.55888067 25.02099464 142.27999878 23.01358032 C139.66661775 22.83766535 137.0532552 22.66147559 134.43991089 22.48501587 C129.35112959 22.14220741 124.26218389 21.80202545 119.17306519 21.46426392 C114.38845655 21.1465279 109.60425424 20.82366239 104.82046509 20.49383545 C101.53637228 20.26781965 98.25192917 20.047135 94.96749878 19.82608032 C93.42714966 19.71876587 93.42714966 19.71876587 91.85568237 19.60928345 C88.37337233 19.38122563 84.8903598 19.18722275 81.40499878 19.01358032 C80.13678787 18.95002853 80.13678787 18.95002853 78.84295654 18.88519287 C57.18047023 17.84617308 35.52444967 17.8152611 13.84249878 17.82608032 C11.96513875 17.82602414 10.08777873 17.82596307 8.2104187 17.82589722 C-15.73700767 17.83213468 -39.66132445 18.0453315 -63.59500122 18.88858032 Z M-76.03250122 106.32608032 C-77.1602018 106.37053598 -77.1602018 106.37053598 -78.3106842 106.41588974 C-94.62417823 107.05951549 -110.87644275 107.9978609 -127.13015747 109.55654907 C-127.81152708 109.62116144 -128.49289669 109.68577381 -129.19491386 109.75234413 C-135.85776234 109.76106256 -135.85776234 109.76106256 -141.59500122 112.01358032 C-141.692191 113.67125698 -141.71871673 115.33310721 -141.71804905 116.99363041 C-141.7200401 118.07895748 -141.72203115 119.16428455 -141.72408253 120.28250033 C-141.72116969 121.48967241 -141.71825685 122.69684448 -141.71525574 123.94059753 C-141.71611016 125.21143674 -141.71696459 126.48227595 -141.7178449 127.79162544 C-141.72009225 131.3352668 -141.71606532 134.87887821 -141.71106684 138.42251575 C-141.70676595 142.23780309 -141.70820851 146.05308861 -141.70896912 149.86837769 C-141.70949458 156.48400335 -141.70634543 163.09961919 -141.70073128 169.71524239 C-141.69261932 179.2804339 -141.69000137 188.84562065 -141.68874329 198.41081523 C-141.68655229 213.9280645 -141.6798909 229.44530852 -141.67044067 244.96255493 C-141.6612678 260.04002862 -141.65418636 275.11750089 -141.64993286 290.19497681 C-141.64967014 291.12366971 -141.64940741 292.05236261 -141.64913673 293.00919772 C-141.64783173 297.66797324 -141.64656802 302.32674876 -141.64532483 306.9855243 C-141.63495072 345.66154664 -141.6173311 384.33756314 -141.59500122 423.01358032 C-139.99216673 423.65915795 -138.38889186 424.30364229 -136.78543091 424.94766235 C-135.89265442 425.30667633 -134.99987793 425.66569031 -134.08004761 426.0355835 C-129.67000513 427.77116782 -125.16523499 429.11067967 -120.61550903 430.42764282 C-119.19667001 430.83909928 -117.77948248 431.25627299 -116.36355591 431.67764282 C-99.6592539 436.62304008 -82.71978389 439.9360551 -65.59500122 443.01358032 C-64.68653442 443.17986938 -63.77806763 443.34615845 -62.84207153 443.51748657 C-57.44289018 444.4947538 -52.03539297 445.30289852 -46.59500122 446.01358032 C-45.59468872 446.14893188 -44.59437622 446.28428345 -43.56375122 446.42373657 C-4.31742879 451.56093208 34.84285756 449.64350696 73.78390503 443.23233032 C78.8934344 442.39147617 84.00106566 441.66998487 89.13937378 441.02920532 C95.59258237 440.18680488 101.80051662 438.90918395 108.09249878 437.26358032 C109.10997192 437.00335083 110.12744507 436.74312134 111.17575073 436.4750061 C121.00316213 433.92690364 130.71177175 431.02644666 140.40499878 428.01358032 C144.69499878 426.69358032 148.98499878 425.37358032 153.40499878 424.01358032 C153.40499878 321.05358032 153.40499878 218.09358032 153.40499878 112.01358032 C150.2195989 110.42088038 146.72064465 110.5484547 143.21359253 110.29483032 C142.39431778 110.23202881 141.57504303 110.16922729 140.73094177 110.10452271 C138.10174278 109.90359385 135.47216437 109.70829914 132.84249878 109.51358032 C130.23790545 109.31796413 127.63341359 109.12112534 125.02903748 108.92263794 C123.40852265 108.79942456 121.78787261 108.67797171 120.16706848 108.55862427 C116.4134784 108.27593445 112.6778339 107.94169394 108.93917847 107.50210571 C104.21091371 106.96252324 99.49007334 106.69147955 94.73703003 106.47842407 C93.78722763 106.43522034 92.83742523 106.3920166 91.85884094 106.34750366 C35.9521629 103.90627328 -20.12431376 104.06354066 -76.03250122 106.32608032 Z " fill="#060606" transform="translate(243.59500122070313,7.986419677734375)"/>
<path d="M0 0 C3.20008327 2.46863567 4.88973538 3.79420614 6.1875 7.6875 C6.75441614 13.41117254 6.40472068 17.73792972 3.1875 22.6875 C2.5275 23.0175 1.8675 23.3475 1.1875 23.6875 C5.80753167 33.28124998 12.29464355 41.56377105 18.9296875 49.81640625 C21.1875 52.6875 21.1875 52.6875 22.1875 54.6875 C25.70620584 53.4207659 28.35581714 51.98384268 31.25 49.625 C34.9528575 46.66147143 38.70114529 43.77737553 42.5 40.9375 C43.48613281 40.20015625 44.47226562 39.4628125 45.48828125 38.703125 C46.37902344 38.03796875 47.26976562 37.3728125 48.1875 36.6875 C49.52109868 35.68785389 50.8545467 34.68800651 52.1875 33.6875 C51.8575 33.048125 51.5275 32.40875 51.1875 31.75 C49.52478869 26.6579466 49.31476699 21.80043255 51.375 16.8125 C54.66609509 12.95397473 57.05097688 11.81378035 62.125 11.25 C66.4025513 11.42755873 68.92166458 12.87736254 72.1875 15.6875 C74.56052167 18.61422672 75.14716626 20.37059204 75.625 24.125 C74.99760166 29.23381504 72.88104067 32.19319941 69.0625 35.5625 C67.1875 36.6875 67.1875 36.6875 65.1875 36.6875 C65.06761719 37.98429687 64.94773437 39.28109375 64.82421875 40.6171875 C64.28093043 45.47738982 63.23831691 50.08806751 62 54.8125 C61.7836792 55.65635254 61.5673584 56.50020508 61.34448242 57.36962891 C60.87839693 59.18271635 60.40931236 60.99503502 59.9375 62.80664062 C59.14963103 65.83296022 58.37128511 68.86163508 57.59375 71.890625 C57.06303438 73.94805458 56.53179503 76.00534915 56 78.0625 C55.75032471 79.03074707 55.50064941 79.99899414 55.2434082 80.99658203 C54.25682354 84.78120731 53.26247904 88.47699101 51.94921875 92.1640625 C50.89627075 94.77528819 50.89627075 94.77528819 52.1875 97.6875 C52.76118942 104.91598665 52.76118942 104.91598665 50.375 108.125 C47.2054392 110.388972 44.67073022 110.8134654 40.88090515 110.83467102 C39.56249634 110.84540398 39.56249634 110.84540398 38.217453 110.85635376 C37.25583755 110.85904266 36.29422211 110.86173157 35.3034668 110.86450195 C34.28854156 110.87107315 33.27361633 110.87764435 32.22793579 110.88441467 C28.86419605 110.90414996 25.50050094 110.91581014 22.13671875 110.92578125 C20.98853983 110.92985678 19.84036091 110.9339323 18.65738869 110.93813133 C12.5815715 110.95899193 6.5057769 110.97329435 0.42993164 110.98266602 C-5.84828797 110.9937371 -12.1261538 111.02814548 -18.40424824 111.06783772 C-23.22981938 111.09396848 -28.05530572 111.10235467 -32.88094139 111.10594749 C-35.19539978 111.11082171 -37.50985417 111.12245931 -39.82424355 111.14098549 C-43.06320979 111.16530335 -46.30125383 111.16442512 -49.5402832 111.1574707 C-50.49582596 111.17028076 -51.45136871 111.18309082 -52.43586731 111.19628906 C-58.15336177 111.15155017 -61.52634868 110.61224335 -65.8125 106.6875 C-66.82542299 102.50075165 -67.05838943 99.86776925 -66.1875 95.6875 C-65.75186283 92.20240261 -66.71523067 90.17429383 -67.97720337 86.96685791 C-69.41597443 83.04073865 -70.33080283 78.99407274 -71.29296875 74.9296875 C-71.51068436 74.02300323 -71.72839996 73.11631897 -71.95271301 72.18215942 C-72.40816459 70.27847163 -72.86098288 68.37415206 -73.3112793 66.46923828 C-74.00013249 63.56194082 -74.7017147 60.65791256 -75.40429688 57.75390625 C-75.84712566 55.89601705 -76.28920873 54.03794992 -76.73046875 52.1796875 C-76.93979538 51.31705292 -77.14912201 50.45441833 -77.36479187 49.56564331 C-78.39085822 45.17864492 -79.05806993 41.22939186 -78.8125 36.6875 C-79.8953125 36.6565625 -79.8953125 36.6565625 -81 36.625 C-84.5799065 35.43169783 -85.83809965 33.90407293 -87.85546875 30.78515625 C-89.55457433 27.06099422 -89.72977681 23.65995861 -88.8125 19.6875 C-86.83157 16.14743498 -84.18222511 13.93398341 -80.8125 11.6875 C-76.02105735 11.21621056 -73.7835053 11.17451607 -69.5 13.4375 C-65.0925 17.1275 -65.0925 17.1275 -63.8125 19.6875 C-63.37996199 25.05097133 -63.99144127 28.59433974 -65.8125 33.6875 C-52.06081437 45.29848505 -52.06081437 45.29848505 -36.8125 54.6875 C-28.81630854 44.56537091 -20.97918384 34.41856628 -13.8125 23.6875 C-14.43640625 23.41164062 -15.0603125 23.13578125 -15.703125 22.8515625 C-18.90097101 21.08682526 -19.55973245 19.06997237 -20.8125 15.6875 C-21.59194236 10.31800822 -21.20551887 7.69796847 -18.0625 3.25 C-13.71059812 -2.36571177 -6.28254676 -2.93185516 0 0 Z " fill="#D89904" transform="translate(256.8125,192.3125)"/>
<path d="M0 0 C3.5302945 1.17676483 3.99773308 2.04451215 6.0390625 5.05078125 C6.90398315 6.30882568 6.90398315 6.30882568 7.78637695 7.59228516 C8.39312256 8.48995605 8.99986816 9.38762695 9.625 10.3125 C10.87989457 12.14043327 12.1364039 13.96725903 13.39453125 15.79296875 C14.0076416 16.68419434 14.62075195 17.57541992 15.25244141 18.49365234 C18.19455196 22.71322582 21.29755154 26.80050164 24.42578125 30.8828125 C26 33 26 33 27 35 C31.50037873 35.54585239 34.15714712 35.26429068 37.69140625 32.5078125 C38.9951902 31.39575165 40.28503731 30.26720007 41.5625 29.125 C42.95665714 27.93270656 44.35385463 26.74396003 45.75390625 25.55859375 C46.45531738 24.96159668 47.15672852 24.36459961 47.87939453 23.74951172 C51.13643137 21.06243758 54.54540842 18.6123877 58 16.1875 C58.60529541 15.76162598 59.21059082 15.33575195 59.83422852 14.89697266 C61.21965836 13.92678596 62.60930379 12.96262253 64 12 C64.99817355 15.13654623 64.96162335 17.20324992 64.21484375 20.39453125 C64.01310547 21.27044922 63.81136719 22.14636719 63.60351562 23.04882812 C63.38373047 23.96083984 63.16394531 24.87285156 62.9375 25.8125 C62.74478516 26.65103516 62.55207031 27.48957031 62.35351562 28.35351562 C59.79320562 39.29159845 56.83528088 50.13142328 54 61 C18.69 61 -16.62 61 -53 61 C-54.65 53.74 -56.3 46.48 -58 39 C-59.35412078 33.32502961 -60.72349478 27.65498465 -62.11132812 21.98828125 C-62.35947266 20.96605469 -62.60761719 19.94382813 -62.86328125 18.890625 C-63.08282471 17.99375977 -63.30236816 17.09689453 -63.52856445 16.17285156 C-64 14 -64 14 -64 12 C-54.79748781 16.250583 -46.83917298 23.61155367 -38.84765625 29.80078125 C-37.90792969 30.52652344 -36.96820313 31.25226563 -36 32 C-35.28199219 32.58394531 -34.56398437 33.16789062 -33.82421875 33.76953125 C-31.91227928 35.26287205 -31.91227928 35.26287205 -28.75 35.375 C-22.74817456 33.17433067 -20.4130571 28.19227754 -17 23 C-15.88733415 21.5115331 -14.76382082 20.0310524 -13.625 18.5625 C-11.75270469 16.1410678 -10.30385301 13.77221083 -9 11 C-8.34 11 -7.68 11 -7 11 C-6.773125 10.29875 -6.54625 9.5975 -6.3125 8.875 C-4.68343133 5.30656387 -2.59359269 2.93485489 0 0 Z " fill="#FDE440" transform="translate(249,218)"/>
<path d="M0 0 C3.20008327 2.46863567 4.88973538 3.79420614 6.1875 7.6875 C6.75441614 13.41117254 6.40472068 17.73792972 3.1875 22.6875 C2.5275 23.0175 1.8675 23.3475 1.1875 23.6875 C5.80753167 33.28124998 12.29464355 41.56377105 18.9296875 49.81640625 C21.1875 52.6875 21.1875 52.6875 22.1875 54.6875 C25.70620584 53.4207659 28.35581714 51.98384268 31.25 49.625 C34.9528575 46.66147143 38.70114529 43.77737553 42.5 40.9375 C43.48613281 40.20015625 44.47226562 39.4628125 45.48828125 38.703125 C46.37902344 38.03796875 47.26976562 37.3728125 48.1875 36.6875 C49.52109868 35.68785389 50.8545467 34.68800651 52.1875 33.6875 C51.8575 33.048125 51.5275 32.40875 51.1875 31.75 C49.52478869 26.6579466 49.31476699 21.80043255 51.375 16.8125 C54.66609509 12.95397473 57.05097688 11.81378035 62.125 11.25 C66.4025513 11.42755873 68.92166458 12.87736254 72.1875 15.6875 C74.56052167 18.61422672 75.14716626 20.37059204 75.625 24.125 C75.0958448 28.43383519 73.97872193 30.38210561 71.1875 33.6875 C69.19981606 35.03912508 67.2008653 36.37443567 65.1875 37.6875 C63.03408414 40.76380837 62.68941027 44.00682466 62.1875 47.6875 C59.2175 47.1925 59.2175 47.1925 56.1875 46.6875 C56.1875 44.0475 56.1875 41.4075 56.1875 38.6875 C54.52711679 39.92308387 52.86711127 41.1591777 51.20874023 42.39746094 C49.76684929 43.47408159 48.32363071 44.54892626 46.87915039 45.62207031 C43.2697498 48.31774368 39.71269487 51.04641824 36.25390625 53.93359375 C35.64111816 54.43914795 35.02833008 54.94470215 34.39697266 55.46557617 C33.24284401 56.42427576 32.09983505 57.39657382 30.97021484 58.3840332 C28.16846637 60.69515489 26.17197729 61.69040946 22.58203125 62.36328125 C18.81151318 61.61264877 17.69019159 60.62333351 15.57470703 57.47070312 C15.19942871 56.86162109 14.82415039 56.25253906 14.4375 55.625 C13.58759539 54.34134869 12.73596936 53.05883582 11.8828125 51.77734375 C11.44614258 51.10687012 11.00947266 50.43639648 10.55957031 49.74560547 C8.26517722 46.30401584 5.78334532 43.00348106 3.3125 39.6875 C0.1517156 35.42449624 -2.90281289 31.12646453 -5.8125 26.6875 C-9.29571217 28.09560705 -10.62687105 29.55336788 -12.4375 32.8125 C-13.6640625 35.0078125 -13.6640625 35.0078125 -14.8125 36.6875 C-15.4725 36.6875 -16.1325 36.6875 -16.8125 36.6875 C-17.02132812 37.52023438 -17.23015625 38.35296875 -17.4453125 39.2109375 C-19.17379855 43.60623059 -21.69158513 46.70590704 -24.6875 50.3125 C-25.21730469 50.96734375 -25.74710938 51.6221875 -26.29296875 52.296875 C-27.77618003 54.11500496 -29.28686261 55.90493551 -30.8125 57.6875 C-31.49570313 58.49960938 -32.17890625 59.31171875 -32.8828125 60.1484375 C-35.40461564 62.15975417 -36.64270203 62.00822354 -39.8125 61.6875 C-41.81030273 60.56103516 -41.81030273 60.56103516 -43.74609375 58.9765625 C-44.47135254 58.39535645 -45.19661133 57.81415039 -45.94384766 57.21533203 C-46.70487793 56.58739746 -47.4659082 55.95946289 -48.25 55.3125 C-49.84843467 54.028973 -51.44871854 52.74774571 -53.05078125 51.46875 C-54.24501709 50.51162109 -54.24501709 50.51162109 -55.46337891 49.53515625 C-58.87739454 46.84992757 -62.38860713 44.31546704 -65.9375 41.8125 C-66.5348999 41.39049316 -67.1322998 40.96848633 -67.74780273 40.53369141 C-69.10036224 39.58162847 -70.45602662 38.63397821 -71.8125 37.6875 C-72.1425 38.6775 -72.4725 39.6675 -72.8125 40.6875 C-74.1325 40.0275 -75.4525 39.3675 -76.8125 38.6875 C-77.4725 40.0075 -78.1325 41.3275 -78.8125 42.6875 C-78.8125 40.7075 -78.8125 38.7275 -78.8125 36.6875 C-79.8953125 36.6565625 -79.8953125 36.6565625 -81 36.625 C-84.5799065 35.43169783 -85.83809965 33.90407293 -87.85546875 30.78515625 C-89.55457433 27.06099422 -89.72977681 23.65995861 -88.8125 19.6875 C-86.83157 16.14743498 -84.18222511 13.93398341 -80.8125 11.6875 C-76.02105735 11.21621056 -73.7835053 11.17451607 -69.5 13.4375 C-65.0925 17.1275 -65.0925 17.1275 -63.8125 19.6875 C-63.37996199 25.05097133 -63.99144127 28.59433974 -65.8125 33.6875 C-52.06081437 45.29848505 -52.06081437 45.29848505 -36.8125 54.6875 C-28.81630854 44.56537091 -20.97918384 34.41856628 -13.8125 23.6875 C-14.43640625 23.41164062 -15.0603125 23.13578125 -15.703125 22.8515625 C-18.90097101 21.08682526 -19.55973245 19.06997237 -20.8125 15.6875 C-21.59194236 10.31800822 -21.20551887 7.69796847 -18.0625 3.25 C-13.71059812 -2.36571177 -6.28254676 -2.93185516 0 0 Z " fill="#D89A08" transform="translate(256.8125,192.3125)"/>
<path d="M0 0 C0.95018005 0.00359528 1.90036011 0.00719055 2.8793335 0.01089478 C4.37184883 0.01067574 4.37184883 0.01067574 5.89451599 0.01045227 C9.20059348 0.01115186 12.5066154 0.01894637 15.81268311 0.02676392 C18.09811879 0.02862793 20.38355487 0.03005191 22.66899109 0.03105164 C28.69751073 0.03487809 34.72600644 0.04470947 40.7545166 0.05575562 C46.90085527 0.06596699 53.04719778 0.07054867 59.19354248 0.07559204 C71.26321447 0.08633162 83.33286868 0.10340957 95.40252686 0.12442017 C96.3632312 3.00653319 96.50834569 4.8229206 96.46502686 7.81192017 C96.45600342 8.62016235 96.44697998 9.42840454 96.43768311 10.26113892 C96.42608154 10.87602173 96.41447998 11.49090454 96.40252686 12.12442017 C82.85988508 12.14754076 69.31724795 12.1653338 55.77459049 12.17623234 C49.48690661 12.18146179 43.19923619 12.18856055 36.91156006 12.19985962 C30.84914962 12.2106863 24.78675216 12.21669653 18.72433281 12.21929741 C16.40576409 12.22115206 14.08719612 12.22477341 11.76863289 12.23015022 C8.53338178 12.23735775 5.29818503 12.23841123 2.06292725 12.23794556 C1.09404572 12.24154083 0.12516418 12.24513611 -0.87307739 12.24884033 C-1.74952408 12.24746567 -2.62597076 12.246091 -3.52897644 12.24467468 C-4.29498641 12.24559648 -5.06099638 12.24651827 -5.85021877 12.24746799 C-7.59747314 12.12442017 -7.59747314 12.12442017 -8.59747314 11.12442017 C-8.53368346 9.45429033 -8.397192 7.78661032 -8.22247314 6.12442017 C-8.13223877 5.21692017 -8.04200439 4.30942017 -7.94903564 3.37442017 C-7.21818666 -1.30301335 -4.10025941 0.00655696 0 0 Z " fill="#FDE342" transform="translate(205.59747314453125,284.8755798339844)"/>
<path d="M0 0 C2.44794742 3.67192113 2.71435887 6.73106028 2 11 C-0.20740681 13.96858157 -1.48597373 14.82865791 -5 16 C-6.43767079 16.09457924 -7.87928551 16.13484938 -9.3200531 16.14044189 C-10.20188263 16.14615204 -11.08371216 16.15186218 -11.99226379 16.15774536 C-12.95702133 16.15886322 -13.92177887 16.15998108 -14.91577148 16.16113281 C-16.44297821 16.16858017 -16.44297821 16.16858017 -18.0010376 16.17617798 C-21.37439648 16.19080234 -24.74770836 16.19760138 -28.12109375 16.203125 C-30.46134951 16.20887535 -32.80160524 16.2146331 -35.14186096 16.22039795 C-40.05038676 16.23090812 -44.95889617 16.23675097 -49.86743164 16.24023438 C-56.1637192 16.24572515 -62.45979116 16.26976571 -68.75601101 16.29820633 C-73.59007913 16.31680722 -78.42409499 16.32203691 -83.25819588 16.32357025 C-85.57987715 16.32660207 -87.9015574 16.33464831 -90.22320366 16.34775543 C-93.46724874 16.36476559 -96.71076269 16.36294806 -99.95483398 16.35644531 C-101.39893394 16.37026749 -101.39893394 16.37026749 -102.87220764 16.3843689 C-103.75685699 16.37879974 -104.64150635 16.37323059 -105.55296326 16.36749268 C-106.70304698 16.36969252 -106.70304698 16.36969252 -107.87636471 16.3719368 C-110 16 -110 16 -114 13 C-78.36 13.33 -42.72 13.66 -6 14 C-6 13.34 -6 12.68 -6 12 C-39.33 11.67 -72.66 11.34 -107 11 C-107 10.67 -107 10.34 -107 10 C-73.34 10 -39.68 10 -5 10 C-5 8.35 -5 6.7 -5 5 C-4.67 5 -4.34 5 -4 5 C-4 7.31 -4 9.62 -4 12 C-2.68 12 -1.36 12 0 12 C0 8.04 0 4.08 0 0 Z " fill="#D3A62F" transform="translate(307,287)"/>
<path d="M0 0 C3.8076546 2.01159111 7.04834016 4.09668033 9 8 C9.35177778 10.80305465 9.23058477 13.14074886 9 16 C8.34 16.66 7.68 17.32 7 18 C6.690625 17.030625 6.38125 16.06125 6.0625 15.0625 C5.30476658 12.15934208 5.30476658 12.15934208 4 11 C3.525625 12.134375 3.05125 13.26875 2.5625 14.4375 C1 18 1 18 0 19 C-7.25717501 19.58525605 -7.25717501 19.58525605 -10.0625 17.375 C-11.33735758 14.14536079 -10.96557827 12.31055407 -10 9 C-8.4375 6.625 -8.4375 6.625 -7 5 C-8.32 5 -9.64 5 -11 5 C-11.19916016 5.85851562 -11.19916016 5.85851562 -11.40234375 6.734375 C-11.99380317 8.97650875 -12.73288854 11.08579619 -13.5625 13.25 C-13.83191406 13.95640625 -14.10132813 14.6628125 -14.37890625 15.390625 C-14.68634766 16.18726563 -14.68634766 16.18726563 -15 17 C-15.33 17 -15.66 17 -16 17 C-16.7595682 9.40431796 -16.7595682 9.40431796 -14.9921875 6.13671875 C-10.65535464 0.90395335 -6.735712 -1.04607648 0 0 Z " fill="#D49B19" transform="translate(184,204)"/>
<path d="M0 0 C0.91585285 3.31803928 0.96907495 5.81670039 0.5625 9.25 C0.46066406 10.14203125 0.35882813 11.0340625 0.25390625 11.953125 C0.17011719 12.62859375 0.08632813 13.3040625 0 14 C-0.66 14 -1.32 14 -2 14 C-1.9690625 15.7015625 -1.9690625 15.7015625 -1.9375 17.4375 C-2 21 -2 21 -3 22 C-3.36760731 24.32817964 -3.70241581 26.6618385 -4 29 C-4.66 29 -5.32 29 -6 29 C-5.938125 30.19625 -5.87625 31.3925 -5.8125 32.625 C-5.652606 35.71628409 -6.01743758 37.03253816 -7.515625 39.828125 C-9.71406466 44.52584344 -9.02625939 48.67682042 -8.71484375 53.7578125 C-9 57 -9 57 -10.87890625 59.3671875 C-13.87292805 61.67197776 -15.51304813 62.12865754 -19.2243042 62.17840576 C-20.55327225 62.19959221 -20.55327225 62.19959221 -21.90908813 62.22120667 C-22.8836496 62.23167526 -23.85821106 62.24214386 -24.86230469 62.25292969 C-26.39910385 62.2750074 -26.39910385 62.2750074 -27.96694946 62.29753113 C-31.3685444 62.34457206 -34.77016779 62.38386574 -38.171875 62.421875 C-39.33200356 62.43573494 -40.49213211 62.44959488 -41.68741608 62.46387482 C-47.82801949 62.53719157 -53.96865469 62.60474313 -60.109375 62.66748047 C-66.45607356 62.73336561 -72.80237521 62.81797685 -79.14878464 62.9070549 C-84.02487197 62.97218035 -88.90103517 63.02364926 -93.77732086 63.07138824 C-96.1169358 63.09663985 -98.45650137 63.12700068 -100.79598236 63.16255951 C-104.0707291 63.21101102 -107.34511549 63.24017281 -110.62011719 63.26464844 C-111.58658173 63.28321396 -112.55304626 63.30177948 -113.54879761 63.32090759 C-118.796727 63.33754758 -122.4792538 62.98669161 -127 60 C-133.22381844 52.02109176 -132.31212676 39.62390831 -132 30 C-131.67 30 -131.34 30 -131 30 C-130 34 -129 38 -128 42 C-127.79117188 42.70640625 -127.58234375 43.4128125 -127.3671875 44.140625 C-126.94290605 46.28911404 -127.16440618 47.85448381 -127.5625 50 C-127.92206916 52.54537117 -128.03759085 53.8701407 -127.3125 56.375 C-125.28968652 58.87943574 -123.06742779 59.8731603 -119.88195133 60.25168228 C-118.73576407 60.25281336 -118.73576407 60.25281336 -117.56642151 60.25396729 C-116.24378296 60.26242676 -116.24378296 60.26242676 -114.89442444 60.27105713 C-113.93483322 60.26700867 -112.975242 60.26296021 -111.98657227 60.25878906 C-110.46155594 60.26404602 -110.46155594 60.26404602 -108.9057312 60.26940918 C-105.54255357 60.27821675 -102.17958605 60.27238024 -98.81640625 60.265625 C-96.47997497 60.26697203 -94.14354397 60.26891288 -91.80711365 60.27142334 C-86.90873549 60.27437337 -82.01043024 60.27008116 -77.11206055 60.26074219 C-70.83275064 60.2493541 -64.55361182 60.2559039 -58.2743082 60.26788712 C-53.44877331 60.2751143 -48.62327896 60.27281371 -43.79774284 60.26763153 C-41.48248207 60.26629709 -39.16721762 60.26793557 -36.85196114 60.27259064 C-33.61548234 60.27766917 -30.37928044 60.26992642 -27.14282227 60.25878906 C-26.18525528 60.26283752 -25.22768829 60.26688599 -24.24110413 60.27105713 C-17.87950996 60.26234069 -17.87950996 60.26234069 -12 58 C-10.16331182 54.32662363 -10.57540314 49.59593328 -11.6171875 45.68017578 C-12.07481283 42.47621476 -11.49217709 40.91791887 -10.2578125 37.94921875 C-7.93831963 32.00090621 -6.36153167 26.01424722 -4.875 19.8125 C-4.62363281 18.78447266 -4.37226563 17.75644531 -4.11328125 16.69726562 C-3.62752217 14.70972259 -3.14400713 12.72162934 -2.66308594 10.73291016 C-1.79389205 7.15052562 -0.89909765 3.5749835 0 0 Z " fill="#F0DDB6" transform="translate(319,242)"/>
<path d="M0 0 C5.60900456 1.36351492 7.88794446 5.29364279 11.0625 9.75 C11.57876953 10.45382813 12.09503906 11.15765625 12.62695312 11.8828125 C15.52430428 15.85421357 18.30471268 19.88920207 21 24 C24.83663072 22.65070536 27.65172569 20.92248975 30.8125 18.375 C31.60269531 17.74335938 32.39289063 17.11171875 33.20703125 16.4609375 C33.79871094 15.97882813 34.39039063 15.49671875 35 15 C35.66 15.33 36.32 15.66 37 16 C35 19 35 19 32.5 19.875 C31.675 20.24625 30.85 20.6175 30 21 C29.73445313 21.81082031 29.46890625 22.62164062 29.1953125 23.45703125 C28 26 28 26 25.3984375 27.14453125 C24.40070313 27.36496094 23.40296875 27.58539063 22.375 27.8125 C21.37210937 28.04582031 20.36921875 28.27914062 19.3359375 28.51953125 C18.56507813 28.67808594 17.79421875 28.83664063 17 29 C10.35800587 20.52764423 4.03965562 11.91359803 -2 3 C-1.34 2.67 -0.68 2.34 0 2 C0 1.34 0 0.68 0 0 Z " fill="#D79A0A" transform="translate(258,223)"/>
<path d="M0 0 C2.1640625 0.34375 2.1640625 0.34375 4.7265625 1.90625 C6.72737452 5.29893126 6.71732798 7.47089161 6.1640625 11.34375 C4.7265625 13.78125 4.7265625 13.78125 2.1640625 15.34375 C-0.98874623 16.00902157 -3.69490803 16.10311976 -6.8359375 15.34375 C-9.4609375 12.71875 -9.4609375 12.71875 -10.8359375 9.34375 C-10.77293238 6.13048892 -10.53869751 4.24791074 -8.5546875 1.6953125 C-5.81492578 -0.45913649 -3.36986459 -0.13172109 0 0 Z " fill="#FCE13D" transform="translate(251.8359375,196.65625)"/>
<path d="M0 0 C3 0.5625 3 0.5625 5.375 2.1875 C7.48706506 5.27436432 7.61195145 6.8907913 7 10.5625 C5.4375 13 5.4375 13 3 14.5625 C-1.23312311 14.41396936 -3.46102322 13.92181785 -7 11.5625 C-7.58338459 7.81217051 -7.25015884 6.00508871 -5.375 2.6875 C-3 0.5625 -3 0.5625 0 0 Z " fill="#FDE441" transform="translate(319,209.4375)"/>
<path d="M0 0 C2 1.125 2 1.125 3 3 C2.66666667 9.33333333 2.66666667 9.33333333 0 12 C-7.1372549 12.67973856 -7.1372549 12.67973856 -10.0625 10.375 C-11.33302894 7.15632669 -10.98013473 5.29045231 -10 2 C-7.54407863 -2.22964236 -4.27506951 -1.06876738 0 0 Z " fill="#FCE13D" transform="translate(184,211)"/>
<path d="M0 0 C4.36350222 2.22291622 7.09544338 4.45022584 9 9 C9.57402898 13.5102277 9.30636893 15.4734284 7 19.4375 C6.34 20.283125 5.68 21.12875 5 22 C4.67 21.01 4.34 20.02 4 19 C4.66 19 5.32 19 6 19 C6.165 17.741875 6.33 16.48375 6.5 15.1875 C6.63921875 14.12595703 6.63921875 14.12595703 6.78125 13.04296875 C7.053233 10.84528294 7.053233 10.84528294 7 8 C5.68 8 4.36 8 3 8 C3 6.68 3 5.36 3 4 C1.68 3.67 0.36 3.34 -1 3 C-1.33 3.99 -1.66 4.98 -2 6 C-3.9812585 6.72045764 -5.98504093 7.38001259 -8 8 C-9.69207001 8.9563874 -11.36816893 9.94410931 -13 11 C-13.33 10.67 -13.66 10.34 -14 10 C-14 12.97 -14 15.94 -14 19 C-16.3941161 16.6058839 -16.29598923 15.96213689 -16.3125 12.6875 C-16.20891986 8.65434833 -15.68859882 6.15215034 -13 3 C-9.04758244 -0.27486027 -4.98604927 -0.87989105 0 0 Z " fill="#D59B11" transform="translate(323,204)"/>
<path d="M0 0 C0.91585285 3.31803928 0.96907495 5.81670039 0.5625 9.25 C0.46066406 10.14203125 0.35882813 11.0340625 0.25390625 11.953125 C0.17011719 12.62859375 0.08632813 13.3040625 0 14 C-0.66 14 -1.32 14 -2 14 C-1.979375 15.134375 -1.95875 16.26875 -1.9375 17.4375 C-2 21 -2 21 -3 22 C-3.36760731 24.32817964 -3.70241581 26.6618385 -4 29 C-4.66 29 -5.32 29 -6 29 C-5.938125 30.19625 -5.87625 31.3925 -5.8125 32.625 C-5.652606 35.71628409 -6.01743758 37.03253816 -7.515625 39.828125 C-9.71406466 44.52584344 -9.02625939 48.67682042 -8.71484375 53.7578125 C-9 57 -9 57 -10.86328125 59.4453125 C-13 61 -13 61 -15.25 60.75 C-15.8275 60.5025 -16.405 60.255 -17 60 C-16.195625 59.71125 -15.39125 59.4225 -14.5625 59.125 C-11.8673532 58.26737432 -11.8673532 58.26737432 -11 56 C-10.78307164 50.78261738 -10.78307164 50.78261738 -11.6171875 45.68017578 C-12.07481283 42.47621476 -11.49217709 40.91791887 -10.2578125 37.94921875 C-7.93831963 32.00090621 -6.36153167 26.01424722 -4.875 19.8125 C-4.62363281 18.78447266 -4.37226563 17.75644531 -4.11328125 16.69726562 C-3.62752217 14.70972259 -3.14400713 12.72162934 -2.66308594 10.73291016 C-1.79389205 7.15052562 -0.89909765 3.5749835 0 0 Z " fill="#E9D4A6" transform="translate(319,242)"/>
<path d="M0 0 C0.66 0 1.32 0 2 0 C2.08628662 0.75627686 2.17257324 1.51255371 2.26147461 2.29174805 C3.15289938 5.56069846 4.1193062 6.35415788 6.81640625 8.33203125 C7.58017578 8.90244141 8.34394531 9.47285156 9.13085938 10.06054688 C9.93330078 10.63869141 10.73574219 11.21683594 11.5625 11.8125 C12.36880859 12.40998047 13.17511719 13.00746094 14.00585938 13.62304688 C15.9952454 15.09448625 17.9930787 16.55261864 20 18 C18.68 18.33 17.36 18.66 16 19 C15.67 18.34 15.34 17.68 15 17 C11.97065509 16.34227572 11.97065509 16.34227572 9 16 C9 15.34 9 14.68 9 14 C7.39125 13.62875 7.39125 13.62875 5.75 13.25 C2.00350563 12.00116854 0.47926118 10.97511342 -2 8 C-1.34 7.67 -0.68 7.34 0 7 C0 4.69 0 2.38 0 0 Z " fill="#D69912" transform="translate(189,222)"/>
<path d="M0 0 C1.875 0.25 1.875 0.25 4 1 C6.8654296 4.80393268 6.25662836 9.40777344 6.1875 13.9375 C6.18685547 14.73607422 6.18621094 15.53464844 6.18554688 16.35742188 C6.1607529 19.6825698 6.06902119 22.68114753 5.36328125 25.94140625 C5.18345703 26.96041016 5.18345703 26.96041016 5 28 C5.66 28.66 6.32 29.32 7 30 C7 31.32 7 32.64 7 34 C7.66 34 8.32 34 9 34 C9.33 35.65 9.66 37.3 10 39 C7.04726378 36.17820552 4.56580638 33.257115 2.1875 29.9375 C1.56230469 29.08027344 0.93710937 28.22304687 0.29296875 27.33984375 C-0.13371094 26.56769531 -0.56039063 25.79554688 -1 25 C-0.505 23.515 -0.505 23.515 0 22 C0.66 22 1.32 22 2 22 C4.06020102 16.97826002 4.67280881 12.36268202 4 7 C2.70208018 4.10960374 2.70208018 4.10960374 1 2 C0.67 1.34 0.34 0.68 0 0 Z " fill="#E4D4AF" transform="translate(258,193)"/>
<path d="M0 0 C0.66 0.33 1.32 0.66 2 1 C0 4 0 4 -2.5 4.875 C-3.325 5.24625 -4.15 5.6175 -5 6 C-5.26554687 6.81082031 -5.53109375 7.62164062 -5.8046875 8.45703125 C-7 11 -7 11 -9.6015625 12.14453125 C-10.59929687 12.36496094 -11.59703125 12.58539063 -12.625 12.8125 C-13.62789063 13.04582031 -14.63078125 13.27914062 -15.6640625 13.51953125 C-16.43492187 13.67808594 -17.20578125 13.83664063 -18 14 C-19 13 -19 13 -19.09765625 10.71484375 C-19.08605469 9.79832031 -19.07445312 8.88179687 -19.0625 7.9375 C-19.05347656 7.01839844 -19.04445313 6.09929687 -19.03515625 5.15234375 C-19.02355469 4.44207031 -19.01195312 3.73179687 -19 3 C-15.125 6.75 -15.125 6.75 -14 9 C-10.16336928 7.65070536 -7.34827431 5.92248975 -4.1875 3.375 C-3.39730469 2.74335938 -2.60710937 2.11171875 -1.79296875 1.4609375 C-1.20128906 0.97882813 -0.60960937 0.49671875 0 0 Z " fill="#D39D1E" transform="translate(293,238)"/>
<path d="M0 0 C0.66 0 1.32 0 2 0 C1.5206753 4.31392226 0.2542015 6.16569547 -3 9 C-2.34 9 -1.68 9 -1 9 C-2.15173355 11.46800047 -3.04783565 13.04783565 -5 15 C-6.32 15 -7.64 15 -9 15 C-9 14.34 -9 13.68 -9 13 C-10.65 13.66 -12.3 14.32 -14 15 C-10.2615861 11.0203981 -6.22246855 7.84230196 -1.79296875 4.6484375 C-1.20128906 4.10445312 -0.60960937 3.56046875 0 3 C0 2.01 0 1.02 0 0 Z " fill="#D19917" transform="translate(309,223)"/>
<path d="M0 0 C2.43816585 -0.0809723 4.87364384 -0.14046972 7.3125 -0.1875 C8.34793945 -0.22520508 8.34793945 -0.22520508 9.40429688 -0.26367188 C14.47826186 -0.3372076 14.47826186 -0.3372076 16.85546875 1.19921875 C19.64565657 5.58924123 20.23878367 9.13534289 20.125 14.3125 C20.10695313 15.38113281 20.08890625 16.44976562 20.0703125 17.55078125 C20.04710937 18.35902344 20.02390625 19.16726562 20 20 C19.01 20.33 18.02 20.66 17 21 C17.165 20.484375 17.33 19.96875 17.5 19.4375 C18.50066023 14.55928138 18.6099825 11.15460973 16.25 6.6875 C14.05683812 4.06788998 13.089708 3.18622718 10 2 C7.40845081 1.75970041 7.40845081 1.75970041 4.75 1.875 C3.41195313 1.90207031 3.41195313 1.90207031 2.046875 1.9296875 C1.37140625 1.95289063 0.6959375 1.97609375 0 2 C0 1.34 0 0.68 0 0 Z " fill="#E9D6AF" transform="translate(313,203)"/>
<path d="M0 0 C1.32 0.33 2.64 0.66 4 1 C3.01 2.485 3.01 2.485 2 4 C1.2374057 8.65537221 1.60604189 12.19749274 3.6875 16.4375 C6.06553043 19.0726148 7.61696486 20.06026802 11 21 C11.33 24.3 11.66 27.6 12 31 C9.8480563 27.77208445 9.79913557 26.71599191 10 23 C8.88625 22.9071875 8.88625 22.9071875 7.75 22.8125 C4.15110668 21.74919061 3.08140754 20.04777533 1 17 C-0.53266582 13.93466836 -0.10276471 10.73245728 -0.0625 7.375 C-0.05798828 6.66859375 -0.05347656 5.9621875 -0.04882812 5.234375 C-0.03703875 3.48954725 -0.01910324 1.744763 0 0 Z " fill="#E8D3AA" transform="translate(167,208)"/>
<path d="M0 0 C0.33 1.32 0.66 2.64 1 4 C1.66 4 2.32 4 3 4 C3.5625 5.9375 3.5625 5.9375 4 8 C3.67 8.33 3.34 8.66 3 9 C3 9.99 3 10.98 3 12 C4.32 12.33 5.64 12.66 7 13 C0.375 12.25 0.375 12.25 -3 10 C-3.45892595 6.48156769 -3.41140736 4.65139498 -1.5 1.625 C-1.005 1.08875 -0.51 0.5525 0 0 Z " fill="#FCE03C" transform="translate(315,211)"/>
<path d="M0 0 C0.33 1.32 0.66 2.64 1 4 C1.66 4 2.32 4 3 4 C3.33 4.66 3.66 5.32 4 6 C4.99 6 5.98 6 7 6 C7 4.35 7 2.7 7 1 C7.33 1 7.66 1 8 1 C8 4.3 8 7.6 8 11 C7.01 11.33 6.02 11.66 5 12 C4.67 12.99 4.34 13.98 4 15 C1.54510684 9.87674471 0.49658297 5.66104589 0 0 Z " fill="#D79F19" transform="translate(188,272)"/>
<path d="M0 0 C1.16383641 4.65534565 0.2861296 7.76731811 -0.9375 12.25 C-1.13279297 12.99507812 -1.32808594 13.74015625 -1.52929688 14.5078125 C-2.01104198 16.34079386 -2.50439225 18.17071818 -3 20 C-3.33 20 -3.66 20 -4 20 C-4.33 16.7 -4.66 13.4 -5 10 C-5.66 10 -6.32 10 -7 10 C-7.33 11.32 -7.66 12.64 -8 14 C-8.625 12.125 -8.625 12.125 -9 10 C-8.34 9.34 -7.68 8.68 -7 8 C-5.68 8.33 -4.36 8.66 -3 9 C-2.01 6.03 -1.02 3.06 0 0 Z " fill="#D19B17" transform="translate(321,230)"/>
<path d="M0 0 C0.33 0 0.66 0 1 0 C2 4 3 8 4 12 C4.2165625 12.6909375 4.433125 13.381875 4.65625 14.09375 C5.09869645 16.54731666 4.66471613 18.34113548 4.0625 20.75 C3.86785156 21.54921875 3.67320312 22.3484375 3.47265625 23.171875 C3.23869141 24.07679688 3.23869141 24.07679688 3 25 C2.67 25 2.34 25 2 25 C0.47983837 16.58481953 -0.27733386 8.5511272 0 0 Z " fill="#E3DDC6" transform="translate(187,272)"/>
<path d="M0 0 C0.99 0.66 1.98 1.32 3 2 C0.69 2 -1.62 2 -4 2 C-4 2.99 -4 3.98 -4 5 C-5.32 5.33 -6.64 5.66 -8 6 C-8 5.01 -8 4.02 -8 3 C-11.465 4.485 -11.465 4.485 -15 6 C-14.02703346 3.34645489 -13.34207577 2.20122104 -10.875 0.75 C-7.03968048 -0.25051814 -3.97025931 -0.25614576 0 0 Z " fill="#CF9A1A" transform="translate(254,191)"/>
<path d="M0 0 C0.99 0.66 1.98 1.32 3 2 C3.29296875 4.1640625 3.29296875 4.1640625 3.1875 6.625 C3.16042969 7.44226563 3.13335937 8.25953125 3.10546875 9.1015625 C3.07066406 9.72804687 3.03585938 10.35453125 3 11 C2.34 11 1.68 11 1 11 C1 12.65 1 14.3 1 16 C1.66 16.33 2.32 16.66 3 17 C3.33 16.34 3.66 15.68 4 15 C4.33 16.98 4.66 18.96 5 21 C2.69 19.35 0.38 17.7 -2 16 C-1.67 15.21625 -1.34 14.4325 -1 13.625 C0.27410171 9.00638131 0.16923936 4.75750644 0 0 Z " fill="#E9D6B6" transform="translate(192,210)"/>
<path d="M0 0 C1.99825961 2.99738941 2.27550398 3.63347508 2.25 7 C2.25515625 7.680625 2.2603125 8.36125 2.265625 9.0625 C2 11 2 11 0 14 C-3.125 14.1875 -3.125 14.1875 -6 14 C-6.33 12.68 -6.66 11.36 -7 10 C-6.34 10 -5.68 10 -5 10 C-5 8.35 -5 6.7 -5 5 C-4.67 5 -4.34 5 -4 5 C-4 7.31 -4 9.62 -4 12 C-2.68 12 -1.36 12 0 12 C0 8.04 0 4.08 0 0 Z " fill="#D19F23" transform="translate(307,287)"/>
<path d="M0 0 C0.66 0.33 1.32 0.66 2 1 C1.67515625 1.56847656 1.3503125 2.13695312 1.015625 2.72265625 C-1.02848997 7.30619097 -0.52890022 12.38024307 1 17.0625 C1.33 17.701875 1.66 18.34125 2 19 C0.35 19.99 -1.3 20.98 -3 22 C-2.8859425 19.08252927 -2.75919732 16.16655505 -2.625 13.25 C-2.5940625 12.425 -2.563125 11.6 -2.53125 10.75 C-2.47324219 9.55117187 -2.47324219 9.55117187 -2.4140625 8.328125 C-2.3826416 7.5949707 -2.3512207 6.86181641 -2.31884766 6.10644531 C-1.96227477 3.75077082 -1.16337117 2.06549409 0 0 Z " fill="#EAD2A1" transform="translate(308,207)"/>
<path d="M0 0 C2.31 0 4.62 0 7 0 C5.68775452 3.93673644 4.08089673 6.22719294 1 9 C-1.09230769 4.56923077 -1.09230769 4.56923077 -0.625 1.6875 C-0.41875 1.130625 -0.2125 0.57375 0 0 Z " fill="#E3DBC5" transform="translate(233,220)"/>
<path d="M0 0 C4.02238501 2.06554906 6.19096176 3.81064829 8 8 C8.57402898 12.5102277 8.30636893 14.4734284 6 18.4375 C5.34 19.283125 4.68 20.12875 4 21 C3.67 20.01 3.34 19.02 3 18 C3.66 18 4.32 18 5 18 C5.165 16.741875 5.33 15.48375 5.5 14.1875 C5.5928125 13.47980469 5.685625 12.77210938 5.78125 12.04296875 C6.053233 9.84528294 6.053233 9.84528294 6 7 C4.68 7 3.36 7 2 7 C2 5.68 2 4.36 2 3 C1.34 2.67 0.68 2.34 0 2 C0 1.34 0 0.68 0 0 Z " fill="#D09D25" transform="translate(324,205)"/>
<path d="M0 0 C2.31 0 4.62 0 7 0 C7.66 1.98 8.32 3.96 9 6 C8.01 6.33 7.02 6.66 6 7 C6 6.34 6 5.68 6 5 C3.36 4.67 0.72 4.34 -2 4 C-1.34 3.67 -0.68 3.34 0 3 C0 2.01 0 1.02 0 0 Z " fill="#DA9906" transform="translate(250,193)"/>
<path d="M0 0 C3.90634379 1.12849932 6.21399474 2.08735814 9 5 C11.10332891 5.71447643 11.10332891 5.71447643 13 6 C13 5.01 13 4.02 13 3 C14.65 2.34 16.3 1.68 18 1 C15.03 4.96 15.03 4.96 12 9 C8.89383788 7.44691894 6.48417379 5.99825692 3.75 3.9375 C3.04359375 3.41027344 2.3371875 2.88304687 1.609375 2.33984375 C1.07828125 1.89769531 0.5471875 1.45554688 0 1 C0 0.67 0 0.34 0 0 Z " fill="#EAD8B2" transform="translate(208,239)"/>
<path d="M0 0 C4.41889613 1.35021826 6.34345343 3.26115668 9 7 C7.68 7 6.36 7 5 7 C4.34 7.66 3.68 8.32 3 9 C0.70620251 5.55930376 0 4.27709699 0 0 Z " fill="#D49D19" transform="translate(209,241)"/>
<path d="M0 0 C1.40066801 2.80133603 0.62265667 5.02106112 0.19140625 8.0234375 C-0.02187153 10.22585703 0.22268117 11.9271498 1 14 C2.32 14.33 3.64 14.66 5 15 C5 16.32 5 17.64 5 19 C2.02422056 17.97386916 1.02245939 17.03368909 -0.75 14.375 C-2.30950154 10.16434583 -2.36643416 7.47049675 -2 3 C-1.34 2.01 -0.68 1.02 0 0 Z " fill="#CF9D29" transform="translate(238,197)"/>
<path d="M0 0 C0.99 0 1.98 0 3 0 C3.33 0.99 3.66 1.98 4 3 C4.66 3.268125 5.32 3.53625 6 3.8125 C6.66 4.204375 7.32 4.59625 8 5 C8.75 8.125 8.75 8.125 9 11 C9.99 11.33 10.98 11.66 12 12 C10.68 12 9.36 12 8 12 C5.859375 9.62890625 5.859375 9.62890625 3.75 6.5625 C3.04359375 5.55316406 2.3371875 4.54382813 1.609375 3.50390625 C0 1 0 1 0 0 Z " fill="#E9D8B3" transform="translate(270,235)"/>
<path d="M0 0 C2.96404505 2.80804268 5.44499019 5.18315774 7 9 C6.01 8.67 5.02 8.34 4 8 C4 7.34 4 6.68 4 6 C2.68 6.33 1.36 6.66 0 7 C0 6.34 0 5.68 0 5 C-0.99 5.33 -1.98 5.66 -3 6 C-3.66 4.68 -4.32 3.36 -5 2 C-2.525 2.495 -2.525 2.495 0 3 C0 2.01 0 1.02 0 0 Z " fill="#D49B19" transform="translate(267,232)"/>
<path d="M0 0 C0.66 0 1.32 0 2 0 C1.67 1.65 1.34 3.3 1 5 C1.66 5.33 2.32 5.66 3 6 C2.01 6.66 1.02 7.32 0 8 C-0.33 7.67 -0.66 7.34 -1 7 C-1 9.97 -1 12.94 -1 16 C-3.3941161 13.6058839 -3.29598923 12.96213689 -3.3125 9.6875 C-3.22902509 5.70638901 -2.62871832 3.13424107 0 0 Z " fill="#D29E29" transform="translate(310,207)"/>
<path d="M0 0 C0 0.99 0 1.98 0 3 C-3.33333333 6 -3.33333333 6 -6 6 C-5.96519531 6.61488281 -5.93039062 7.22976562 -5.89453125 7.86328125 C-5.86746094 8.67152344 -5.84039062 9.47976562 -5.8125 10.3125 C-5.76029297 11.51326172 -5.76029297 11.51326172 -5.70703125 12.73828125 C-6.06198392 15.47851584 -6.89366282 16.29171079 -9 18 C-8.76641242 16.03119043 -8.52901717 14.06270048 -8.265625 12.09765625 C-8.06174254 10.48758445 -7.92289796 8.86917002 -7.8125 7.25 C-6.57216875 3.81523654 -4.06288921 2.78668537 -1 1 C-0.67 0.67 -0.34 0.34 0 0 Z " fill="#EAD3A5" transform="translate(329,224)"/>
<path d="M0 0 C0.33 0 0.66 0 1 0 C1 3.63 1 7.26 1 11 C-0.65 11.66 -2.3 12.32 -4 13 C-4 12.01 -4 11.02 -4 10 C-3.01 10 -2.02 10 -1 10 C-1.66 8.68 -2.32 7.36 -3 6 C-2.34 5.34 -1.68 4.68 -1 4 C-0.3574765 1.93125966 -0.3574765 1.93125966 0 0 Z " fill="#D5A110" transform="translate(326,216)"/>
<path d="M0 0 C0 1.65 0 3.3 0 5 C-0.78375 5.28875 -1.5675 5.5775 -2.375 5.875 C-5.09671632 6.84912254 -5.09671632 6.84912254 -7 9 C-6.50233954 5.31731261 -5.93714041 3.34971233 -3 1 C-1 0 -1 0 0 0 Z " fill="#D69A06" transform="translate(236,232)"/>
<path d="M0 0 C1 2 1 2 0.3984375 3.875 C-2.39165911 9.6681777 -2.39165911 9.6681777 -5.75 11.5 C-6.4925 11.665 -7.235 11.83 -8 12 C-6.59023295 8.96147295 -4.91129772 6.4060405 -2.875 3.75 C-2.06675781 2.69039062 -2.06675781 2.69039062 -1.2421875 1.609375 C-0.83226562 1.07828125 -0.42234375 0.5471875 0 0 Z " fill="#D5A534" transform="translate(230,234)"/>
<path d="M0 0 C2 1 4 2 6 3 C6 4.32 6 5.64 6 7 C4.02 6.34 2.04 5.68 0 5 C0 3.35 0 1.7 0 0 Z " fill="#D99504" transform="translate(261,228)"/>
<path d="M0 0 C4.95 0 9.9 0 15 0 C15.33 0.99 15.66 1.98 16 3 C15.21625 2.835 14.4325 2.67 13.625 2.5 C9.06033858 1.87039153 4.59927399 1.91819473 0 2 C0 1.34 0 0.68 0 0 Z " fill="#E7DBC0" transform="translate(313,203)"/>
<path d="M0 0 C1.80411967 2.75924185 2.0127245 3.88972103 1.625 7.25 C1.41875 8.1575 1.2125 9.065 1 10 C-0.32 9.34 -1.64 8.68 -3 8 C-2.01 5.36 -1.02 2.72 0 0 Z " fill="#D59502" transform="translate(260,201)"/>
<path d="M0 0 C5.625 -0.25 5.625 -0.25 9 2 C8.67 2.66 8.34 3.32 8 4 C5.4375 4.625 5.4375 4.625 3 5 C2.87625 4.360625 2.7525 3.72125 2.625 3.0625 C2.315625 2.0415625 2.315625 2.0415625 2 1 C1.34 0.67 0.68 0.34 0 0 Z " fill="#FCDC3B" transform="translate(316,210)"/>
<path d="M0 0 C1.74965358 -0.05429959 3.49979787 -0.09292823 5.25 -0.125 C6.22453125 -0.14820313 7.1990625 -0.17140625 8.203125 -0.1953125 C11.0196498 0.00137219 12.60949036 0.55431084 15 2 C14.01 3.485 14.01 3.485 13 5 C12.34 4.525625 11.68 4.05125 11 3.5625 C7.2066972 1.58682146 4.24475932 1.35972537 0 1 C0 0.67 0 0.34 0 0 Z " fill="#E5DCBA" transform="translate(176,203)"/>
<path d="M0 0 C2.97 0.33 5.94 0.66 9 1 C9 2.98 9 4.96 9 7 C7.4972763 6.02501855 5.99788037 5.04490611 4.5 4.0625 C3.6646875 3.51722656 2.829375 2.97195312 1.96875 2.41015625 C1.3190625 1.94480469 0.669375 1.47945312 0 1 C0 0.67 0 0.34 0 0 Z " fill="#E4D8B3" transform="translate(197,231)"/>
<path d="M0 0 C0.66 0 1.32 0 2 0 C2 0.66 2 1.32 2 2 C3.65 1.67 5.3 1.34 7 1 C7.33 1.66 7.66 2.32 8 3 C7.01 3 6.02 3 5 3 C5.33 4.32 5.66 5.64 6 7 C3.00675737 5.9024777 2.15389099 5.32317108 0.75 2.375 C0.5025 1.59125 0.255 0.8075 0 0 Z " fill="#D19D1F" transform="translate(169,221)"/>
<path d="M0 0 C0.66 0 1.32 0 2 0 C0.44499019 3.81684226 -2.03595495 6.19195732 -5 9 C-5.66 8.67 -6.32 8.34 -7 8 C-5.88200014 6.66079162 -4.75538103 5.32877444 -3.625 4 C-2.68527344 2.88625 -2.68527344 2.88625 -1.7265625 1.75 C-1.15679687 1.1725 -0.58703125 0.595 0 0 Z " fill="#717171" transform="translate(25,39)"/>
<path d="M0 0 C0.33 0 0.66 0 1 0 C1.33 3.96 1.66 7.92 2 12 C1.34 11.67 0.68 11.34 0 11 C-1.27368421 3.82105263 -1.27368421 3.82105263 0 0 Z " fill="#D3A942" transform="translate(191,288)"/>
<path d="M0 0 C0.33 0 0.66 0 1 0 C1.33 1.65 1.66 3.3 2 5 C3.32 5 4.64 5 6 5 C6 5.99 6 6.98 6 8 C7.32 8.33 8.64 8.66 10 9 C3.375 8.25 3.375 8.25 0 6 C-0.1875 2.875 -0.1875 2.875 0 0 Z " fill="#F0C729" transform="translate(312,215)"/>
<path d="M0 0 C0.33 0 0.66 0 1 0 C0.88490339 1.41750563 0.75746342 2.83401169 0.625 4.25 C0.55539062 5.03890625 0.48578125 5.8278125 0.4140625 6.640625 C-0.01507113 9.085877 -0.78600638 10.84836903 -2 13 C-2.05447047 11.58376784 -2.09300508 10.16691809 -2.125 8.75 C-2.14820313 7.96109375 -2.17140625 7.1721875 -2.1953125 6.359375 C-1.9828378 3.79268059 -1.28654105 2.2083933 0 0 Z " fill="#D69D29" transform="translate(313,261)"/>
<path d="M0 0 C0.33 0 0.66 0 1 0 C1.13277344 0.67546875 1.26554688 1.3509375 1.40234375 2.046875 C1.57894531 2.93890625 1.75554687 3.8309375 1.9375 4.75 C2.11152344 5.63171875 2.28554687 6.5134375 2.46484375 7.421875 C2.92368488 9.63235053 3.43336074 11.81512068 4 14 C3.34 14 2.68 14 2 14 C-0.28062828 10.57905758 -0.21925007 9.31812778 -0.125 5.3125 C-0.10695312 4.31863281 -0.08890625 3.32476562 -0.0703125 2.30078125 C-0.04710937 1.54152344 -0.02390625 0.78226563 0 0 Z " fill="#E8D8B2" transform="translate(235,200)"/>
<path d="M0 0 C0.33 0.66 0.66 1.32 1 2 C1.99 2.33 2.98 2.66 4 3 C1.36 4.65 -1.28 6.3 -4 8 C-2.87548273 5.0280615 -1.77706209 2.66559313 0 0 Z " fill="#E8D9B9" transform="translate(292,234)"/>
<path d="M0 0 C0.66 0 1.32 0 2 0 C2 0.66 2 1.32 2 2 C2.99 2.33 3.98 2.66 5 3 C3.02 5.97 3.02 5.97 1 9 C0.08941469 5.92677456 -0.08886184 3.19902639 0 0 Z " fill="#DEA50A" transform="translate(313,229)"/>
<path d="M0 0 C1.67542976 0.28604898 3.34385343 0.61781233 5 1 C3.3545622 2.68762851 1.68711423 4.3540349 0 6 C-0.33 6 -0.66 6 -1 6 C-1.042721 4.33388095 -1.04063832 2.66617115 -1 1 C-0.67 0.67 -0.34 0.34 0 0 Z " fill="#E3D1B2" transform="translate(300,228)"/>
<path d="M0 0 C2.475 0.495 2.475 0.495 5 1 C4 4 4 4 1.9375 5.1875 C1.298125 5.455625 0.65875 5.72375 0 6 C0 4.02 0 2.04 0 0 Z " fill="#E1D4AD" transform="translate(305,223)"/>
<path d="M0 0 C0.66 0 1.32 0 2 0 C2.103125 0.763125 2.20625 1.52625 2.3125 2.3125 C3.04364039 5.17059424 3.76951913 6.15742885 6 8 C3.03 7.505 3.03 7.505 0 7 C0 4.69 0 2.38 0 0 Z " fill="#CD9B21" transform="translate(189,222)"/>
<path d="M0 0 C0.33 0.66 0.66 1.32 1 2 C-1.34375 8.5625 -1.34375 8.5625 -5 11 C-4.67 9.68 -4.34 8.36 -4 7 C-3.34 7 -2.68 7 -2 7 C-1.855625 6.030625 -1.71125 5.06125 -1.5625 4.0625 C-1 1 -1 1 0 0 Z " fill="#D5940E" transform="translate(308,281)"/>
<path d="M0 0 C0.33 0 0.66 0 1 0 C1.66 3.3 2.32 6.6 3 10 C2.01 10 1.02 10 0 10 C0 6.7 0 3.4 0 0 Z " fill="#E3D8AC" transform="translate(187,272)"/>
</svg>
